<svg xmlns="http://www.w3.org/2000/svg" xmlns:xlink="http://www.w3.org/1999/xlink" id="Layer_1" x="0px" y="0px" viewBox="0 0 141.7 141.7" style="enable-background:new 0 0 141.7 141.7;" xml:space="preserve"><style type="text/css">	.st0{fill-rule:evenodd;clip-rule:evenodd;fill:#002B40;}	.st1{fill-rule:evenodd;clip-rule:evenodd;fill:#B09477;}	.st2{fill:#B09477;}	.st3{fill:#002B40;}</style><g>	<path class="st2" d="M70.9,61.7c1.7,0,3,1.4,3,3v6.1H80c1.7,0,3,1.4,3,3c0,1.7-1.4,3-3,3h-6.1V83c0,1.7-1.4,3-3,3c-1.7,0-3-1.4-3-3  V77h-6.1c-1.7,0-3-1.4-3-3c0-1.7,1.4-3,3-3h6.1v-6.1C67.8,63.1,69.2,61.7,70.9,61.7z"></path>	<path class="st0" d="M49.5,34.3c-5,0-9.1,4.1-9.1,9.1v54.8c0,5,4.1,9.1,9.1,9.1h42.6c5,0,9.1-4.1,9.1-9.1V52.6  c0-0.8-0.3-1.6-0.9-2.2L85.2,35.2c-0.6-0.6-1.3-0.9-2.2-0.9H49.5z M46.5,43.5c0-1.7,1.4-3,3-3H80v12.2c0,1.7,1.4,3,3,3h12.2v42.6  c0,1.7-1.4,3-3,3H49.5c-1.7,0-3-1.4-3-3V43.5z"></path></g></svg>