<svg xmlns="http://www.w3.org/2000/svg" xmlns:xlink="http://www.w3.org/1999/xlink" id="Layer_1" x="0px" y="0px" viewBox="0 0 141.7 141.7" style="enable-background:new 0 0 141.7 141.7;" xml:space="preserve"><style type="text/css">	.st0{fill-rule:evenodd;clip-rule:evenodd;fill:#002B40;}	.st1{fill-rule:evenodd;clip-rule:evenodd;fill:#B09477;}	.st2{fill:#B09477;}	.st3{fill:#002B40;}</style><g>	<g>		<g>			<path class="st3" d="M48.8,112.4c0-3.1,0-6.2,0-9.3c0-0.4,0-0.9,0-1.3c0-1.3-1.1-2.5-2.4-2.4c-1.3,0.1-2.4,1.1-2.4,2.4    c0,3.1,0,6.2,0,9.3c0,0.4,0,0.9,0,1.3c0,1.3,1.1,2.5,2.4,2.4C47.7,114.8,48.8,113.8,48.8,112.4L48.8,112.4z"></path>		</g>	</g>	<g>		<g>			<path class="st3" d="M35.1,112.4c0-3.5,0-7,0-10.6c0-0.7,0-1.5,0-2.2c0-0.1,0-0.3,0-0.4c0-0.2,0-0.4,0-0.6c0-0.2,0-0.4,0-0.6    c0-0.1,0.1-0.4,0,0c-0.1,0.5,0-0.1,0-0.2c0.1-0.4,0.2-0.8,0.3-1.1c0.1-0.2,0.1-0.4,0.2-0.6c0-0.1,0.1-0.2,0.1-0.3    c0-0.1,0.2-0.5,0-0.1c-0.2,0.4,0.1-0.2,0.2-0.3c0.1-0.2,0.2-0.3,0.3-0.5c0.2-0.4,0.5-0.8,0.7-1.2c0.1-0.1,0.1-0.1,0.2-0.2    c0,0-0.4,0.5-0.1,0.2c0.1-0.2,0.3-0.3,0.4-0.5c0.3-0.3,0.6-0.6,0.9-0.9c0.1-0.1,0.3-0.2,0.4-0.4c-0.4,0.4-0.3,0.2-0.2,0.1    c0.1-0.1,0.2-0.1,0.3-0.2c0.4-0.3,0.7-0.5,1.1-0.7c0.2-0.1,0.3-0.2,0.5-0.3c0.5-0.2,0,0.1-0.2,0.1c0,0,0,0,0.1,0    c0.1,0,0.2-0.1,0.4-0.1c0.5-0.2,1-0.3,1.5-0.5c1.8-0.6,3.6-1.2,5.4-1.8c4.1-1.4,8.2-2.8,12.3-4.1c0.6-0.2,1.2-0.4,1.9-0.6    c0.2-0.1,0.6-0.1,0.8-0.2c0,0-0.6,0.1-0.6,0.1c-0.2,0-0.4-0.1-0.6-0.1c0.2,0.1,0.4,0.1,0.6,0.1c0,0,0,0,0,0c0.1,0,0.1,0,0.2,0    c0.3,0,0.5,0,0.8,0c0.9,0,1.9,0,2.8,0c2.2,0,4.3,0,6.5,0c0.5,0,1,0,1.5,0c0,0,0,0,0,0c0,0,1.2-0.2,0.3,0c-0.4,0-0.6,0.1-1,0    c0,0,0.1,0,0.1,0c0.1,0,0.3,0.1,0.4,0.1c3.5,1.1,6.9,2.3,10.3,3.4c3.6,1.2,7.2,2.4,10.7,3.6c0.2,0.1,0.5,0.2,0.7,0.3    c0.2,0-0.7-0.3-0.3-0.1c0.2,0.1,0.5,0.2,0.7,0.3c0.4,0.2,0.9,0.5,1.3,0.8c0.1,0,0.4,0.4,0.1,0.1c-0.3-0.3,0.1,0.1,0.1,0.1    c0.2,0.1,0.3,0.3,0.5,0.4c0.3,0.3,0.7,0.7,1,1.1c0.1,0.1,0.3,0.3,0,0.1c-0.3-0.2,0,0,0.1,0.1c0.1,0.2,0.2,0.3,0.3,0.5    c0.3,0.4,0.5,0.8,0.7,1.3c0.1,0.3,0,0.3,0-0.1c0,0.1,0.1,0.2,0.1,0.3c0.1,0.2,0.1,0.4,0.2,0.6c0.2,0.5,0.3,1,0.4,1.5    c0,0.1,0,0.2,0,0.3c0,0-0.1-0.6,0-0.2c0,0.2,0,0.5,0.1,0.7c0,0.2,0,0.4,0,0.6c0,0.2,0,0.3,0,0.5c0,3.9,0,7.8,0,11.7    c0,0.3,0,0.7,0,1c0,1.3,1.1,2.5,2.4,2.4c1.3-0.1,2.4-1.1,2.4-2.4c0-3.6,0-7.2,0-10.8c0-1.9,0.1-3.7-0.4-5.6    c-0.9-4.3-4.1-8-8.1-9.7c-0.9-0.4-1.8-0.6-2.6-0.9c-1.9-0.6-3.8-1.3-5.7-1.9c-4.1-1.4-8.1-2.7-12.2-4.1c-0.5-0.2-1.1-0.4-1.6-0.5    c-0.1,0-0.3-0.1-0.4-0.1c0,0-0.1,0-0.1,0c-0.4-0.1-0.6-0.1-1,0c-1,0.1,0.6,0,0.3,0c-1.5-0.1-3.1,0-4.6,0c-2.1,0-4.2,0-6.3,0    c-0.2,0-0.5,0-0.7,0c0,0-0.1,0-0.1,0c0,0,0,0,0,0c0.2,0,0.4,0.1,0.6,0.1c-0.2-0.1-0.4-0.1-0.6-0.1c-0.2,0-0.4,0-0.7,0.1    c-0.3,0.1-0.6,0.2-0.9,0.3c-3.7,1.2-7.4,2.5-11.1,3.7c-3.3,1.1-6.7,2.3-10,3.4c-2.7,0.9-5,2.9-6.7,5.2c-1.7,2.4-2.4,5.3-2.4,8.2    c0,3.9,0,7.8,0,11.8c0,0.4,0,0.7,0,1.1c0,1.3,1.1,2.5,2.4,2.4C33.9,114.8,35.1,113.8,35.1,112.4L35.1,112.4z"></path>		</g>	</g>	<g>		<g>			<path class="st3" d="M86.8,101.8c0,3.1,0,6.2,0,9.3c0,0.4,0,0.9,0,1.3c0,1.3,1.1,2.5,2.4,2.4c1.3-0.1,2.4-1.1,2.4-2.4    c0-3.1,0-6.2,0-9.3c0-0.4,0-0.9,0-1.3c0-1.3-1.1-2.5-2.4-2.4C87.9,99.4,86.8,100.5,86.8,101.8L86.8,101.8z"></path>		</g>	</g>	<g>		<g>			<path class="st3" d="M62.9,113.1c0.5-2.5,1-4.9,1.5-7.4c0.8-3.9,1.6-7.9,2.4-11.8c0.2-0.9,0.4-1.8,0.5-2.7c0.3-1.2-0.4-2.7-1.7-3    c-1.2-0.3-2.7,0.4-3,1.7c-0.5,2.5-1,4.9-1.5,7.4c-0.8,3.9-1.6,7.9-2.4,11.8c-0.2,0.9-0.4,1.8-0.5,2.7c-0.3,1.2,0.4,2.7,1.7,3    C61.1,115.1,62.6,114.4,62.9,113.1L62.9,113.1z"></path>		</g>	</g>	<g>		<g>			<path class="st3" d="M68.2,91.2c0.5,2.5,1,4.9,1.5,7.4c0.8,3.9,1.6,7.9,2.4,11.8c0.2,0.9,0.4,1.8,0.5,2.7c0.3,1.3,1.8,2.1,3,1.7    c1.3-0.4,2-1.7,1.7-3c-0.5-2.5-1-4.9-1.5-7.4c-0.8-3.9-1.6-7.9-2.4-11.8c-0.2-0.9-0.4-1.8-0.5-2.7c-0.3-1.3-1.8-2.1-3-1.7    C68.6,88.6,68,89.9,68.2,91.2L68.2,91.2z"></path>		</g>	</g>	<g>		<g>			<path class="st2" d="M81.5,48.5c0,2.2,0,4.3,0,6.5c0,0.7,0,1.4-0.1,2c0,0.2,0,0.4-0.1,0.5c0.1-0.7,0-0.1,0,0.1    c-0.1,0.4-0.2,0.8-0.2,1.3c-0.1,0.6-0.3,1.2-0.5,1.9c-0.1,0.3-0.2,0.6-0.3,1c-0.1,0.2-0.1,0.3-0.2,0.5c0.3-0.6,0,0.1-0.1,0.2    c-0.6,1.3-1.3,2.5-2.2,3.7c-0.3,0.5,0.3-0.4,0,0c-0.1,0.1-0.2,0.3-0.3,0.4c-0.2,0.3-0.4,0.5-0.7,0.8c-0.5,0.5-0.9,1-1.4,1.4    c-0.2,0.2-0.5,0.4-0.7,0.6c0,0-0.1,0.1-0.1,0.1c-0.2,0.2-0.2,0.1,0.1-0.1c-0.1,0.1-0.3,0.2-0.4,0.3c-0.6,0.5-1.3,0.9-2,1.3    c-0.3,0.2-0.6,0.4-1,0.5c0.6-0.1,0.1,0-0.1,0c-0.2,0.1-0.3,0.1-0.5,0.2c-0.3,0.1-0.7,0.2-1,0.3c-0.2,0-0.3,0.1-0.5,0.1    c-0.3,0-0.2,0,0.1,0c-0.1,0-0.2,0-0.3,0c-0.6,0.1-1.3,0.1-1.9,0c-0.2,0-0.4,0-0.5-0.1c0.1,0,0.2,0,0.3,0c-0.1,0-0.2,0-0.3-0.1    c-0.4-0.1-0.8-0.2-1.2-0.3c-0.3-0.1-0.7-0.2-1-0.4c0.5,0.3,0.1,0-0.1,0C64,71,63.9,71,63.7,70.9c-0.7-0.4-1.3-0.8-1.9-1.2    c-0.1-0.1-0.3-0.2-0.4-0.3c0,0-0.1-0.1-0.1-0.1c-0.2-0.2-0.2-0.2,0.1,0.1c-0.3-0.1-0.5-0.4-0.8-0.7c-0.4-0.4-0.9-0.8-1.3-1.2    c-0.5-0.5-1-1-1.3-1.5c0.4,0.5,0,0.1,0,0c-0.1-0.1-0.2-0.3-0.3-0.4c-0.2-0.3-0.4-0.7-0.6-1c-0.4-0.6-0.7-1.2-1-1.8    c-0.1-0.2-0.1-0.3-0.2-0.5c-0.1-0.2-0.4-0.6,0,0c-0.2-0.3-0.3-0.8-0.4-1.1c-0.2-0.6-0.4-1.2-0.5-1.8c-0.1-0.3-0.2-0.7-0.2-1    c0-0.2-0.1-0.3-0.1-0.5c0-0.1,0-0.2-0.1-0.3c0-0.3,0-0.2,0,0.1c-0.1-0.3-0.1-0.8-0.1-1.2c0-0.4,0-0.8,0-1.2c0-0.2,0-0.3,0-0.5    c0-0.7,0-1.3,0-2c0-1.3,0-2.6,0-3.9c-0.8,0.8-1.6,1.6-2.4,2.4c7.4,0.5,15.4-1.1,20.7-6.7c0.8-0.9,1.6-1.8,2.2-2.8    c-0.7,0.4-1.4,0.8-2.1,1.2c0.8,0.1,1.6,0.1,2.4,0.2c0.2,0,0.4,0,0.5,0.1c0.6,0.1-0.5-0.1,0,0c0.3,0.1,0.5,0.1,0.8,0.2    c0.5,0.2,1,0.3,1.5,0.5c0.1,0,0.6,0.2,0.2,0.1c-0.4-0.2,0,0,0.1,0.1c0.3,0.1,0.5,0.3,0.8,0.4c0.1,0.1,0.2,0.2,0.3,0.2    c-0.6-0.4-0.2-0.2-0.1,0c0.2,0.2,0.5,0.4,0.7,0.6c0.2,0.2,0.4,0.6,0.6,0.7c-0.2-0.3-0.3-0.4-0.2-0.2c0,0.1,0.1,0.1,0.1,0.2    c0.1,0.1,0.2,0.2,0.2,0.4c0.2,0.3,0.3,0.5,0.5,0.8c0.1,0.1,0.1,0.3,0.2,0.4c0-0.1-0.1-0.2-0.1-0.3c0,0.1,0.1,0.2,0.1,0.3    c0.1,0.2,0.2,0.5,0.2,0.8C81.5,48.3,81.5,48.4,81.5,48.5c0-0.2,0-0.4,0-0.5C81.5,48.2,81.5,48.4,81.5,48.5c0,1.3,1.1,2.5,2.4,2.4    c1.3-0.1,2.5-1.1,2.4-2.4c0-3.3-2.2-6.3-4.8-8.2c-1.2-0.8-2.5-1.2-3.8-1.6c-0.8-0.3-1.6-0.4-2.4-0.5c-0.9-0.1-1.8-0.2-2.7-0.3    c-0.9-0.1-1.7,0.5-2.1,1.2c-0.2,0.3-0.4,0.6-0.7,1c-0.3,0.4,0.4-0.4,0.2-0.2c-0.1,0.1-0.2,0.2-0.2,0.3c-0.2,0.2-0.3,0.4-0.5,0.6    c-0.4,0.4-0.7,0.8-1.1,1.2c-0.2,0.2-0.4,0.4-0.6,0.5c-0.1,0.1-0.2,0.2-0.3,0.3c-0.2,0.1-0.5,0.3,0.2-0.2    c-0.1,0.1-0.2,0.1-0.2,0.2c-1.1,0.8-2.4,1.5-3.7,2.1c-0.4,0.2,0.6-0.2,0.2-0.1c-0.1,0-0.1,0.1-0.2,0.1c-0.2,0.1-0.4,0.2-0.6,0.2    c-0.4,0.1-0.8,0.3-1.2,0.4c-0.9,0.3-1.8,0.5-2.7,0.6c-0.3,0-0.5,0.1-0.8,0.1c0.8-0.1-0.1,0-0.3,0c-0.6,0.1-1.2,0.1-1.8,0.1    c-1.4,0.1-2.8,0-4.1-0.1c-1.3-0.1-2.4,1.2-2.4,2.4c0,2.5-0.1,4.9,0,7.4c0.4,6.2,3.3,12.3,8.1,16.3c1.3,1.1,2.6,2.1,4.1,2.8    c1.7,0.8,3.4,1.3,5.2,1.4c3.4,0.3,6.7-0.8,9.5-2.8c5.2-3.6,8.9-9.3,9.8-15.6c0.4-3.2,0.3-6.4,0.3-9.6c0-0.1,0-0.2,0-0.3    c0-1.3-1.1-2.5-2.4-2.4C82.6,46.2,81.5,47.2,81.5,48.5z"></path>		</g>	</g>	<g>		<g>			<path class="st2" d="M87.8,48.1c-0.7-0.3-1.4-0.6-2-1c-0.1-0.1-0.2-0.1-0.3-0.2c-0.2-0.1,0.5,0.5,0.2,0.2    c-0.1-0.1-0.1-0.2,0.1,0.2c0.3,0.4,0.5,0.9,0.5,1.3c0-0.1,0-0.3,0-0.4c-0.1-1.1-0.4-2-0.8-2.9c-0.6-1.4-1.6-2.8-2.8-3.8    c-0.6-0.6-1.4-1.1-2.1-1.5c-0.8-0.4-1.5-0.6-2.3-0.9c-0.9-0.3-1.6-0.5-2.6-0.6c-1-0.1-2.1-0.2-3.2-0.3c-0.9-0.1-1.7,0.5-2.1,1.2    c-0.2,0.4-0.5,0.7-0.8,1.1c0.6-0.9,0-0.1-0.1,0.1c-0.2,0.2-0.4,0.4-0.5,0.6c-0.4,0.5-0.9,0.9-1.4,1.3c-0.1,0.1-0.3,0.2-0.4,0.3    c-0.1,0.1-0.1,0.1-0.2,0.2c0,0,0.6-0.4,0.3-0.2c-0.3,0.2-0.6,0.5-1,0.7c-0.7,0.4-1.4,0.9-2.1,1.2c-0.2,0.1-0.3,0.2-0.5,0.2    c-0.1,0-0.2,0.1-0.3,0.1c-0.4,0.2,0.6-0.2,0.2-0.1c-0.5,0.2-0.9,0.4-1.4,0.5c-0.9,0.3-1.9,0.6-2.9,0.7c-0.3,0.1-0.5,0.1-0.8,0.1    c-0.1,0-0.3,0-0.4,0.1c-0.5,0.1,0.6-0.1,0.1,0c-0.6,0.1-1.3,0.1-1.9,0.2c-1.5,0.1-2.9,0.1-4.4,0c-0.4,0-0.7,0-1.1-0.1    c-0.1,0-0.3,0-0.4,0c-0.2,0-0.9,0-0.1,0c-0.4,0-0.9-0.1-1.3-0.2c0.6,0.8,1.2,1.6,1.8,2.4c0-0.2,0-0.3,0.1-0.5c0-0.1,0-0.2,0-0.2    c0-0.4-0.1,0.8-0.1,0.5c0-0.1,0-0.1,0-0.2c0-0.2,0.1-0.5,0.1-0.7c0.2-1.4,0.6-2.9,1-4.3c0.3-0.9,0.6-1.7,0.9-2.6    c0.1-0.3-0.2,0.5-0.2,0.4c0-0.1,0.1-0.1,0.1-0.2c0-0.1,0.1-0.2,0.1-0.3c0.1-0.2,0.2-0.5,0.3-0.7c0.2-0.4,0.4-0.9,0.7-1.3    c0.2-0.4,0.5-0.9,0.8-1.3c0.1-0.2,0.3-0.4,0.4-0.6c0.1-0.2,0.5-0.6-0.1,0.1c0.1-0.1,0.2-0.2,0.3-0.3c0.7-0.8,1.4-1.5,2.2-2.2    c0.4-0.3-0.5,0.4-0.1,0.1c0.1-0.1,0.2-0.1,0.3-0.2c0.2-0.2,0.5-0.3,0.7-0.5c0.5-0.3,0.9-0.5,1.4-0.7c0.5-0.2-0.6,0.2-0.1,0.1    c0.1,0,0.2-0.1,0.4-0.1c0.3-0.1,0.6-0.2,0.8-0.3c0.6-0.2,1.1-0.3,1.7-0.4c-0.9,0.2-0.4,0-0.1,0c0.2,0,0.3,0,0.5,0    c0.3,0,0.6,0,1,0c0.7,0,1.4,0,2.1,0.1c0.1,0,0.2,0,0.3,0c-0.8-0.1-0.5-0.1-0.3,0c0.2,0,0.4,0.1,0.5,0.1c0.4,0.1,0.8,0.2,1.2,0.2    c0.8,0.2,1.6,0.4,2.4,0.7c0.4,0.1,0.9,0.3,1.3,0.5c0.9,0.4,1.7,0.6,2.7,0c0.1,0,0.2-0.1,0.2-0.1c-0.4,0.3-0.7,0.2-0.2,0.1    c0.1,0,0.2-0.1,0.3-0.1c0.2,0,0.6,0-0.4,0.1c0.1,0,0.2,0,0.2,0c0.3,0,0.6,0,0.9,0c0.2,0,0.3,0,0.5,0c0.2,0-0.8-0.1-0.3,0    c0.1,0,0.2,0,0.3,0.1c0.4,0.1,0.8,0.2,1.2,0.3c0.2,0.1,0.4,0.1,0.6,0.2c0.1,0,0.2,0.1,0.3,0.1c0.4,0.2-0.7-0.3-0.2-0.1    c0.4,0.2,0.9,0.4,1.3,0.7c0.2,0.1,0.4,0.3,0.6,0.4c0.1,0.1,0.2,0.1,0.3,0.2c0.1,0,0.1,0.1,0.2,0.1c0.3,0.2-0.5-0.4-0.3-0.2    c0.4,0.3,0.8,0.7,1.2,1.1c0.2,0.2,0.4,0.4,0.5,0.6c0.1,0.1,0.2,0.2,0.3,0.3c0.2,0.3-0.4-0.5-0.2-0.2c0,0.1,0.1,0.1,0.2,0.2    c0.4,0.5,0.7,1,1,1.6c0.1,0.3,0.3,0.6,0.4,0.8c0,0.1,0.1,0.2,0.1,0.3c0,0-0.3-0.6-0.1-0.3c0.1,0.2,0.1,0.4,0.2,0.6    c0.3,0.7,0.5,1.4,0.6,2.1c0.1,0.4,0.2,0.7,0.2,1.1c0,0.1,0,0.2,0.1,0.3c-0.1-0.7-0.1-0.5,0-0.3c0,0.2,0.1,0.5,0.1,0.7    c0.1,0.9,0.1,1.8,0.1,2.8c0,1-0.1,2.1-0.2,3.1c-0.1,0.6,0.3,1.3,0.7,1.7c0.4,0.4,1.1,0.7,1.7,0.7c0.6,0,1.3-0.2,1.7-0.7    c0.5-0.5,0.6-1,0.7-1.7c0.7-5.7-0.1-11.7-3.8-16.2c-2.3-2.9-5.8-4.8-9.5-5.2c-1.3-0.1-3-0.1-4,0.7c0.6-0.1,1.3-0.2,1.9-0.2    c-3.8-1.6-8-2.5-12.1-1.9c-3.1,0.4-5.9,1.9-8.1,4.1c-1.9,1.9-3.4,4.2-4.5,6.6c-0.9,2.1-1.7,4.3-2.1,6.6c-0.3,1.2-0.5,2.5-0.6,3.8    c0,0,0,0,0,0c-0.1,1,0.8,2.2,1.8,2.4c4.9,1,10.3,0.9,15.1-0.5c3.5-1,6.7-2.8,9.2-5.4c1-1,1.8-2,2.5-3.2c-0.7,0.4-1.4,0.8-2.1,1.2    c0.9,0.1,1.8,0.2,2.7,0.3c0.1,0,0.2,0,0.3,0c0.3,0-0.5-0.1-0.2,0c0.2,0,0.3,0.1,0.5,0.1c0.3,0.1,0.5,0.2,0.8,0.3    c0.3,0.1,0.7,0.2,1,0.3c0.1,0,0.3,0.1,0.4,0.1c0.2,0.1-0.3-0.1-0.3-0.1c0.1,0.1,0.2,0.1,0.3,0.1c0.3,0.1,0.5,0.3,0.8,0.5    c0.1,0.1,0.1,0.1,0.2,0.2c0.2,0.1-0.2-0.2-0.2-0.2c0.1,0.1,0.3,0.2,0.4,0.4c0.3,0.2,0.5,0.5,0.8,0.8c0.1,0.1,0.2,0.3,0.3,0.4    c0,0-0.3-0.4-0.2-0.2c0.1,0.1,0.1,0.2,0.2,0.3c0.2,0.3,0.4,0.6,0.5,0.8c0.1,0.1,0.2,0.3,0.2,0.4c0,0.1,0.2,0.4,0,0    c-0.2-0.4,0,0,0,0.1c0.1,0.3,0.2,0.6,0.2,0.9c0.1,0.4,0-0.6,0-0.1c0,0.1,0,0.2,0,0.3c0.1,1.2,0.7,1.9,1.6,2.5    c0.7,0.5,1.5,0.8,2.2,1.2c0.6,0.3,1.2,0.4,1.9,0.2c0.6-0.2,1.2-0.6,1.5-1.1C89.3,50.3,89.1,48.6,87.8,48.1z"></path>		</g>	</g>	<g>		<g>			<path class="st3" d="M71.3,80.5c-0.9,2.8-1.8,5.5-2.7,8.3c-0.1,0.4-0.3,0.8-0.4,1.2c0.8-0.6,1.6-1.2,2.4-1.8c-1.9,0-3.8,0-5.6,0    c0.8,0.6,1.6,1.2,2.4,1.8c-0.9-2.8-1.8-5.5-2.7-8.3c-0.1-0.4-0.3-0.8-0.4-1.2c-0.8,1-1.6,2.1-2.4,3.1c3.4,0,6.9,0,10.3,0    c0.5,0,1,0,1.5,0c1.3,0,2.5-1.1,2.4-2.4c-0.1-1.3-1.1-2.4-2.4-2.4c-3.4,0-6.9,0-10.3,0c-0.5,0-1,0-1.5,0c-1.5,0-2.8,1.6-2.4,3.1    c0.9,2.8,1.8,5.5,2.7,8.3c0.1,0.4,0.3,0.8,0.4,1.2c0.3,1,1.2,1.8,2.4,1.8c1.9,0,3.8,0,5.6,0c1.1,0,2-0.8,2.4-1.8    c0.9-2.8,1.8-5.5,2.7-8.3c0.1-0.4,0.3-0.8,0.4-1.2c0.4-1.2-0.5-2.7-1.7-3C73,78.5,71.8,79.2,71.3,80.5z"></path>		</g>	</g></g></svg>