<svg xmlns="http://www.w3.org/2000/svg" xmlns:xlink="http://www.w3.org/1999/xlink" id="Layer_1" x="0px" y="0px" viewBox="0 0 141.7 141.7" style="enable-background:new 0 0 141.7 141.7;" xml:space="preserve"><style type="text/css">	.st0{fill-rule:evenodd;clip-rule:evenodd;fill:#002B40;}	.st1{fill-rule:evenodd;clip-rule:evenodd;fill:#B09477;}	.st2{fill:#B09477;}	.st3{fill:#002B40;}</style><g>	<path class="st3" d="M94.2,37v34.7L88,71.5V37c0-1.7-1.4-3.1-3.1-3.1H47.3c-1.7,0-3.1,1.4-3.1,3.1v59.4c0,1.7,1.4,3.1,3.1,3.1h21.9  c0.7,2,1.7,4.1,3.1,6.2h-25c-5.2,0-9.4-4.2-9.4-9.4V37c0-5.2,4.2-9.4,9.4-9.4h37.5C90,27.6,94.2,31.8,94.2,37z"></path>	<path class="st3" d="M79.1,74.6c0,0-3.7,2.1-6.8,6.2H53.6c-1.7,0-3.1-1.4-3.1-3.1c0-1.7,1.4-3.1,3.1-3.1h25  C78.8,74.5,78.9,74.5,79.1,74.6z"></path>	<path class="st3" d="M80.5,47L68,37.6c-1.1-0.8-2.6-0.8-3.8,0L51.7,47c-0.8,0.6-1.2,1.5-1.2,2.5V62c0,3.4,2.8,6.2,6.2,6.2h18.8  c3.4,0,6.2-2.8,6.2-6.2V49.5C81.7,48.5,81.2,47.6,80.5,47z M67.6,62h-3.1v-3.1h3.1V62z M75.5,62h-1.6v-3.1c0-3.4-2.8-6.2-6.2-6.2  h-3.1c-3.4,0-6.3,2.8-6.3,6.2V62h-1.6V51.1l9.4-7l9.4,7V62z"></path>	<path d="M94.2,71.7L88,71.5C91.1,71.1,94.2,71.7,94.2,71.7z"></path>	<path class="st2" d="M94.2,71.7c-2.1-0.3-4.2-0.4-6.2-0.2c-3.2,0.4-6.2,1.4-8.8,3h0c0,0-3.7,2.1-6.8,6.2h0c-1.4,1.9-2.4,4-3.1,6.2  c0,0-0.8,1.9-0.9,6.2c0,2.1,0.3,4.2,0.9,6.2c0,0,0,0,0,0c0.7,2,1.7,4.1,3.1,6.2c4,5.7,10.6,9.4,18.2,9.4c12.2,0,22.2-9.8,22.2-21.9  C112.8,82.4,104.7,73.4,94.2,71.7z M90.6,108.9L90.6,108.9c-3.6,0-6.9-1.1-9.6-3.1c-2.2-1.6-4-3.8-5.1-6.2  c-0.6-1.4-1.1-2.9-1.2-4.5c-0.1-0.6-0.1-1.2-0.1-1.8c0-2.2,0.5-4.3,1.4-6.2c0.2-0.5,0.5-1.1,0.8-1.6c2.3-4,6.4-6.8,11.2-7.6  c0.8-0.2,1.7-0.2,2.6-0.2c1.2,0,2.5,0.2,3.7,0.4c7.1,1.6,12.3,7.8,12.3,15.2C106.5,101.9,99.4,108.9,90.6,108.9z"></path>	<path class="st3" d="M69.2,87c0,0-0.8,1.9-0.9,6.2H53.6c-1.7,0-3.1-1.4-3.1-3.1c0-1.7,1.4-3.1,3.1-3.1H69.2z"></path>	<path class="st2" d="M92.1,91.7L92.1,91.7l0-3.1h3.2c0.9,0,1.6-0.7,1.6-1.6c0-0.9-0.7-1.6-1.6-1.6h-3.2v-1.6c0-0.9-0.7-1.6-1.6-1.6  c-0.9,0-1.6,0.7-1.6,1.6v1.6h0c-2.6,0-4.8,2.1-4.8,4.7c0,2.6,2.1,4.7,4.8,4.7h0v3.1h-3.2c-0.9,0-1.6,0.7-1.6,1.6  c0,0.9,0.7,1.6,1.6,1.6H89v1.6c0,0.9,0.7,1.6,1.6,1.6c0.9,0,1.6-0.7,1.6-1.6v-1.6h0c2.6,0,4.8-2.1,4.8-4.7  C96.9,93.8,94.8,91.7,92.1,91.7z M89,91.7L89,91.7c-0.9,0-1.7-0.7-1.7-1.6c0-0.9,0.7-1.6,1.6-1.6h0V91.7z M92.1,97.9L92.1,97.9  l0-3.1h0c0.9,0,1.6,0.7,1.6,1.6C93.8,97.2,93,97.9,92.1,97.9z"></path></g></svg>