<svg xmlns="http://www.w3.org/2000/svg" xmlns:xlink="http://www.w3.org/1999/xlink" id="Layer_1" x="0px" y="0px" viewBox="0 0 141.7 141.7" style="enable-background:new 0 0 141.7 141.7;" xml:space="preserve"><style type="text/css">	.st0{fill-rule:evenodd;clip-rule:evenodd;fill:#002B40;}	.st1{fill-rule:evenodd;clip-rule:evenodd;fill:#B09477;}	.st2{fill:#B09477;}	.st3{fill:#002B40;}</style><g>	<path class="st0" d="M66.1,115.2c-1,0-2-0.2-2.9-0.7c-1.1-0.6-1.9-1.4-2.5-2.5c-0.5,0.2-1.1,0.2-1.7,0.2c-1,0-2-0.2-2.9-0.7  c-0.9-0.5-1.7-1.2-2.3-2.1c-0.7,0.3-1.5,0.4-2.2,0.4c-1,0-2-0.2-2.9-0.7c-1.4-0.8-2.5-2-3-3.6c-0.2-0.6-0.3-1.2-0.3-1.8  c-0.7-0.1-1.5-0.3-2.1-0.7c-1.4-0.8-2.5-2.1-3-3.6c-0.5-1.6-0.3-3.2,0.5-4.7l1.2-2.2c-0.2-0.7-0.4-1.3-0.5-2  c-0.1-0.5-0.3-1.8-0.6-1.9c-0.3-0.1-1.1-0.4-2.2-0.9l-0.2,0.5c-0.5,1.1-1.4,2-2.6,2.4c-0.5,0.2-1.1,0.3-1.7,0.3  c-0.7,0-1.3-0.1-1.9-0.4l-4.9-2.1c-1.1-0.5-2-1.4-2.4-2.6c-0.4-1.2-0.4-2.4,0.1-3.5L36.5,57c0.5-1.1,1.4-2,2.6-2.4  c0.5-0.2,1.1-0.3,1.7-0.3c0.6,0,1.3,0.1,1.9,0.4l4.9,2.1c1.1,0.5,2,1.4,2.4,2.6c0.4,1.2,0.4,2.4-0.1,3.5L49.3,64l2.5,1.2l0.1,0l0,0  c0.5,0.3,1.2,0.4,1.9,0.4c1.1,0,2.3-0.3,3.6-0.5c1.6-0.3,3.3-0.7,5.2-0.7c2.1,0,4,0.5,5.7,1.5c2.3-1.3,4.6-2,6.9-2  c2.9,0,5.3,1,7.2,1.8c1.6,0.6,2.8,1.1,3.7,1.1c0.4,0,0.8-0.1,1.2-0.3l2.1-1.1L89,64.1c-0.4-1.2-0.4-2.4,0.1-3.5  c0.5-1.1,1.4-2,2.6-2.4l4.9-1.9c0.5-0.2,1.1-0.3,1.7-0.3c1.9,0,3.6,1.2,4.3,3l10,25.7c0.4,1.2,0.4,2.4-0.1,3.5  c-0.5,1.1-1.4,2-2.6,2.4l-5,1.9c-0.5,0.2-1.1,0.3-1.7,0.3c-1.9,0-3.6-1.2-4.3-2.9l-0.1-0.3l-2.7,1.1c0.1,1.1-0.2,2.3-0.7,3.2  c-0.7,1.2-1.8,2.2-3,2.7c0.3,1.4,0,2.8-0.6,4c-0.8,1.4-2,2.4-3.6,2.9c-0.5,0.1-1.1,0.2-1.6,0.2c-0.1,0.8-0.3,1.6-0.7,2.4  c-0.8,1.4-2.1,2.4-3.6,2.9c-0.5,0.2-1.1,0.2-1.7,0.2c-0.1,0-0.2,0-0.3,0c-0.1,0.7-0.3,1.5-0.7,2.1c-0.8,1.4-2.1,2.5-3.7,2.9  c-0.5,0.1-1.1,0.2-1.6,0.2c-1,0-2-0.3-2.9-0.8l-0.8-0.4c-0.7,0.8-1.7,1.4-2.7,1.7C67.3,115.1,66.7,115.2,66.1,115.2z M64.4,109  c0,0.6,0.3,1.2,0.9,1.6c0.2,0.1,0.5,0.2,0.8,0.2c0.2,0,0.3,0,0.5-0.1c0.4-0.1,0.8-0.4,1-0.8l2.3-4.3c0.2-0.4,0.3-0.9,0.1-1.3  c-0.1-0.4-0.4-0.8-0.8-1c-0.2-0.1-0.5-0.2-0.8-0.2c-0.4,0-0.8,0.2-1.2,0.4L64.4,109z M73.6,109.8c0.2,0.1,0.5,0.2,0.7,0.2  c0.1,0,0.3,0,0.4-0.1c0.4-0.1,0.8-0.4,1-0.8c0.4-0.8,0.1-1.7-0.6-2.2l-0.8-0.5c-0.1,0.4-0.3,0.8-0.5,1.1l-1,1.8L73.6,109.8z   M57.3,106.1c0,0.6,0.4,1.2,0.9,1.5c0.3,0.1,0.5,0.2,0.8,0.2c0.5,0,1-0.2,1.3-0.6l3-5.8c0.1-0.7-0.3-1.4-0.9-1.8  c-0.2-0.1-0.5-0.2-0.8-0.2c-0.4,0-0.8,0.1-1.1,0.4L57.3,106.1z M50.2,102.8c-0.2,0.4-0.3,0.8-0.1,1.3c0.1,0.4,0.4,0.8,0.8,1  c0.3,0.1,0.5,0.2,0.8,0.2c0.6,0,1.2-0.4,1.5-0.9l3.4-6.7c0.1-0.7-0.3-1.4-0.9-1.8c-0.3-0.1-0.5-0.2-0.8-0.2c-0.3,0-0.7,0.1-1,0.3  L50.2,102.8z M79.8,104.5c0.2,0.1,0.5,0.2,0.8,0.2c0.2,0,0.3,0,0.5-0.1c0.4-0.1,0.8-0.4,1-0.8c0.4-0.8,0.1-1.8-0.7-2.2l-9.7-5.5  c-0.5-0.3-0.9-0.8-1-1.3c-0.2-0.6-0.1-1.2,0.2-1.7c0.4-0.7,1.1-1.1,1.9-1.1c0.4,0,0.8,0.1,1.1,0.3l11.9,6.7  c0.2,0.1,0.5,0.2,0.8,0.2c0.2,0,0.3,0,0.5-0.1c0.4-0.1,0.7-0.4,1-0.8c0.4-0.8,0.1-1.8-0.7-2.2c-3.4-1.9-6.2-3.5-9.1-5.1  c-0.5-0.3-0.9-0.8-1-1.3c-0.2-0.6-0.1-1.2,0.2-1.7c0.4-0.7,1.1-1.1,1.9-1.1c0.4,0,0.8,0.1,1.1,0.3c2.8,1.6,5.5,3.1,9.1,5.1  c0.2,0.1,0.5,0.2,0.7,0.2c0.1,0,0.3,0,0.5-0.1c0.4-0.1,0.8-0.4,1-0.8c0.4-0.8,0.1-1.8-0.7-2.2L77.7,82c-0.5-0.3-1.1-0.5-1.8-0.5  c-1.6,0-3.6,0.8-5.7,1.7c-2.5,1-5.3,2.1-8.2,2.1c-3.4,0-6.2-1.5-8.6-4.6c-0.5-0.6-0.6-1.4-0.5-2.1c0.1-0.7,0.6-1.4,1.3-1.8  c3.6-2.1,6.7-4.5,9.2-6.9c0.3-0.3,0.7-0.7,1-1c-0.5-0.1-1.1-0.2-1.7-0.2c-1.4,0-2.8,0.3-4.2,0.6c-1.5,0.3-3,0.7-4.6,0.7  c-1.5,0-2.8-0.3-4-1l-2.3-1l-6.9,15.6c1.1,0.5,1.8,0.8,2,0.9c1.7,0.7,2.5,2.1,2.9,3.3c1-0.6,2.1-0.9,3.3-0.9c1,0,2,0.2,2.9,0.7  c1.5,0.8,2.6,2.2,3,3.8c0.1,0,0.2,0,0.3,0c1,0,2,0.2,2.9,0.7c1.2,0.6,2.2,1.7,2.7,3c0.4-0.1,0.7-0.1,1.1-0.1c1,0,2,0.2,2.9,0.7  c1.2,0.7,2.2,1.7,2.7,3c0.4-0.1,0.7-0.1,1.1-0.1c1,0,2,0.2,2.9,0.7c0.7,0.4,1.3,0.9,1.8,1.5L79.8,104.5z M48.8,91.3  c-0.6,0-1.2,0.3-1.5,0.9l-2.4,4.5c-0.2,0.4-0.3,0.9-0.1,1.3c0.1,0.4,0.4,0.8,0.8,1c0.2,0.1,0.5,0.2,0.8,0.2c0.3,0,0.7-0.1,1-0.3  l3.1-5.4c0.3-0.7,0-1.7-0.8-2.1C49.3,91.3,49,91.3,48.8,91.3z M98.3,60.3C98.2,60.3,98.2,60.3,98.3,60.3l-5,1.9  c-0.1,0-0.2,0.2-0.1,0.3l10,25.7c0,0.1,0.1,0.1,0.2,0.1l5-1.9c0.1,0,0.2-0.2,0.1-0.3l-10-25.7C98.4,60.3,98.3,60.3,98.3,60.3z   M75.9,77.2c1.5,0,2.8,0.3,4,1l13.2,7.5c0.4,0.3,0.8,0.6,1.2,0.9l3-1.2l-6.1-15.9l-1.7,0.9c-1,0.5-2.1,0.8-3.2,0.8  c-1.9,0-3.6-0.7-5.3-1.4c-1.9-0.8-3.6-1.5-5.6-1.5c-1.9,0-3.7,0.7-5.7,2c-1,0.7-2.1,1.6-3.2,2.7c-2.2,2.3-5,4.4-8.2,6.5  c1.2,1,2.4,1.5,3.8,1.5c2,0,4.2-0.9,6.5-1.8C70.9,78.2,73.4,77.2,75.9,77.2z M40.7,58.6c-0.1,0-0.2,0.1-0.2,0.1L29.3,84  c0,0,0,0.1,0,0.2c0,0.1,0.1,0.1,0.1,0.1l4.8,2.1c0,0,0.1,0,0.1,0l0.1,0c0.1,0,0.1-0.1,0.1-0.1l11.1-25.2c0-0.1,0-0.1,0-0.2  c0,0,0-0.1-0.1-0.1L40.7,58.6L40.7,58.6z M96.7,66.4c-1.4,0-2.5-1.1-2.5-2.5c0-1.4,1.1-2.5,2.5-2.5c1.4,0,2.5,1.1,2.5,2.5  C99.2,65.3,98.1,66.4,96.7,66.4z M42,64.8c-1.3-0.1-2.4-1.2-2.4-2.5l0-0.1c0.1-1.3,1.2-2.4,2.5-2.4l0.1,0c1.3,0.1,2.4,1.2,2.4,2.5  l0,0.1c-0.1,1.3-1.2,2.4-2.5,2.4L42,64.8z"></path>	<path class="st0" d="M42.2,60.6c-0.9,0-1.7,0.7-1.7,1.6c0,0.9,0.7,1.7,1.6,1.7c0.9,0,1.7-0.7,1.7-1.6  C43.8,61.5,43.1,60.7,42.2,60.6z M42.2,60.6c-0.9,0-1.7,0.7-1.7,1.6c0,0.9,0.7,1.7,1.6,1.7c0.9,0,1.7-0.7,1.7-1.6  C43.8,61.5,43.1,60.7,42.2,60.6z M96.7,62.3c-0.9,0-1.7,0.7-1.7,1.7c0,0.9,0.7,1.6,1.7,1.6c0.9,0,1.6-0.7,1.6-1.6  C98.4,63,97.6,62.3,96.7,62.3z M96.7,62.3c-0.9,0-1.7,0.7-1.7,1.7c0,0.9,0.7,1.6,1.7,1.6c0.9,0,1.6-0.7,1.6-1.6  C98.4,63,97.6,62.3,96.7,62.3z M42.2,60.6c-0.9,0-1.7,0.7-1.7,1.6c0,0.9,0.7,1.7,1.6,1.7c0.9,0,1.7-0.7,1.7-1.6  C43.8,61.5,43.1,60.7,42.2,60.6z M111.8,84.9l-10-25.7c-0.8-1.9-2.9-2.9-4.9-2.2l-5,1.9c-2,0.8-2.9,2.9-2.2,4.9l0.8,2l-2.8,1.5  c-1.5,0.8-3.1,0.2-5.6-0.8c-3.4-1.4-7.9-3.2-13.8,0.4c-3.7-2.5-7.6-1.6-10.7-1c-2.4,0.5-4.5,1-6.2,0c0,0-0.1,0-0.1,0l-3.2-1.5  l0.9-1.9c0.8-1.9,0-4.1-1.9-5l-4.9-2.2c-0.9-0.4-1.9-0.4-2.9-0.1c-1,0.4-1.7,1.1-2.1,2L26.1,82.6c-0.4,0.9-0.4,1.9-0.1,2.9  c0.4,1,1.1,1.7,2,2.1l4.9,2.1c0.5,0.2,1,0.3,1.5,0.3c0.5,0,0.9-0.1,1.4-0.2c0.9-0.4,1.7-1.1,2.1-2l0.5-1.3c1.6,0.7,2.6,1.1,2.9,1.3  c0.6,0.2,0.8,1.1,1.1,2.5c0.1,0.8,0.3,1.5,0.6,2.2L41.7,95c-1.4,2.6-0.4,5.8,2.2,7.1c0.8,0.4,1.8,0.6,2.7,0.6  c-0.1,0.8-0.1,1.6,0.2,2.4c0.4,1.3,1.3,2.5,2.5,3.1c1.6,0.9,3.5,0.8,5-0.1c0.5,1,1.3,1.9,2.3,2.5c1.5,0.8,3.2,0.8,4.6,0.2  c0.4,1.2,1.3,2.2,2.5,2.8c0.8,0.4,1.6,0.6,2.5,0.6c0.5,0,1-0.1,1.5-0.2c1.1-0.3,2.1-1.1,2.8-2l1.4,0.8c0.8,0.4,1.6,0.7,2.5,0.7  c0.5,0,0.9-0.1,1.4-0.2c1.3-0.4,2.5-1.3,3.1-2.5c0.5-0.8,0.7-1.8,0.6-2.7c0.8,0.2,1.7,0.2,2.6-0.1c1.3-0.4,2.4-1.3,3.1-2.5  c0.5-0.9,0.7-1.9,0.6-2.8c0.7,0.1,1.5,0,2.2-0.2c1.3-0.4,2.4-1.3,3.1-2.5c0.7-1.3,0.8-2.8,0.4-4.1c0.1,0,0.1,0,0.2-0.1  c1.3-0.4,2.4-1.3,3.1-2.5c0.6-1.1,0.7-2.2,0.5-3.4l4.1-1.7l0.5,1.2c0.6,1.5,2,2.4,3.5,2.4c0.4,0,0.9-0.1,1.3-0.2l5-1.9  C111.5,89,112.5,86.8,111.8,84.9z M35.4,86.7c-0.1,0.3-0.3,0.5-0.6,0.6c-0.3,0.1-0.6,0.1-0.8,0l-4.9-2.2c-0.3-0.1-0.5-0.3-0.6-0.6  c-0.1-0.3-0.1-0.6,0-0.8l11.2-25.2c0.2-0.4,0.6-0.6,1-0.6c0.1,0,0.3,0,0.4,0.1L46,60c0.5,0.2,0.8,0.9,0.5,1.4L35.4,86.7z   M47.9,99.5c-0.8,0.6-1.9,0.7-2.8,0.2c-1.3-0.7-1.7-2.2-1.1-3.5l2.4-4.5c0.7-1.2,2.2-1.7,3.5-1.1c1.2,0.6,1.7,2.1,1.1,3.3  L47.9,99.5z M54,104.8c-0.7,1.3-2.2,1.7-3.5,1.1c-0.6-0.3-1-0.9-1.2-1.5c-0.2-0.7-0.1-1.4,0.2-2l3.9-6.9c0.8-0.6,1.9-0.7,2.8-0.2  c1,0.5,1.5,1.7,1.3,2.8L54,104.8z M61.1,107.6c-0.8,1-2.2,1.3-3.3,0.7c-0.9-0.5-1.4-1.5-1.3-2.5l3.4-6.6c0.8-0.8,2-1,3-0.4  c1,0.5,1.5,1.7,1.3,2.8L61.1,107.6z M70.7,105.9l-2.3,4.3c-0.3,0.6-0.9,1.1-1.5,1.2c-0.7,0.2-1.4,0.1-2-0.2  c-0.9-0.5-1.5-1.5-1.3-2.5l3.1-5.9c0.8-0.8,2-1,3-0.5c0.6,0.3,1,0.9,1.2,1.5C71.1,104.6,71,105.3,70.7,105.9z M76.5,109.5  c-0.3,0.6-0.9,1-1.5,1.2c-0.6,0.2-1.3,0.1-1.8-0.2l-1.4-0.8l1.3-2.5c0.3-0.6,0.5-1.3,0.6-2l1.9,1C76.7,106.9,77.1,108.4,76.5,109.5  z M92.3,92.2c-0.3,0.6-0.8,1-1.5,1.2c-0.6,0.2-1.3,0.1-1.8-0.2c-3.4-1.9-6.2-3.5-9.1-5.1c-0.7-0.4-1.5-0.1-1.8,0.5  c-0.4,0.6-0.1,1.5,0.5,1.8c2.9,1.7,5.7,3.2,9.1,5.1c1.2,0.7,1.6,2.2,1,3.4c-0.3,0.6-0.8,1-1.5,1.2c-0.6,0.2-1.3,0.1-1.9-0.2  l-11.9-6.7c-0.6-0.4-1.5-0.1-1.8,0.5c-0.4,0.6-0.1,1.5,0.5,1.8l9.7,5.5c1.2,0.7,1.6,2.2,1,3.3c-0.3,0.6-0.8,1-1.5,1.2  c-0.6,0.2-1.3,0.1-1.8-0.2l-6.9-3.8c-0.4-0.6-1-1-1.7-1.4c-1.3-0.7-2.8-0.8-4.1-0.4c-0.4-1.3-1.3-2.5-2.6-3.2  c-1.3-0.7-2.8-0.8-4.1-0.4c-0.4-1.4-1.3-2.5-2.6-3.2c-1.1-0.6-2.3-0.8-3.5-0.5c-0.2-1.7-1.2-3.2-2.7-4c-2.1-1.1-4.7-0.7-6.2,1  c-0.3-1.5-0.8-3.3-2.7-4c-0.3-0.1-1.2-0.5-2.8-1.2l7.6-17.1l3.1,1.4c2.6,1.4,5.4,0.8,8,0.2c2.7-0.6,5.2-1.1,7.8,0.1  c-0.7,0.6-1.4,1.2-2.1,1.9c-2.5,2.5-5.6,4.9-9.3,7c-0.5,0.3-0.8,0.7-0.9,1.2c-0.1,0.5,0,1,0.3,1.4c5.1,6.5,11,4.1,15.8,2.2  c3.2-1.3,6-2.5,8.3-1.2l13.2,7.5C92.5,89.5,92.9,91,92.3,92.2z M94.1,87.7c-0.4-0.5-0.9-0.9-1.4-1.2L79.5,79  c-3.4-1.9-7.1-0.4-10.7,1c-4.5,1.8-8.3,3.4-12-0.6c3.5-2.2,6.5-4.5,9-6.9c1.1-1.1,2.2-2,3.3-2.8c5.1-3.5,8.6-2,12.1-0.6  c2.5,1,5.1,2.1,7.8,0.7l2.5-1.3l6.8,17.5L94.1,87.7z M108.6,87.3l-5,1.9c-0.6,0.2-1.2-0.1-1.4-0.6l-10-25.7  c-0.2-0.5,0.1-1.2,0.6-1.4l4.9-1.9c0.1,0,0.3-0.1,0.4-0.1c0.4,0,0.8,0.3,1,0.7l10,25.7C109.5,86.4,109.2,87.1,108.6,87.3z   M96.7,62.3c-0.9,0-1.7,0.7-1.7,1.7c0,0.9,0.7,1.6,1.7,1.6c0.9,0,1.6-0.7,1.6-1.6C98.4,63,97.6,62.3,96.7,62.3z M42.2,60.6  c-0.9,0-1.7,0.7-1.7,1.6c0,0.9,0.7,1.7,1.6,1.7c0.9,0,1.7-0.7,1.7-1.6C43.8,61.5,43.1,60.7,42.2,60.6z M42.2,60.6  c-0.9,0-1.7,0.7-1.7,1.6c0,0.9,0.7,1.7,1.6,1.7c0.9,0,1.7-0.7,1.7-1.6C43.8,61.5,43.1,60.7,42.2,60.6z M96.7,62.3  c-0.9,0-1.7,0.7-1.7,1.7c0,0.9,0.7,1.6,1.7,1.6c0.9,0,1.6-0.7,1.6-1.6C98.4,63,97.6,62.3,96.7,62.3z M96.7,62.3  c-0.9,0-1.7,0.7-1.7,1.7c0,0.9,0.7,1.6,1.7,1.6c0.9,0,1.6-0.7,1.6-1.6C98.4,63,97.6,62.3,96.7,62.3z"></path>	<path class="st1" d="M67.4,61.1c-9.3,0-16.9-7.6-16.9-16.9c0-9.3,7.6-16.9,16.9-16.9c9.3,0,16.9,7.6,16.9,16.9  C84.4,53.5,76.8,61.1,67.4,61.1z M67.4,31.6c-6.9,0-12.5,5.6-12.5,12.5c0,6.9,5.6,12.5,12.5,12.5c6.9,0,12.5-5.6,12.5-12.5  C80,37.2,74.4,31.6,67.4,31.6z"></path>	<path class="st1" d="M67.4,28.1c-8.9,0-16.1,7.2-16.1,16.1s7.2,16.1,16.1,16.1c8.9,0,16.1-7.2,16.1-16.1S76.3,28.1,67.4,28.1z   M67.4,57.5c-7.4,0-13.4-6-13.4-13.4s6-13.4,13.4-13.4c7.4,0,13.4,6,13.4,13.4S74.8,57.5,67.4,57.5z"></path>	<path class="st1" d="M71.8,51.4c-0.9,0.6-1.9,1-3,1.2v0.8c0,0.8-0.6,1.3-1.4,1.3c-0.7,0-1.3-0.6-1.3-1.3v-0.9  c-0.9-0.2-1.7-0.5-2.4-1c-1.1-0.7-1.9-1.8-2.3-3.2c-0.2-0.7,0.3-1.5,1-1.6c0.7-0.2,1.4,0.3,1.6,1c0.2,0.7,0.6,1.2,1.2,1.6  c1.4,0.9,3.6,0.9,5-0.1c1.1-0.9,0.7-2.4-0.4-3c-0.7-0.4-1.6-0.7-2.5-0.8c-1.1-0.2-2.3-0.5-3.3-1.2c-2.6-1.7-2.7-5.4-0.3-7.4  c0.7-0.6,1.6-1,2.5-1.2v-0.9c0-0.7,0.6-1.3,1.3-1.3c0.8,0,1.4,0.6,1.4,1.3v0.9c0.1,0,0.2,0,0.3,0.1c1.7,0.4,3.2,1.5,4,3.4  c0.3,0.7,0,1.5-0.7,1.8c-0.7,0.3-1.5,0-1.8-0.7c-0.8-2-3.6-2.6-5.2-1.2c-1,0.8-1,2.3,0.1,3c0.6,0.4,1.5,0.6,2.3,0.8  c1.2,0.2,2.4,0.5,3.5,1.1C73.8,45.5,74.4,49.4,71.8,51.4z"></path></g></svg>