<svg xmlns="http://www.w3.org/2000/svg" xmlns:xlink="http://www.w3.org/1999/xlink" id="Layer_1" x="0px" y="0px" viewBox="0 0 500 500" style="enable-background:new 0 0 500 500;" xml:space="preserve"> <style type="text/css"> .st0{fill:#B09477;} .st1{fill-rule:evenodd;clip-rule:evenodd;fill:#002B40;} .st2{fill:#002B40;} .st3{fill-rule:evenodd;clip-rule:evenodd;fill:#B09477;} .st4{fill:none;} .st5{fill:#EBEBEB;} .st6{fill:#DBDBDB;} .st7{fill:#263238;} .st8{fill:#FFFFFF;} .st9{fill:#455A64;} .st10{fill:#37474F;} .st11{fill:#C7C7C7;} .st12{fill:#A6A6A6;} .st13{fill:#F7A9A0;} .st14{opacity:0.1;enable-background:new ;} </style> <g> <path class="st0" d="M226.2-404.3c1.7,0,3,1.4,3,3v6.1h6.1c1.7,0,3,1.4,3,3s-1.4,3-3,3h-6.1v6.1c0,1.7-1.4,3-3,3c-1.7,0-3-1.4-3-3 v-6.1h-6.1c-1.7,0-3-1.4-3-3s1.4-3,3-3h6.1v-6.1C223.2-402.9,224.5-404.3,226.2-404.3z"></path> <path class="st1" d="M204.9-431.7c-5,0-9.1,4.1-9.1,9.1v54.8c0,5,4.1,9.1,9.1,9.1h42.6c5,0,9.1-4.1,9.1-9.1v-45.7 c0-0.8-0.3-1.6-0.9-2.2l-15.2-15.2c-0.6-0.6-1.3-0.9-2.2-0.9H204.9z M201.8-422.5c0-1.7,1.4-3,3-3h30.5v12.2c0,1.7,1.4,3,3,3h12.2 v42.6c0,1.7-1.4,3-3,3h-42.6c-1.7,0-3-1.4-3-3V-422.5z"></path> </g> <g> <g> <g> <path class="st2" d="M48.8-353.6c0-3.1,0-6.2,0-9.3c0-0.4,0-0.9,0-1.3c0-1.3-1.1-2.5-2.4-2.4c-1.3,0.1-2.4,1.1-2.4,2.4 c0,3.1,0,6.2,0,9.3c0,0.4,0,0.9,0,1.3c0,1.3,1.1,2.5,2.4,2.4C47.7-351.2,48.8-352.2,48.8-353.6L48.8-353.6z"></path> </g> </g> <g> <g> <path class="st2" d="M35.1-353.6c0-3.5,0-7,0-10.6c0-0.7,0-1.5,0-2.2c0-0.1,0-0.3,0-0.4c0-0.2,0-0.4,0-0.6c0-0.2,0-0.4,0-0.6 c0-0.1,0.1-0.4,0,0c-0.1,0.5,0-0.1,0-0.2c0.1-0.4,0.2-0.8,0.3-1.1c0.1-0.2,0.1-0.4,0.2-0.6c0-0.1,0.1-0.2,0.1-0.3 c0-0.1,0.2-0.5,0-0.1c-0.2,0.4,0.1-0.2,0.2-0.3c0.1-0.2,0.2-0.3,0.3-0.5c0.2-0.4,0.5-0.8,0.7-1.2c0.1-0.1,0.1-0.1,0.2-0.2 c0,0-0.4,0.5-0.1,0.2c0.1-0.2,0.3-0.3,0.4-0.5c0.3-0.3,0.6-0.6,0.9-0.9c0.1-0.1,0.3-0.2,0.4-0.4c-0.4,0.4-0.3,0.2-0.2,0.1 c0.1-0.1,0.2-0.1,0.3-0.2c0.4-0.3,0.7-0.5,1.1-0.7c0.2-0.1,0.3-0.2,0.5-0.3c0.5-0.2,0,0.1-0.2,0.1c0,0,0,0,0.1,0 c0.1,0,0.2-0.1,0.4-0.1c0.5-0.2,1-0.3,1.5-0.5c1.8-0.6,3.6-1.2,5.4-1.8c4.1-1.4,8.2-2.8,12.3-4.1c0.6-0.2,1.2-0.4,1.9-0.6 c0.2-0.1,0.6-0.1,0.8-0.2c0,0-0.6,0.1-0.6,0.1c-0.2,0-0.4-0.1-0.6-0.1c0.2,0.1,0.4,0.1,0.6,0.1c0,0,0,0,0,0c0.1,0,0.1,0,0.2,0 c0.3,0,0.5,0,0.8,0c0.9,0,1.9,0,2.8,0c2.2,0,4.3,0,6.5,0c0.5,0,1,0,1.5,0c0,0,0,0,0,0c0,0,1.2-0.2,0.3,0c-0.4,0-0.6,0.1-1,0 c0,0,0.1,0,0.1,0c0.1,0,0.3,0.1,0.4,0.1c3.5,1.1,6.9,2.3,10.3,3.4c3.6,1.2,7.2,2.4,10.7,3.6c0.2,0.1,0.5,0.2,0.7,0.3 c0.2,0-0.7-0.3-0.3-0.1c0.2,0.1,0.5,0.2,0.7,0.3c0.4,0.2,0.9,0.5,1.3,0.8c0.1,0,0.4,0.4,0.1,0.1c-0.3-0.3,0.1,0.1,0.1,0.1 c0.2,0.1,0.3,0.3,0.5,0.4c0.3,0.3,0.7,0.7,1,1.1c0.1,0.1,0.3,0.3,0,0.1c-0.3-0.2,0,0,0.1,0.1c0.1,0.2,0.2,0.3,0.3,0.5 c0.3,0.4,0.5,0.8,0.7,1.3c0.1,0.3,0,0.3,0-0.1c0,0.1,0.1,0.2,0.1,0.3c0.1,0.2,0.1,0.4,0.2,0.6c0.2,0.5,0.3,1,0.4,1.5 c0,0.1,0,0.2,0,0.3c0,0-0.1-0.6,0-0.2c0,0.2,0,0.5,0.1,0.7c0,0.2,0,0.4,0,0.6c0,0.2,0,0.3,0,0.5c0,3.9,0,7.8,0,11.7 c0,0.3,0,0.7,0,1c0,1.3,1.1,2.5,2.4,2.4c1.3-0.1,2.4-1.1,2.4-2.4c0-3.6,0-7.2,0-10.8c0-1.9,0.1-3.7-0.4-5.6 c-0.9-4.3-4.1-8-8.1-9.7c-0.9-0.4-1.8-0.6-2.6-0.9c-1.9-0.6-3.8-1.3-5.7-1.9c-4.1-1.4-8.1-2.7-12.2-4.1c-0.5-0.2-1.1-0.4-1.6-0.5 c-0.1,0-0.3-0.1-0.4-0.1c0,0-0.1,0-0.1,0c-0.4-0.1-0.6-0.1-1,0c-1,0.1,0.6,0,0.3,0c-1.5-0.1-3.1,0-4.6,0c-2.1,0-4.2,0-6.3,0 c-0.2,0-0.5,0-0.7,0c0,0-0.1,0-0.1,0c0,0,0,0,0,0c0.2,0,0.4,0.1,0.6,0.1c-0.2-0.1-0.4-0.1-0.6-0.1c-0.2,0-0.4,0-0.7,0.1 c-0.3,0.1-0.6,0.2-0.9,0.3c-3.7,1.2-7.4,2.5-11.1,3.7c-3.3,1.1-6.7,2.3-10,3.4c-2.7,0.9-5,2.9-6.7,5.2c-1.7,2.4-2.4,5.3-2.4,8.2 c0,3.9,0,7.8,0,11.8c0,0.4,0,0.7,0,1.1c0,1.3,1.1,2.5,2.4,2.4C33.9-351.2,35.1-352.2,35.1-353.6L35.1-353.6z"></path> </g> </g> <g> <g> <path class="st2" d="M86.8-364.2c0,3.1,0,6.2,0,9.3c0,0.4,0,0.9,0,1.3c0,1.3,1.1,2.5,2.4,2.4c1.3-0.1,2.4-1.1,2.4-2.4 c0-3.1,0-6.2,0-9.3c0-0.4,0-0.9,0-1.3c0-1.3-1.1-2.5-2.4-2.4C87.9-366.6,86.8-365.5,86.8-364.2L86.8-364.2z"></path> </g> </g> <g> <g> <path class="st2" d="M62.9-352.9c0.5-2.5,1-4.9,1.5-7.4c0.8-3.9,1.6-7.9,2.4-11.8c0.2-0.9,0.4-1.8,0.5-2.7c0.3-1.2-0.4-2.7-1.7-3 c-1.2-0.3-2.7,0.4-3,1.7c-0.5,2.5-1,4.9-1.5,7.4c-0.8,3.9-1.6,7.9-2.4,11.8c-0.2,0.9-0.4,1.8-0.5,2.7c-0.3,1.2,0.4,2.7,1.7,3 C61.1-350.9,62.6-351.6,62.9-352.9L62.9-352.9z"></path> </g> </g> <g> <g> <path class="st2" d="M68.2-374.8c0.5,2.5,1,4.9,1.5,7.4c0.8,3.9,1.6,7.9,2.4,11.8c0.2,0.9,0.4,1.8,0.5,2.7c0.3,1.3,1.8,2.1,3,1.7 c1.3-0.4,2-1.7,1.7-3c-0.5-2.5-1-4.9-1.5-7.4c-0.8-3.9-1.6-7.9-2.4-11.8c-0.2-0.9-0.4-1.8-0.5-2.7c-0.3-1.3-1.8-2.1-3-1.7 C68.6-377.4,68-376.1,68.2-374.8L68.2-374.8z"></path> </g> </g> <g> <g> <path class="st0" d="M81.5-417.5c0,2.2,0,4.3,0,6.5c0,0.7,0,1.4-0.1,2c0,0.2,0,0.4-0.1,0.5c0.1-0.7,0-0.1,0,0.1 c-0.1,0.4-0.2,0.8-0.2,1.3c-0.1,0.6-0.3,1.2-0.5,1.9c-0.1,0.3-0.2,0.6-0.3,1c-0.1,0.2-0.1,0.3-0.2,0.5c0.3-0.6,0,0.1-0.1,0.2 c-0.6,1.3-1.3,2.5-2.2,3.7c-0.3,0.5,0.3-0.4,0,0c-0.1,0.1-0.2,0.3-0.3,0.4c-0.2,0.3-0.4,0.5-0.7,0.8c-0.5,0.5-0.9,1-1.4,1.4 c-0.2,0.2-0.5,0.4-0.7,0.6c0,0-0.1,0.1-0.1,0.1c-0.2,0.2-0.2,0.1,0.1-0.1c-0.1,0.1-0.3,0.2-0.4,0.3c-0.6,0.5-1.3,0.9-2,1.3 c-0.3,0.2-0.6,0.4-1,0.5c0.6-0.1,0.1,0-0.1,0c-0.2,0.1-0.3,0.1-0.5,0.2c-0.3,0.1-0.7,0.2-1,0.3c-0.2,0-0.3,0.1-0.5,0.1 c-0.3,0-0.2,0,0.1,0c-0.1,0-0.2,0-0.3,0c-0.6,0.1-1.3,0.1-1.9,0c-0.2,0-0.4,0-0.5-0.1c0.1,0,0.2,0,0.3,0c-0.1,0-0.2,0-0.3-0.1 c-0.4-0.1-0.8-0.2-1.2-0.3c-0.3-0.1-0.7-0.2-1-0.4c0.5,0.3,0.1,0-0.1,0c-0.2-0.1-0.3-0.2-0.5-0.2c-0.7-0.4-1.3-0.8-1.9-1.2 c-0.1-0.1-0.3-0.2-0.4-0.3c0,0-0.1-0.1-0.1-0.1c-0.2-0.2-0.2-0.2,0.1,0.1c-0.3-0.1-0.5-0.4-0.8-0.7c-0.4-0.4-0.9-0.8-1.3-1.2 c-0.5-0.5-1-1-1.3-1.5c0.4,0.5,0,0.1,0,0c-0.1-0.1-0.2-0.3-0.3-0.4c-0.2-0.3-0.4-0.7-0.6-1c-0.4-0.6-0.7-1.2-1-1.8 c-0.1-0.2-0.1-0.3-0.2-0.5s-0.4-0.6,0,0c-0.2-0.3-0.3-0.8-0.4-1.1c-0.2-0.6-0.4-1.2-0.5-1.8c-0.1-0.3-0.2-0.7-0.2-1 c0-0.2-0.1-0.3-0.1-0.5c0-0.1,0-0.2-0.1-0.3c0-0.3,0-0.2,0,0.1c-0.1-0.3-0.1-0.8-0.1-1.2c0-0.4,0-0.8,0-1.2c0-0.2,0-0.3,0-0.5 c0-0.7,0-1.3,0-2c0-1.3,0-2.6,0-3.9c-0.8,0.8-1.6,1.6-2.4,2.4c7.4,0.5,15.4-1.1,20.7-6.7c0.8-0.9,1.6-1.8,2.2-2.8 c-0.7,0.4-1.4,0.8-2.1,1.2c0.8,0.1,1.6,0.1,2.4,0.2c0.2,0,0.4,0,0.5,0.1c0.6,0.1-0.5-0.1,0,0c0.3,0.1,0.5,0.1,0.8,0.2 c0.5,0.2,1,0.3,1.5,0.5c0.1,0,0.6,0.2,0.2,0.1c-0.4-0.2,0,0,0.1,0.1c0.3,0.1,0.5,0.3,0.8,0.4c0.1,0.1,0.2,0.2,0.3,0.2 c-0.6-0.4-0.2-0.2-0.1,0c0.2,0.2,0.5,0.4,0.7,0.6c0.2,0.2,0.4,0.6,0.6,0.7c-0.2-0.3-0.3-0.4-0.2-0.2c0,0.1,0.1,0.1,0.1,0.2 c0.1,0.1,0.2,0.2,0.2,0.4c0.2,0.3,0.3,0.5,0.5,0.8c0.1,0.1,0.1,0.3,0.2,0.4c0-0.1-0.1-0.2-0.1-0.3c0,0.1,0.1,0.2,0.1,0.3 c0.1,0.2,0.2,0.5,0.2,0.8C81.5-417.7,81.5-417.6,81.5-417.5c0-0.2,0-0.4,0-0.5C81.5-417.8,81.5-417.6,81.5-417.5 c0,1.3,1.1,2.5,2.4,2.4c1.3-0.1,2.5-1.1,2.4-2.4c0-3.3-2.2-6.3-4.8-8.2c-1.2-0.8-2.5-1.2-3.8-1.6c-0.8-0.3-1.6-0.4-2.4-0.5 c-0.9-0.1-1.8-0.2-2.7-0.3c-0.9-0.1-1.7,0.5-2.1,1.2c-0.2,0.3-0.4,0.6-0.7,1c-0.3,0.4,0.4-0.4,0.2-0.2c-0.1,0.1-0.2,0.2-0.2,0.3 c-0.2,0.2-0.3,0.4-0.5,0.6c-0.4,0.4-0.7,0.8-1.1,1.2c-0.2,0.2-0.4,0.4-0.6,0.5c-0.1,0.1-0.2,0.2-0.3,0.3 c-0.2,0.1-0.5,0.3,0.2-0.2c-0.1,0.1-0.2,0.1-0.2,0.2c-1.1,0.8-2.4,1.5-3.7,2.1c-0.4,0.2,0.6-0.2,0.2-0.1c-0.1,0-0.1,0.1-0.2,0.1 c-0.2,0.1-0.4,0.2-0.6,0.2c-0.4,0.1-0.8,0.3-1.2,0.4c-0.9,0.3-1.8,0.5-2.7,0.6c-0.3,0-0.5,0.1-0.8,0.1c0.8-0.1-0.1,0-0.3,0 c-0.6,0.1-1.2,0.1-1.8,0.1c-1.4,0.1-2.8,0-4.1-0.1c-1.3-0.1-2.4,1.2-2.4,2.4c0,2.5-0.1,4.9,0,7.4c0.4,6.2,3.3,12.3,8.1,16.3 c1.3,1.1,2.6,2.1,4.1,2.8c1.7,0.8,3.4,1.3,5.2,1.4c3.4,0.3,6.7-0.8,9.5-2.8c5.2-3.6,8.9-9.3,9.8-15.6c0.4-3.2,0.3-6.4,0.3-9.6 c0-0.1,0-0.2,0-0.3c0-1.3-1.1-2.5-2.4-2.4C82.6-419.8,81.5-418.8,81.5-417.5z"></path> </g> </g> <g> <g> <path class="st0" d="M87.8-417.9c-0.7-0.3-1.4-0.6-2-1c-0.1-0.1-0.2-0.1-0.3-0.2c-0.2-0.1,0.5,0.5,0.2,0.2 c-0.1-0.1-0.1-0.2,0.1,0.2c0.3,0.4,0.5,0.9,0.5,1.3c0-0.1,0-0.3,0-0.4c-0.1-1.1-0.4-2-0.8-2.9c-0.6-1.4-1.6-2.8-2.8-3.8 c-0.6-0.6-1.4-1.1-2.1-1.5c-0.8-0.4-1.5-0.6-2.3-0.9c-0.9-0.3-1.6-0.5-2.6-0.6c-1-0.1-2.1-0.2-3.2-0.3c-0.9-0.1-1.7,0.5-2.1,1.2 c-0.2,0.4-0.5,0.7-0.8,1.1c0.6-0.9,0-0.1-0.1,0.1c-0.2,0.2-0.4,0.4-0.5,0.6c-0.4,0.5-0.9,0.9-1.4,1.3c-0.1,0.1-0.3,0.2-0.4,0.3 c-0.1,0.1-0.1,0.1-0.2,0.2c0,0,0.6-0.4,0.3-0.2c-0.3,0.2-0.6,0.5-1,0.7c-0.7,0.4-1.4,0.9-2.1,1.2c-0.2,0.1-0.3,0.2-0.5,0.2 c-0.1,0-0.2,0.1-0.3,0.1c-0.4,0.2,0.6-0.2,0.2-0.1c-0.5,0.2-0.9,0.4-1.4,0.5c-0.9,0.3-1.9,0.6-2.9,0.7c-0.3,0.1-0.5,0.1-0.8,0.1 c-0.1,0-0.3,0-0.4,0.1c-0.5,0.1,0.6-0.1,0.1,0c-0.6,0.1-1.3,0.1-1.9,0.2c-1.5,0.1-2.9,0.1-4.4,0c-0.4,0-0.7,0-1.1-0.1 c-0.1,0-0.3,0-0.4,0c-0.2,0-0.9,0-0.1,0c-0.4,0-0.9-0.1-1.3-0.2c0.6,0.8,1.2,1.6,1.8,2.4c0-0.2,0-0.3,0.1-0.5c0-0.1,0-0.2,0-0.2 c0-0.4-0.1,0.8-0.1,0.5c0-0.1,0-0.1,0-0.2c0-0.2,0.1-0.5,0.1-0.7c0.2-1.4,0.6-2.9,1-4.3c0.3-0.9,0.6-1.7,0.9-2.6 c0.1-0.3-0.2,0.5-0.2,0.4c0-0.1,0.1-0.1,0.1-0.2c0-0.1,0.1-0.2,0.1-0.3c0.1-0.2,0.2-0.5,0.3-0.7c0.2-0.4,0.4-0.9,0.7-1.3 c0.2-0.4,0.5-0.9,0.8-1.3c0.1-0.2,0.3-0.4,0.4-0.6c0.1-0.2,0.5-0.6-0.1,0.1c0.1-0.1,0.2-0.2,0.3-0.3c0.7-0.8,1.4-1.5,2.2-2.2 c0.4-0.3-0.5,0.4-0.1,0.1c0.1-0.1,0.2-0.1,0.3-0.2c0.2-0.2,0.5-0.3,0.7-0.5c0.5-0.3,0.9-0.5,1.4-0.7c0.5-0.2-0.6,0.2-0.1,0.1 c0.1,0,0.2-0.1,0.4-0.1c0.3-0.1,0.6-0.2,0.8-0.3c0.6-0.2,1.1-0.3,1.7-0.4c-0.9,0.2-0.4,0-0.1,0c0.2,0,0.3,0,0.5,0 c0.3,0,0.6,0,1,0c0.7,0,1.4,0,2.1,0.1c0.1,0,0.2,0,0.3,0c-0.8-0.1-0.5-0.1-0.3,0c0.2,0,0.4,0.1,0.5,0.1c0.4,0.1,0.8,0.2,1.2,0.2 c0.8,0.2,1.6,0.4,2.4,0.7c0.4,0.1,0.9,0.3,1.3,0.5c0.9,0.4,1.7,0.6,2.7,0c0.1,0,0.2-0.1,0.2-0.1c-0.4,0.3-0.7,0.2-0.2,0.1 c0.1,0,0.2-0.1,0.3-0.1c0.2,0,0.6,0-0.4,0.1c0.1,0,0.2,0,0.2,0c0.3,0,0.6,0,0.9,0c0.2,0,0.3,0,0.5,0c0.2,0-0.8-0.1-0.3,0 c0.1,0,0.2,0,0.3,0.1c0.4,0.1,0.8,0.2,1.2,0.3c0.2,0.1,0.4,0.1,0.6,0.2c0.1,0,0.2,0.1,0.3,0.1c0.4,0.2-0.7-0.3-0.2-0.1 c0.4,0.2,0.9,0.4,1.3,0.7c0.2,0.1,0.4,0.3,0.6,0.4c0.1,0.1,0.2,0.1,0.3,0.2c0.1,0,0.1,0.1,0.2,0.1c0.3,0.2-0.5-0.4-0.3-0.2 c0.4,0.3,0.8,0.7,1.2,1.1c0.2,0.2,0.4,0.4,0.5,0.6c0.1,0.1,0.2,0.2,0.3,0.3c0.2,0.3-0.4-0.5-0.2-0.2c0,0.1,0.1,0.1,0.2,0.2 c0.4,0.5,0.7,1,1,1.6c0.1,0.3,0.3,0.6,0.4,0.8c0,0.1,0.1,0.2,0.1,0.3c0,0-0.3-0.6-0.1-0.3c0.1,0.2,0.1,0.4,0.2,0.6 c0.3,0.7,0.5,1.4,0.6,2.1c0.1,0.4,0.2,0.7,0.2,1.1c0,0.1,0,0.2,0.1,0.3c-0.1-0.7-0.1-0.5,0-0.3c0,0.2,0.1,0.5,0.1,0.7 c0.1,0.9,0.1,1.8,0.1,2.8c0,1-0.1,2.1-0.2,3.1c-0.1,0.6,0.3,1.3,0.7,1.7c0.4,0.4,1.1,0.7,1.7,0.7c0.6,0,1.3-0.2,1.7-0.7 c0.5-0.5,0.6-1,0.7-1.7c0.7-5.7-0.1-11.7-3.8-16.2c-2.3-2.9-5.8-4.8-9.5-5.2c-1.3-0.1-3-0.1-4,0.7c0.6-0.1,1.3-0.2,1.9-0.2 c-3.8-1.6-8-2.5-12.1-1.9c-3.1,0.4-5.9,1.9-8.1,4.1c-1.9,1.9-3.4,4.2-4.5,6.6c-0.9,2.1-1.7,4.3-2.1,6.6c-0.3,1.2-0.5,2.5-0.6,3.8 c0,0,0,0,0,0c-0.1,1,0.8,2.2,1.8,2.4c4.9,1,10.3,0.9,15.1-0.5c3.5-1,6.7-2.8,9.2-5.4c1-1,1.8-2,2.5-3.2c-0.7,0.4-1.4,0.8-2.1,1.2 c0.9,0.1,1.8,0.2,2.7,0.3c0.1,0,0.2,0,0.3,0c0.3,0-0.5-0.1-0.2,0c0.2,0,0.3,0.1,0.5,0.1c0.3,0.1,0.5,0.2,0.8,0.3 c0.3,0.1,0.7,0.2,1,0.3c0.1,0,0.3,0.1,0.4,0.1c0.2,0.1-0.3-0.1-0.3-0.1c0.1,0.1,0.2,0.1,0.3,0.1c0.3,0.1,0.5,0.3,0.8,0.5 c0.1,0.1,0.1,0.1,0.2,0.2c0.2,0.1-0.2-0.2-0.2-0.2c0.1,0.1,0.3,0.2,0.4,0.4c0.3,0.2,0.5,0.5,0.8,0.8c0.1,0.1,0.2,0.3,0.3,0.4 c0,0-0.3-0.4-0.2-0.2c0.1,0.1,0.1,0.2,0.2,0.3c0.2,0.3,0.4,0.6,0.5,0.8c0.1,0.1,0.2,0.3,0.2,0.4c0,0.1,0.2,0.4,0,0 c-0.2-0.4,0,0,0,0.1c0.1,0.3,0.2,0.6,0.2,0.9c0.1,0.4,0-0.6,0-0.1c0,0.1,0,0.2,0,0.3c0.1,1.2,0.7,1.9,1.6,2.5 c0.7,0.5,1.5,0.8,2.2,1.2c0.6,0.3,1.2,0.4,1.9,0.2c0.6-0.2,1.2-0.6,1.5-1.1C89.3-415.7,89.1-417.4,87.8-417.9z"></path> </g> </g> <g> <g> <path class="st2" d="M71.3-385.5c-0.9,2.8-1.8,5.5-2.7,8.3c-0.1,0.4-0.3,0.8-0.4,1.2c0.8-0.6,1.6-1.2,2.4-1.8c-1.9,0-3.8,0-5.6,0 c0.8,0.6,1.6,1.2,2.4,1.8c-0.9-2.8-1.8-5.5-2.7-8.3c-0.1-0.4-0.3-0.8-0.4-1.2c-0.8,1-1.6,2.1-2.4,3.1c3.4,0,6.9,0,10.3,0 c0.5,0,1,0,1.5,0c1.3,0,2.5-1.1,2.4-2.4c-0.1-1.3-1.1-2.4-2.4-2.4c-3.4,0-6.9,0-10.3,0c-0.5,0-1,0-1.5,0c-1.5,0-2.8,1.6-2.4,3.1 c0.9,2.8,1.8,5.5,2.7,8.3c0.1,0.4,0.3,0.8,0.4,1.2c0.3,1,1.2,1.8,2.4,1.8c1.9,0,3.8,0,5.6,0c1.1,0,2-0.8,2.4-1.8 c0.9-2.8,1.8-5.5,2.7-8.3c0.1-0.4,0.3-0.8,0.4-1.2c0.4-1.2-0.5-2.7-1.7-3C73-387.5,71.8-386.8,71.3-385.5z"></path> </g> </g> </g> <g> <path class="st2" d="M411.6-429v34.7l-6.2-0.2V-429c0-1.7-1.4-3.1-3.1-3.1h-37.5c-1.7,0-3.1,1.4-3.1,3.1v59.4 c0,1.7,1.4,3.1,3.1,3.1h21.9c0.7,2,1.7,4.1,3.1,6.2h-25c-5.2,0-9.4-4.2-9.4-9.4V-429c0-5.2,4.2-9.4,9.4-9.4h37.5 C407.3-438.4,411.6-434.2,411.6-429z"></path> <path class="st2" d="M396.4-391.4c0,0-3.7,2.1-6.8,6.2h-18.7c-1.7,0-3.1-1.4-3.1-3.1c0-1.7,1.4-3.1,3.1-3.1h25 C396.1-391.5,396.3-391.5,396.4-391.4z"></path> <path class="st2" d="M397.8-419l-12.5-9.4c-1.1-0.8-2.6-0.8-3.8,0l-12.5,9.4c-0.8,0.6-1.2,1.5-1.2,2.5v12.5c0,3.4,2.8,6.2,6.2,6.2 h18.8c3.4,0,6.2-2.8,6.2-6.2v-12.5C399.1-417.5,398.6-418.4,397.8-419z M385-404h-3.1v-3.1h3.1V-404z M392.8-404h-1.6v-3.1 c0-3.4-2.8-6.2-6.2-6.2h-3.1c-3.4,0-6.2,2.8-6.2,6.2v3.1h-1.6v-10.9l9.4-7l9.4,7V-404z"></path> <path d="M411.6-394.3l-6.2-0.2C408.5-394.9,411.6-394.3,411.6-394.3z"></path> <path class="st0" d="M411.6-394.3c-2.1-0.3-4.2-0.4-6.2-0.2c-3.2,0.4-6.2,1.4-8.8,3h0c0,0-3.7,2.1-6.8,6.2h0 c-1.4,1.9-2.4,4-3.1,6.2c0,0-0.8,1.9-0.9,6.2c0,2.1,0.3,4.2,0.9,6.2c0,0,0,0,0,0c0.7,2,1.7,4.1,3.1,6.2c4,5.7,10.6,9.4,18.2,9.4 c12.2,0,22.2-9.8,22.2-21.9C430.1-383.6,422.1-392.6,411.6-394.3z M407.9-357.1L407.9-357.1c-3.6,0-6.9-1.1-9.6-3.1 c-2.2-1.6-4-3.8-5.1-6.2c-0.6-1.4-1.1-2.9-1.2-4.5c-0.1-0.6-0.1-1.2-0.1-1.8c0-2.2,0.5-4.3,1.4-6.2c0.2-0.5,0.5-1.1,0.8-1.6 c2.3-4,6.4-6.8,11.2-7.6c0.8-0.2,1.7-0.2,2.6-0.2c1.2,0,2.5,0.2,3.7,0.4c7.1,1.6,12.3,7.8,12.3,15.2 C423.9-364.1,416.7-357.1,407.9-357.1z"></path> <path class="st2" d="M386.6-379c0,0-0.8,1.9-0.9,6.2h-14.7c-1.7,0-3.1-1.4-3.1-3.1c0-1.7,1.4-3.1,3.1-3.1H386.6z"></path> <path class="st0" d="M409.5-374.3L409.5-374.3l0-3.1h3.2c0.9,0,1.6-0.7,1.6-1.6c0-0.9-0.7-1.6-1.6-1.6h-3.2v-1.6 c0-0.9-0.7-1.6-1.6-1.6c-0.9,0-1.6,0.7-1.6,1.6v1.6h0c-2.6,0-4.8,2.1-4.8,4.7c0,2.6,2.1,4.7,4.8,4.7h0v3.1h-3.2 c-0.9,0-1.6,0.7-1.6,1.6c0,0.9,0.7,1.6,1.6,1.6h3.2v1.6c0,0.9,0.7,1.6,1.6,1.6c0.9,0,1.6-0.7,1.6-1.6v-1.6h0c2.6,0,4.8-2.1,4.8-4.7 C414.2-372.2,412.1-374.3,409.5-374.3z M406.3-374.3L406.3-374.3c-0.9,0-1.7-0.7-1.7-1.6c0-0.9,0.7-1.6,1.6-1.6h0V-374.3z M409.5-368.1L409.5-368.1l0-3.1h0c0.9,0,1.6,0.7,1.6,1.6C411.1-368.8,410.4-368.1,409.5-368.1z"></path> </g> <g> <path class="st1" d="M543.9-350.8c-1,0-2-0.2-2.9-0.7c-1.1-0.6-1.9-1.4-2.5-2.5c-0.5,0.2-1.1,0.2-1.7,0.2c-1,0-2-0.2-2.9-0.7 c-0.9-0.5-1.7-1.2-2.3-2.1c-0.7,0.3-1.5,0.4-2.2,0.4c-1,0-2-0.2-2.9-0.7c-1.4-0.8-2.5-2-3-3.6c-0.2-0.6-0.3-1.2-0.3-1.8 c-0.7-0.1-1.5-0.3-2.1-0.7c-1.4-0.8-2.5-2.1-3-3.6c-0.5-1.6-0.3-3.2,0.5-4.7l1.2-2.2c-0.2-0.7-0.4-1.3-0.5-2 c-0.1-0.5-0.3-1.8-0.6-1.9c-0.3-0.1-1.1-0.4-2.2-0.9l-0.2,0.5c-0.5,1.1-1.4,2-2.6,2.4c-0.5,0.2-1.1,0.3-1.7,0.3 c-0.7,0-1.3-0.1-1.9-0.4l-4.9-2.1c-1.1-0.5-2-1.4-2.4-2.6c-0.4-1.2-0.4-2.4,0.1-3.5l11.2-25.2c0.5-1.1,1.4-2,2.6-2.4 c0.5-0.2,1.1-0.3,1.7-0.3c0.6,0,1.3,0.1,1.9,0.4l4.9,2.1c1.1,0.5,2,1.4,2.4,2.6c0.4,1.2,0.4,2.4-0.1,3.5l-0.5,1.2l2.5,1.2l0.1,0 l0,0c0.5,0.3,1.2,0.4,1.9,0.4c1.1,0,2.3-0.3,3.6-0.5c1.6-0.3,3.3-0.7,5.2-0.7c2.1,0,4,0.5,5.7,1.5c2.3-1.3,4.6-2,6.9-2 c2.9,0,5.3,1,7.2,1.8c1.6,0.6,2.8,1.1,3.7,1.1c0.4,0,0.8-0.1,1.2-0.3l2.1-1.1l-0.5-1.3c-0.4-1.2-0.4-2.4,0.1-3.5 c0.5-1.1,1.4-2,2.6-2.4l4.9-1.9c0.5-0.2,1.1-0.3,1.7-0.3c1.9,0,3.6,1.2,4.3,3l10,25.7c0.4,1.2,0.4,2.4-0.1,3.5 c-0.5,1.1-1.4,2-2.6,2.4l-5,1.9c-0.5,0.2-1.1,0.3-1.7,0.3c-1.9,0-3.6-1.2-4.3-2.9l-0.1-0.3l-2.7,1.1c0.1,1.1-0.2,2.3-0.7,3.2 c-0.7,1.2-1.8,2.2-3,2.7c0.3,1.4,0,2.8-0.6,4c-0.8,1.4-2,2.4-3.6,2.9c-0.5,0.1-1.1,0.2-1.6,0.2c-0.1,0.8-0.3,1.6-0.7,2.4 c-0.8,1.4-2.1,2.4-3.6,2.9c-0.5,0.2-1.1,0.2-1.7,0.2c-0.1,0-0.2,0-0.3,0c-0.1,0.7-0.3,1.5-0.7,2.1c-0.8,1.4-2.1,2.5-3.7,2.9 c-0.5,0.1-1.1,0.2-1.6,0.2c-1,0-2-0.3-2.9-0.8l-0.8-0.4c-0.7,0.8-1.7,1.4-2.7,1.7C545-350.9,544.4-350.8,543.9-350.8z M542.1-357 c0,0.6,0.3,1.2,0.9,1.6c0.2,0.1,0.5,0.2,0.8,0.2c0.2,0,0.3,0,0.5-0.1c0.4-0.1,0.8-0.4,1-0.8l2.3-4.3c0.2-0.4,0.3-0.9,0.1-1.3 c-0.1-0.4-0.4-0.8-0.8-1c-0.2-0.1-0.5-0.2-0.8-0.2c-0.4,0-0.8,0.2-1.2,0.4L542.1-357z M551.4-356.2c0.2,0.1,0.5,0.2,0.7,0.2 c0.1,0,0.3,0,0.4-0.1c0.4-0.1,0.8-0.4,1-0.8c0.4-0.8,0.1-1.7-0.6-2.2l-0.8-0.5c-0.1,0.4-0.3,0.8-0.5,1.1l-1,1.8L551.4-356.2z M535.1-359.9c0,0.6,0.4,1.2,0.9,1.5c0.3,0.1,0.5,0.2,0.8,0.2c0.5,0,1-0.2,1.3-0.6l3-5.8c0.1-0.7-0.3-1.4-0.9-1.8 c-0.2-0.1-0.5-0.2-0.8-0.2c-0.4,0-0.8,0.1-1.1,0.4L535.1-359.9z M527.9-363.2c-0.2,0.4-0.3,0.8-0.1,1.3c0.1,0.4,0.4,0.8,0.8,1 c0.3,0.1,0.5,0.2,0.8,0.2c0.6,0,1.2-0.4,1.5-0.9l3.4-6.7c0.1-0.7-0.3-1.4-0.9-1.8c-0.3-0.1-0.5-0.2-0.8-0.2c-0.3,0-0.7,0.1-1,0.3 L527.9-363.2z M557.6-361.5c0.2,0.1,0.5,0.2,0.8,0.2c0.2,0,0.3,0,0.5-0.1c0.4-0.1,0.8-0.4,1-0.8c0.4-0.8,0.1-1.8-0.7-2.2l-9.7-5.5 c-0.5-0.3-0.9-0.8-1-1.3c-0.2-0.6-0.1-1.2,0.2-1.7c0.4-0.7,1.1-1.1,1.9-1.1c0.4,0,0.8,0.1,1.1,0.3l11.9,6.7 c0.2,0.1,0.5,0.2,0.8,0.2c0.2,0,0.3,0,0.5-0.1c0.4-0.1,0.7-0.4,1-0.8c0.4-0.8,0.1-1.8-0.7-2.2c-3.4-1.9-6.2-3.5-9.1-5.1 c-0.5-0.3-0.9-0.8-1-1.3c-0.2-0.6-0.1-1.2,0.2-1.7c0.4-0.7,1.1-1.1,1.9-1.1c0.4,0,0.8,0.1,1.1,0.3c2.8,1.6,5.5,3.1,9.1,5.1 c0.2,0.1,0.5,0.2,0.7,0.2c0.1,0,0.3,0,0.5-0.1c0.4-0.1,0.8-0.4,1-0.8c0.4-0.8,0.1-1.8-0.7-2.2l-13.2-7.5c-0.5-0.3-1.1-0.5-1.8-0.5 c-1.6,0-3.6,0.8-5.7,1.7c-2.5,1-5.3,2.1-8.2,2.1c-3.4,0-6.2-1.5-8.6-4.6c-0.5-0.6-0.6-1.4-0.5-2.1c0.1-0.7,0.6-1.4,1.3-1.8 c3.6-2.1,6.7-4.5,9.2-6.9c0.3-0.3,0.7-0.7,1-1c-0.5-0.1-1.1-0.2-1.7-0.2c-1.4,0-2.8,0.3-4.2,0.6c-1.5,0.3-3,0.7-4.6,0.7 c-1.5,0-2.8-0.3-4-1l-2.3-1l-6.9,15.6c1.1,0.5,1.8,0.8,2,0.9c1.7,0.7,2.5,2.1,2.9,3.3c1-0.6,2.1-0.9,3.3-0.9c1,0,2,0.2,2.9,0.7 c1.5,0.8,2.6,2.2,3,3.8c0.1,0,0.2,0,0.3,0c1,0,2,0.2,2.9,0.7c1.2,0.6,2.2,1.7,2.7,3c0.4-0.1,0.7-0.1,1.1-0.1c1,0,2,0.2,2.9,0.7 c1.2,0.7,2.2,1.7,2.7,3c0.4-0.1,0.7-0.1,1.1-0.1c1,0,2,0.2,2.9,0.7c0.7,0.4,1.3,0.9,1.8,1.5L557.6-361.5z M526.5-374.7 c-0.6,0-1.2,0.3-1.5,0.9l-2.4,4.5c-0.2,0.4-0.3,0.9-0.1,1.3c0.1,0.4,0.4,0.8,0.8,1c0.2,0.1,0.5,0.2,0.8,0.2c0.3,0,0.7-0.1,1-0.3 l3.1-5.4c0.3-0.7,0-1.7-0.8-2.1C527.1-374.7,526.8-374.7,526.5-374.7z M576-405.7C576-405.7,576-405.7,576-405.7l-5,1.9 c-0.1,0-0.2,0.2-0.1,0.3l10,25.7c0,0.1,0.1,0.1,0.2,0.1l5-1.9c0.1,0,0.2-0.2,0.1-0.3l-10-25.7C576.2-405.7,576.1-405.7,576-405.7z M553.7-388.8c1.5,0,2.8,0.3,4,1l13.2,7.5c0.4,0.3,0.8,0.6,1.2,0.9l3-1.2l-6.1-15.9l-1.7,0.9c-1,0.5-2.1,0.8-3.2,0.8 c-1.9,0-3.6-0.7-5.3-1.4c-1.9-0.8-3.6-1.5-5.6-1.5c-1.9,0-3.7,0.7-5.7,2c-1,0.7-2.1,1.6-3.2,2.7c-2.2,2.3-5,4.4-8.2,6.5 c1.2,1,2.4,1.5,3.8,1.5c2,0,4.2-0.9,6.5-1.8C548.7-387.8,551.2-388.8,553.7-388.8z M518.5-407.4c-0.1,0-0.2,0.1-0.2,0.1L507.1-382 c0,0,0,0.1,0,0.2c0,0.1,0.1,0.1,0.1,0.1l4.8,2.1c0,0,0.1,0,0.1,0l0.1,0c0.1,0,0.1-0.1,0.1-0.1l11.1-25.2c0-0.1,0-0.1,0-0.2 c0,0,0-0.1-0.1-0.1L518.5-407.4L518.5-407.4z M574.5-399.6c-1.4,0-2.5-1.1-2.5-2.5s1.1-2.5,2.5-2.5c1.4,0,2.5,1.1,2.5,2.5 S575.9-399.6,574.5-399.6z M519.8-401.2c-1.3-0.1-2.4-1.2-2.4-2.5l0-0.1c0.1-1.3,1.2-2.4,2.5-2.4l0.1,0c1.3,0.1,2.4,1.2,2.4,2.5 l0,0.1c-0.1,1.3-1.2,2.4-2.5,2.4L519.8-401.2z"></path> <path class="st1" d="M520-405.4c-0.9,0-1.7,0.7-1.7,1.6c0,0.9,0.7,1.7,1.6,1.7c0.9,0,1.7-0.7,1.7-1.6 C521.6-404.5,520.9-405.3,520-405.4z M520-405.4c-0.9,0-1.7,0.7-1.7,1.6c0,0.9,0.7,1.7,1.6,1.7c0.9,0,1.7-0.7,1.7-1.6 C521.6-404.5,520.9-405.3,520-405.4z M574.5-403.7c-0.9,0-1.7,0.7-1.7,1.7c0,0.9,0.7,1.6,1.7,1.6c0.9,0,1.6-0.7,1.6-1.6 C576.2-403,575.4-403.7,574.5-403.7z M574.5-403.7c-0.9,0-1.7,0.7-1.7,1.7c0,0.9,0.7,1.6,1.7,1.6c0.9,0,1.6-0.7,1.6-1.6 C576.2-403,575.4-403.7,574.5-403.7z M520-405.4c-0.9,0-1.7,0.7-1.7,1.6c0,0.9,0.7,1.7,1.6,1.7c0.9,0,1.7-0.7,1.7-1.6 C521.6-404.5,520.9-405.3,520-405.4z M589.5-381.1l-10-25.7c-0.8-1.9-2.9-2.9-4.9-2.2l-5,1.9c-2,0.8-2.9,2.9-2.2,4.9l0.8,2 l-2.8,1.5c-1.5,0.8-3.1,0.2-5.6-0.8c-3.4-1.4-7.9-3.2-13.8,0.4c-3.7-2.5-7.6-1.6-10.7-1c-2.4,0.5-4.5,1-6.2,0c0,0-0.1,0-0.1,0 l-3.2-1.5l0.9-1.9c0.8-1.9,0-4.1-1.9-5l-4.9-2.2c-0.9-0.4-1.9-0.4-2.9-0.1c-1,0.4-1.7,1.1-2.1,2l-11.2,25.2 c-0.4,0.9-0.4,1.9-0.1,2.9c0.4,1,1.1,1.7,2,2.1l4.9,2.1c0.5,0.2,1,0.3,1.5,0.3c0.5,0,0.9-0.1,1.4-0.2c0.9-0.4,1.7-1.1,2.1-2 l0.5-1.3c1.6,0.7,2.6,1.1,2.9,1.3c0.6,0.2,0.8,1.1,1.1,2.5c0.1,0.8,0.3,1.5,0.6,2.2l-1.3,2.5c-1.4,2.6-0.4,5.8,2.2,7.1 c0.8,0.4,1.8,0.6,2.7,0.6c-0.1,0.8-0.1,1.6,0.2,2.4c0.4,1.3,1.3,2.5,2.5,3.1c1.6,0.9,3.5,0.8,5-0.1c0.5,1,1.3,1.9,2.3,2.5 c1.5,0.8,3.2,0.8,4.6,0.2c0.4,1.2,1.3,2.2,2.5,2.8c0.8,0.4,1.6,0.6,2.5,0.6c0.5,0,1-0.1,1.5-0.2c1.1-0.3,2.1-1.1,2.8-2l1.4,0.8 c0.8,0.4,1.6,0.7,2.5,0.7c0.5,0,0.9-0.1,1.4-0.2c1.3-0.4,2.5-1.3,3.1-2.5c0.5-0.8,0.7-1.8,0.6-2.7c0.8,0.2,1.7,0.2,2.6-0.1 c1.3-0.4,2.4-1.3,3.1-2.5c0.5-0.9,0.7-1.9,0.6-2.8c0.7,0.1,1.5,0,2.2-0.2c1.3-0.4,2.4-1.3,3.1-2.5c0.7-1.3,0.8-2.8,0.4-4.1 c0.1,0,0.1,0,0.2-0.1c1.3-0.4,2.4-1.3,3.1-2.5c0.6-1.1,0.7-2.2,0.5-3.4l4.1-1.7l0.5,1.2c0.6,1.5,2,2.4,3.5,2.4 c0.4,0,0.9-0.1,1.3-0.2l5-1.9C589.3-377,590.3-379.2,589.5-381.1z M513.2-379.3c-0.1,0.3-0.3,0.5-0.6,0.6c-0.3,0.1-0.6,0.1-0.8,0 l-4.9-2.2c-0.3-0.1-0.5-0.3-0.6-0.6c-0.1-0.3-0.1-0.6,0-0.8l11.2-25.2c0.2-0.4,0.6-0.6,1-0.6c0.1,0,0.3,0,0.4,0.1l4.9,2.1 c0.5,0.2,0.8,0.9,0.5,1.4L513.2-379.3z M525.7-366.5c-0.8,0.6-1.9,0.7-2.8,0.2c-1.3-0.7-1.7-2.2-1.1-3.5l2.4-4.5 c0.7-1.2,2.2-1.7,3.5-1.1c1.2,0.6,1.7,2.1,1.1,3.3L525.7-366.5z M531.8-361.2c-0.7,1.3-2.2,1.7-3.5,1.1c-0.6-0.3-1-0.9-1.2-1.5 c-0.2-0.7-0.1-1.4,0.2-2l3.9-6.9c0.8-0.6,1.9-0.7,2.8-0.2c1,0.5,1.5,1.7,1.3,2.8L531.8-361.2z M538.9-358.4c-0.8,1-2.2,1.3-3.3,0.7 c-0.9-0.5-1.4-1.5-1.3-2.5l3.4-6.6c0.8-0.8,2-1,3-0.4c1,0.5,1.5,1.7,1.3,2.8L538.9-358.4z M548.5-360.1l-2.3,4.3 c-0.3,0.6-0.9,1.1-1.5,1.2c-0.7,0.2-1.4,0.1-2-0.2c-0.9-0.5-1.5-1.5-1.3-2.5l3.1-5.9c0.8-0.8,2-1,3-0.5c0.6,0.3,1,0.9,1.2,1.5 C548.8-361.4,548.8-360.7,548.5-360.1z M554.2-356.5c-0.3,0.6-0.9,1-1.5,1.2c-0.6,0.2-1.3,0.1-1.8-0.2l-1.4-0.8l1.3-2.5 c0.3-0.6,0.5-1.3,0.6-2l1.9,1C554.5-359.1,554.9-357.6,554.2-356.5z M570.1-373.8c-0.3,0.6-0.8,1-1.5,1.2c-0.6,0.2-1.3,0.1-1.8-0.2 c-3.4-1.9-6.2-3.5-9.1-5.1c-0.7-0.4-1.5-0.1-1.8,0.5c-0.4,0.6-0.1,1.5,0.5,1.8c2.9,1.7,5.7,3.2,9.1,5.1c1.2,0.7,1.6,2.2,1,3.4 c-0.3,0.6-0.8,1-1.5,1.2c-0.6,0.2-1.3,0.1-1.9-0.2l-11.9-6.7c-0.6-0.4-1.5-0.1-1.8,0.5c-0.4,0.6-0.1,1.5,0.5,1.8l9.7,5.5 c1.2,0.7,1.6,2.2,1,3.3c-0.3,0.6-0.8,1-1.5,1.2c-0.6,0.2-1.3,0.1-1.8-0.2l-6.9-3.8c-0.4-0.6-1-1-1.7-1.4c-1.3-0.7-2.8-0.8-4.1-0.4 c-0.4-1.3-1.3-2.5-2.6-3.2c-1.3-0.7-2.8-0.8-4.1-0.4c-0.4-1.4-1.3-2.5-2.6-3.2c-1.1-0.6-2.3-0.8-3.5-0.5c-0.2-1.7-1.2-3.2-2.7-4 c-2.1-1.1-4.7-0.7-6.2,1c-0.3-1.5-0.8-3.3-2.7-4c-0.3-0.1-1.2-0.5-2.8-1.2l7.6-17.1l3.1,1.4c2.6,1.4,5.4,0.8,8,0.2 c2.7-0.6,5.2-1.1,7.8,0.1c-0.7,0.6-1.4,1.2-2.1,1.9c-2.5,2.5-5.6,4.9-9.3,7c-0.5,0.3-0.8,0.7-0.9,1.2c-0.1,0.5,0,1,0.3,1.4 c5.1,6.5,11,4.1,15.8,2.2c3.2-1.3,6-2.5,8.3-1.2l13.2,7.5C570.3-376.5,570.7-375,570.1-373.8z M571.8-378.3 c-0.4-0.5-0.9-0.9-1.4-1.2l-13.2-7.5c-3.4-1.9-7.1-0.4-10.7,1c-4.5,1.8-8.3,3.4-12-0.6c3.5-2.2,6.5-4.5,9-6.9 c1.1-1.1,2.2-2,3.3-2.8c5.1-3.5,8.6-2,12.1-0.6c2.5,1,5.1,2.1,7.8,0.7l2.5-1.3l6.8,17.5L571.8-378.3z M586.4-378.7l-5,1.9 c-0.6,0.2-1.2-0.1-1.4-0.6l-10-25.7c-0.2-0.5,0.1-1.2,0.6-1.4l4.9-1.9c0.1,0,0.3-0.1,0.4-0.1c0.4,0,0.8,0.3,1,0.7l10,25.7 C587.2-379.6,587-378.9,586.4-378.7z M574.5-403.7c-0.9,0-1.7,0.7-1.7,1.7c0,0.9,0.7,1.6,1.7,1.6c0.9,0,1.6-0.7,1.6-1.6 C576.2-403,575.4-403.7,574.5-403.7z M520-405.4c-0.9,0-1.7,0.7-1.7,1.6c0,0.9,0.7,1.7,1.6,1.7c0.9,0,1.7-0.7,1.7-1.6 C521.6-404.5,520.9-405.3,520-405.4z M520-405.4c-0.9,0-1.7,0.7-1.7,1.6c0,0.9,0.7,1.7,1.6,1.7c0.9,0,1.7-0.7,1.7-1.6 C521.6-404.5,520.9-405.3,520-405.4z M574.5-403.7c-0.9,0-1.7,0.7-1.7,1.7c0,0.9,0.7,1.6,1.7,1.6c0.9,0,1.6-0.7,1.6-1.6 C576.2-403,575.4-403.7,574.5-403.7z M574.5-403.7c-0.9,0-1.7,0.7-1.7,1.7c0,0.9,0.7,1.6,1.7,1.6c0.9,0,1.6-0.7,1.6-1.6 C576.2-403,575.4-403.7,574.5-403.7z"></path> <path class="st3" d="M545.2-404.9c-9.3,0-16.9-7.6-16.9-16.9c0-9.3,7.6-16.9,16.9-16.9c9.3,0,16.9,7.6,16.9,16.9 C562.2-412.5,554.6-404.9,545.2-404.9z M545.2-434.4c-6.9,0-12.5,5.6-12.5,12.5c0,6.9,5.6,12.5,12.5,12.5c6.9,0,12.5-5.6,12.5-12.5 C557.8-428.8,552.1-434.4,545.2-434.4z"></path> <path class="st3" d="M545.2-437.9c-8.9,0-16.1,7.2-16.1,16.1s7.2,16.1,16.1,16.1c8.9,0,16.1-7.2,16.1-16.1S554.1-437.9,545.2-437.9 z M545.2-408.5c-7.4,0-13.4-6-13.4-13.4s6-13.4,13.4-13.4c7.4,0,13.4,6,13.4,13.4S552.6-408.5,545.2-408.5z"></path> <path class="st3" d="M549.6-414.6c-0.9,0.6-1.9,1-3,1.2v0.8c0,0.8-0.6,1.3-1.4,1.3c-0.7,0-1.3-0.6-1.3-1.3v-0.9 c-0.9-0.2-1.7-0.5-2.4-1c-1.1-0.7-1.9-1.8-2.3-3.2c-0.2-0.7,0.3-1.5,1-1.6c0.7-0.2,1.4,0.3,1.6,1c0.2,0.7,0.6,1.2,1.2,1.6 c1.4,0.9,3.6,0.9,5-0.1c1.1-0.9,0.7-2.4-0.4-3c-0.7-0.4-1.6-0.7-2.5-0.8c-1.1-0.2-2.3-0.5-3.3-1.2c-2.6-1.7-2.7-5.4-0.3-7.4 c0.7-0.6,1.6-1,2.5-1.2v-0.9c0-0.7,0.6-1.3,1.3-1.3c0.8,0,1.4,0.6,1.4,1.3v0.9c0.1,0,0.2,0,0.3,0.1c1.7,0.4,3.2,1.5,4,3.4 c0.3,0.7,0,1.5-0.7,1.8c-0.7,0.3-1.5,0-1.8-0.7c-0.8-2-3.6-2.6-5.2-1.2c-1,0.8-1,2.3,0.1,3c0.6,0.4,1.5,0.6,2.3,0.8 c1.2,0.2,2.4,0.5,3.5,1.1C551.6-420.5,552.2-416.6,549.6-414.6z"></path> </g> <g> <path class="st2" d="M66.4-191.8h4.3c0.5,0,0.8-0.4,0.8-0.8v-4.3c4.5-0.7,8.3-4.3,8.8-8.9c0.6-6.1-4.1-11.2-10.1-11.2H67 c-2.5,0-4.5-2.1-4.2-4.7c0.2-2.2,2.2-3.8,4.4-3.8h3.8c1.4,0,2.6,1,2.9,2.3c0.1,0.4,0.5,0.6,0.8,0.6H79c0.5,0,0.9-0.4,0.8-0.9 c-0.5-4.3-4-7.7-8.3-7.9v-4.2c0-0.5-0.4-0.8-0.8-0.8h-4.2c-0.5,0-0.8,0.4-0.8,0.8v4.2c-5.3,0.7-9.3,5.5-8.8,11.1 c0.6,5.3,5.3,9.1,10.6,9.1h2.8c2.5,0,4.5,2.1,4.2,4.7c-0.2,2.2-2.2,3.8-4.4,3.8h-3.9c-1.4,0-2.6-1-2.9-2.3 c-0.1-0.4-0.5-0.6-0.8-0.6h-4.3c-0.5,0-0.9,0.4-0.8,0.9c0.5,4.3,4,7.7,8.3,7.9v4.2C65.6-192.1,66-191.8,66.4-191.8z"></path> <path class="st2" d="M107.4-214.2c0,2.7-0.2,5.3-0.7,7.8c-1.8-0.6-3.8-0.8-5.7-0.8c-0.4,0-0.7,0-1.1,0.1c0.5-2.3,0.7-4.6,0.7-7.1 c0-17.7-14.4-32.1-32.1-32.1s-32.1,14.4-32.1,32.1s14.4,32.1,32.1,32.1c4.6,0,8.9-1,12.8-2.8c0.3,2.4,1,4.6,2,6.5 c-4.5,1.9-9.6,2.9-14.8,2.9c-21.4,0-38.8-17.4-38.8-38.8S47.3-253,68.6-253C90-253,107.4-235.5,107.4-214.2z"></path> <path class="st0" d="M101-203.7c-9,0-16.4,7.3-16.4,16.3s7.3,16.3,16.3,16.3c9,0,16.3-7.3,16.3-16.3 C117.3-196.5,110-203.7,101-203.7z M108.1-190.6l-7.5,8.8c-0.3,0.4-0.7,0.6-1.2,0.6c-0.5,0-0.9-0.2-1.2-0.6l-4.2-5.1 c-0.6-0.6-0.5-1.7,0.2-2.3c0.6-0.6,1.7-0.5,2.3,0.2l3,3.6l6.2-7.4c0.6-0.6,1.6-0.7,2.3-0.2C108.6-192.2,108.6-191.2,108.1-190.6z"></path> </g> <g> <path class="st2" d="M430.2-226.4v-0.4h-6.6l-20.8-10.6c-1.7-0.8-3.5-1.3-5.4-1.3c-2,0-4,0.5-5.8,1.5l-5.6,3.1v-14.1 c0-1.4-1.1-2.5-2.5-2.5h-36c-1.4,0-2.5,1.1-2.5,2.5v65.4c0,1.4,1.1,2.5,2.5,2.5h36c1.4,0,2.5-1.1,2.5-2.5v-12.8h7.3 c0.7,0,1.4-0.3,1.8-0.8c0.5-0.5,0.7-1.2,0.6-1.9c-0.1-1.3-0.6-3-1.6-4.6h0.7c0.7,0.4,1.3,0.8,1.9,1.2c4.1,2.6,6.8,4.3,11.4,4.3h0.5 c3.7,0,4.1-0.1,10-2.2c1.3-0.5,2.9-1,4.8-1.7h5.4c1.4,0,2.5-1.1,2.5-2.5v-20.5C431.3-225.2,430.9-226,430.2-226.4z M381.1-245.8 v3.4c-1.5-0.7-2.8-1.9-3.4-3.4H381.1z M350-245.8h3.4c-0.7,1.5-1.9,2.8-3.4,3.4V-245.8z M350-185.3v-3.4c1.5,0.7,2.8,1.9,3.4,3.4 H350z M381.1-185.3h-3.4c0.7-1.5,1.9-2.8,3.4-3.4V-185.3z M382.4-192.7c-4.6,0.5-8.3,4.2-8.8,8.8h-16.1v0c-0.5-4.6-4.2-8.3-8.8-8.8 v-45.5c4.6-0.5,8.3-4.2,8.8-8.8h16.1c0.5,4.6,4.2,8.3,8.8,8.8c0,11.7,0,7.6,0,19.3h-2.2l-2.4,0h-0.2c-1.9,0-3.1-0.1-4.8,0.6 c0,0,0,0,0,0l0,0c-0.1,0-0.4,0.2-0.7,0.4c-0.1,0.1-0.2,0.1-0.3,0.2c-0.3,0.2-0.7,0.4-1,0.7c-1,0.9-1.7,2.1-2.1,3.4 c0,0-0.2,0.6-0.3,2.3c0.1,2.3,1.2,4.2,2.7,5.4l0,0c0.1,0.1,1.3,0.8,2.5,1.3c1.3,0.4,1.5,0.3,8.8,0.3V-192.7z M386-200.6v-2.4 c1.9,0.2,3.1,1.2,3.8,2.4H386z M426.4-206.3h-2c-1.6,0-1.8,0-2.2,0.1c-1.8,0.6-3.3,1.2-4.6,1.6c-5.1,1.8-6.1,2.1-8.1,2.1 c-4.6,0-5.1-0.3-10.1-3.5c-0.8-0.5-1.6-1-2.6-1.6c-0.4-0.3-0.6-0.4-8.1-0.4c-1.5,0-7.6,0-8.9,0c-3.7,0-4.7,0-4.9-0.1 c-1.8-0.3-2.7-1.7-3-2.9c-0.3-1.5,0.3-3,1.6-3.9c0.8-0.5,1.1-0.7,4.1-0.7h1.9c1,0,2.1,0,3.5,0H394c0.9,0,1-0.1,3.8-2.5 c0.8-0.7,1.9-1.6,3.4-2.9l1-0.9l-3.2-3.8l-6,5.1H386c0-3.6,0-5.7,0-7v-1.1l8.1-4.5c1-0.6,2.2-0.9,3.4-0.9c1.1,0,2.2,0.3,3.1,0.7 c6,3.1,10.3,5.3,13.4,6.9c8.4,4.3,8.4,4.3,9,4.3c0,0,3.3,0,3.3,0V-206.3z"></path> <path class="st0" d="M372.8-218.4C372.8-218.4,372.7-218.4,372.8-218.4L372.8-218.4c-0.1,0-0.4,0.2-0.7,0.4 c-0.1,0.1-0.2,0.1-0.3,0.2c-0.3,0.2-0.7,0.4-1,0.7c-0.4-0.2-1-0.4-1.5-0.4v-2.3C370.6-219.7,371.9-219.2,372.8-218.4z"></path> <path class="st0" d="M368.7-213.7c0,0-0.2,0.6-0.3,2.3c-2.3-0.3-4-2.1-4-4.1c0-1-1.2-1.9-2.5-1.9c-1.4,0-2.6,0.9-2.6,1.9 c0,1,1.2,1.9,2.6,1.9v2.3c-2.2,0-4.1-1.3-4.6-3.1h-1.5v-2.3h1.5c0.6-1.8,2.4-3.1,4.6-3.1c2.7,0,4.8,1.9,4.8,4.2 C366.7-214.6,367.5-213.8,368.7-213.7z"></path> <path d="M386-234.2"></path> <path class="st0" d="M380.2-219l-2.4,0c-1.8-4.1-6.6-7.1-12.2-7.1c-7.1,0-12.9,4.8-12.9,10.6c0,7.7,9.8,12.9,18.5,9.6l0,0 c0.1,0.1,1.3,0.8,2.5,1.3c-10.1,5.4-23.3-0.9-23.3-10.9c0-7.1,6.8-12.9,15.2-12.9C372.5-228.4,378.4-224.4,380.2-219z"></path> <line class="st4" x1="377.8" y1="-219" x2="377.6" y2="-219"></line> <path d="M372.7-218.4l-2,1.3c0.3-0.3,0.7-0.6,1-0.7c0.1-0.1,0.2-0.1,0.3-0.2C372.4-218.2,372.6-218.3,372.7-218.4z"></path> <path d="M368.7-213.7l-0.3,2.3C368.4-213,368.7-213.7,368.7-213.7z"></path> <path d="M373.6-204.6c-1.2-0.5-2.4-1.3-2.5-1.3L373.6-204.6z"></path> <path d="M382.4-204.3"></path> </g> <path class="st3" d="M258.4-238.9l-31.3-15.6c-0.6-0.3-1.3-0.3-1.9,0L194-238.9c-2.9,1.4-4,4.9-2.6,7.8c1.3,2.5,4.2,3.7,6.8,3v10.3 c0,0,0.4-0.2,0.9,0c0.4,0.2,2.9,1.3,3.2,1.4c0,0,0,0,0,0v-13.8l23.8-11.9l23.8,11.9v15h0.1c0,0,2.8-1.7,4.1-1.4v-11.6 c2.6,0.8,5.5-0.4,6.8-3C262.4-234,261.3-237.5,258.4-238.9z M257.3-233c-0.4,0.8-1.4,1.1-2.2,0.7l-28-14c-0.6-0.3-1.3-0.3-1.9,0 l-28,14c-0.8,0.4-1.8,0.1-2.2-0.7c-0.4-0.8-0.1-1.8,0.7-2.2l30.4-15.2l30.4,15.2C257.4-234.8,257.7-233.8,257.3-233z"></path> <path class="st3" d="M228.3-221.8v14.6c-1.5-0.9-4.2-0.8-4.2-0.8v-11.7h-12v7.6c-1-2.1-4.2-2.6-4.2-2.6v-7.1c0-1.2,0.9-2.1,2.1-2.1 h16.2C227.4-223.9,228.3-223,228.3-221.8z"></path> <path class="st3" d="M242.4-223.9h-8.1c-1.2,0-2.1,0.9-2.1,2.1v12.2c0,1.1,0.9,2.1,2.1,2.1h1.8c0,0,0,0,0,0c0.2-0.1,2-0.9,3.9-2.5 c0.4-0.3,0.8-0.7,1.2-1.1c0.4-0.4,0.8-0.8,1.2-1.2c0.1-0.1,0.2-0.2,0.3-0.3c0.1-0.1,0.3-0.2,0.4-0.3c0.1,0,0.1-0.1,0.2-0.1 c0.3-0.2,0.7-0.4,1.1-0.4v-8.3C244.5-223,243.6-223.9,242.4-223.9z M240.3-211.7h-3.9v-8h3.9V-211.7z"></path> <path class="st1" d="M262.8-202.7l-7.5-13.1c-0.2-0.4-0.6-0.7-1-0.9c-1.3-0.3-4.1,1.4-4.1,1.4l-3.5,2.1c-0.7-0.2-1.4-0.4-2.1-0.3 c-0.4,0-0.8,0.2-1.1,0.4c-0.1,0-0.1,0.1-0.2,0.1c-0.1,0.1-0.3,0.2-0.4,0.3c-0.1,0.1-0.2,0.2-0.3,0.3c-0.4,0.4-0.8,0.8-1.2,1.2 c-0.4,0.4-0.8,0.8-1.2,1.1c-1.9,1.5-3.7,2.4-3.9,2.5c0,0,0,0,0,0c-1.9,0.6-4,0.9-6,0.8l-0.9,0l-0.7-0.4c-0.1,0-0.1-0.1-0.2-0.1 c-1.5-0.9-4.2-0.8-4.2-0.8l-0.1,0l-0.3,0c-0.3,0-0.5,0.1-0.7,0.1l-0.9,0c-3.3,0.1-6.5-0.7-9.4-2.2c-0.1-0.7-0.3-1.4-0.7-2 c-1-2.1-4.2-2.6-4.2-2.6c-0.7,0-1.4,0.1-2.1,0.3l-3.5-2c0,0,0,0,0,0c-0.3-0.2-2.8-1.2-3.2-1.4c-0.4-0.2-0.9,0-0.9,0 c-0.4,0.2-0.8,0.5-1,0.9l-7.5,13c-0.6,1-0.2,2.3,0.8,2.8l5.8,3.4c0.2,1.5,1.1,2.8,2.5,3.6c1.3,0.8,2.9,0.9,4.2,0.4l0.7,0.4 c2.1,1.2,3.5,3.2,4.3,5.8c0.5,1.4,1.2,2.9,2.7,4.2c0.1,0.6,0.3,1.2,0.6,1.7c1.3,2.2,4.1,3,6.3,1.7l0.7,0.3c1.3,2.1,4.1,2.8,6.2,1.6 l1.5-0.9c0.1,0.1,0.1,0.3,0.2,0.4c1.3,2.2,4.1,3,6.3,1.7l7.5-4.3c2.5-1.4,3.7-3.3,4.3-5.2c0.8-2.6,2.2-4.6,4.3-5.8l0.7-0.4 c1.4,0.6,3,0.5,4.5-0.3c1.4-0.8,2.2-2.1,2.5-3.6l5.8-3.4C263-200.4,263.3-201.7,262.8-202.7z M197.3-201.9l-3-1.7l5.5-9.4l3,1.7 L197.3-201.9z M202.1-198.1c-0.2,0.4-0.8,0.6-1.3,0.3c-0.4-0.3-0.6-0.8-0.3-1.3l6.4-11.1c0.2-0.5,0.8-0.6,1.3-0.3 c0.4,0.3,0.6,0.8,0.3,1.3L202.1-198.1z M213.7-194.3c-1.5,0.9-2.3,2.5-2.3,4.1c-1.1-2.6-2.7-4.9-5.3-6.5l5.4-9.4 c3.3,1.6,7,2.4,10.7,2.4l0.9,0c0.5,0,1-0.1,1.3-0.1l0.2,0c0.6-0.1,1.3,0,1.8,0.4l0.7,0.4c0.2,0.2,0.5,0.3,0.7,0.4l3.4,2 c0.2,0.1,0.3,0.4,0.2,0.7c-0.1,0.2-0.4,0.3-0.6,0.2l-5.6-3.2c-1-0.6-2.3-0.2-2.8,0.8c-0.5,0.9-0.3,2.1,0.6,2.7L213.7-194.3z M240.3-187.6c-0.3,1-0.9,2-2.3,2.8l0,0l-7.5,4.3c-0.2,0.1-0.5,0.1-0.6-0.2c-0.1-0.2,0-0.5,0.2-0.6l4.4-2.5c1-0.6,1.3-1.9,0.8-2.8 c-0.6-1-1.8-1.3-2.8-0.8l-9.9,5.7c-0.1,0.1-0.3,0.1-0.4,0c0-0.2-0.1-0.4-0.2-0.6c0-0.1,0.1-0.2,0.2-0.2l7.7-4.5 c1-0.6,1.3-1.9,0.8-2.8c-0.6-1-1.9-1.3-2.9-0.8l-10.3,6l-1.1-0.5l10.9-6.3c1-0.6,1.3-1.9,0.8-2.8c-0.6-1-1.8-1.3-2.8-0.8l-8.8,5.1 c-0.2,0.1-0.5,0.1-0.6-0.2c-0.1-0.2,0-0.5,0.2-0.6l11.3-6.5l1.7,0.9c2.2,1.3,5,0.5,6.3-1.7c0.9-1.6,0.8-3.5-0.2-5 c2.1-0.4,4.1-1.1,6-2l5.4,9.4C243.1-193.8,241.3-190.8,240.3-187.6z M251.6-196.5c-0.4,0.3-1,0.1-1.3-0.3l-6.4-11.1 c-0.3-0.5-0.1-1,0.3-1.3c0.4-0.3,1-0.1,1.3,0.3l6.4,11.1C252.2-197.3,252.1-196.8,251.6-196.5z M255.1-200.7l-5.4-9.5l3-1.7l5.5,9.4 L255.1-200.7z"></path> <line class="st4" x1="716.4" y1="-219.7" x2="714" y2="-222.1"></line> <line class="st4" x1="709.3" y1="-207.7" x2="704.5" y2="-212.5"></line> <path class="st0" d="M580.7-238.2c-0.5-1.4-2.1-1.9-3.3-0.8l-6.1,6.1c-1.9,1.8-4.7,1.9-6.8,0c-1.9-1.9-1.9-5,0-6.9l6.2-6.1 c1-1.1,0.6-2.8-0.8-3.3c-6.2-1.9-12.3-0.3-16.7,4.2c-4.4,4.5-5.7,11.2-3.8,16.9l-3.1,3.1l2.8,2.9l2.1-2.1c0.5,0.8,1,1.5,1.7,2.2 c0.9,1,2,1.9,3.1,2.6l-2.1,2.1l-2.4-2.4l5.2,5.3l3-3.1c6.2,1.9,11.8,0.7,16.9-4C580.9-225.9,582.5-232.3,580.7-238.2z M573.8-224.3 c-5.3,5.2-13.2,4.7-18-0.4c-4.5-4.9-4.4-12.7,0.2-17.5c2.4-2.4,5.5-3.8,8.9-3.8h0.1l-3.3,3.4c-3.4,3.5-3.4,9.1,0,12.5 c3.6,3.4,8.7,3.5,12.5,0l3.3-3.3C577.5-230.1,576.2-226.8,573.8-224.3z"></path> <path class="st0" d="M547.2-204.9l-24.5,24.8c-2.6,2.7-7.3,3-10.4,0c-2.9-2.9-2.9-7.6,0-10.5l24.5-24.7l2.8,2.8l-24.4,24.6 c-1.3,1.4-1.3,3.6,0,4.9c1.2,1.3,3.4,1.3,4.7,0l24.5-24.7L547.2-204.9z"></path> <path class="st2" d="M580.3-190.6l-23.6-23.8l-5.2-5.3l-2.4-2.4l0,0l-2.8-2.9l-6.4-6.5l7.1-7.2c0.8-0.8,0.8-2,0-2.8l-3.7-3.7 c-0.5-0.5-1.1-0.7-1.8-0.6l-14.7,2.6c-0.4,0.1-0.8,0.3-1.1,0.6l-14.9,15.1c-0.8,0.8-0.8,2,0,2.8l9.8,9.9c0.9,0.7,1.8,0.8,2.8,0 l7.1-7.1l6.4,6.5l-0.1,0.1l2.8,2.8l0.1-0.1l4.8,4.8l-0.1,0.1l2.8,2.8l23.5,23.8c2.6,2.5,6.3,2.8,9.4,0 C582.8-183.8,582.8-188,580.3-190.6z M522-219l-7-7.1l13.1-13.2l13.1-2.2l1.5,1.6L522-219z M577.4-184c-1,1-2.7,1-3.8,0l-40.3-40.8 l3.8-3.8l40.3,40.8C578.5-186.8,578.5-185,577.4-184z"></path> <line class="st4" x1="551.5" y1="-219.7" x2="549.1" y2="-222.1"></line> <line class="st4" x1="544.4" y1="-207.7" x2="539.6" y2="-212.5"></line> <path class="st1" d="M754.8-213.6c-1.8-3.1-5.7-4.1-8.8-2.4l-20.7,12c0,0.8-0.1,1.6-0.3,2.4c-1.2,4.5-6,7.2-10.5,6l-12.8-3.5 c-0.8-0.2-1.2-1-1-1.8c0.2-0.8,1-1.2,1.8-1l12.8,3.5c3,0.8,6.1-1,7-4c1-3.8-1.2-7.7-5-8.7l-23.9-6.5c-3.2-0.4-6.1,0.3-8.6,2.3 l-5.8,4.5l6.8,25.3c3-1.8,6.2-2.5,10-1.6l13.7,3.1c3.1,0.7,6,0.4,8.8-1.2l34.2-19.8C755.6-206.6,756.6-210.6,754.8-213.6z M683.8-181.5l-8.2-30.8c-0.2-0.8-1-1.2-1.7-1l-5.7,1.5c-0.8,0.2-1.2,1-1,1.7l8.2,30.8c0.2,0.8,1,1.2,1.7,1l5.7-1.5 C683.6-180,684-180.7,683.8-181.5z"></path> <path class="st3" d="M748.5-248.5c0,4.1-3.3,7.3-7.3,7.3c-4.1,0-7.3-3.3-7.3-7.3c0-4.1,3.3-7.3,7.3-7.3 C745.2-255.9,748.5-252.6,748.5-248.5z"></path> <path class="st3" d="M754.7-227c0.1,0.6-0.4,1.2-1.1,1.2h-17.8c-1-3.2-2.9-6.1-5.5-8.1c2.5-3.3,6.4-5.5,10.9-5.5 C748.2-239.4,754.1-233.9,754.7-227z"></path> <path class="st3" d="M727.4-243.8c0,4-3.3,7.3-7.3,7.3c-4.1,0-7.3-3.3-7.3-7.3c0-4.1,3.3-7.4,7.3-7.4 C724.1-251.1,727.4-247.9,727.4-243.8z"></path> <path class="st3" d="M733.6-222.2c0,0.6-0.4,1.2-1.1,1.2h-24.9c-0.6,0-1.1-0.5-1.1-1.2c0.6-6.9,6.5-12.4,13.5-12.4 C727.1-234.7,733-229.2,733.6-222.2z"></path> <path class="st3" d="M706.2-248.5c0,4.1-3.3,7.3-7.3,7.3c-4.1,0-7.4-3.3-7.4-7.3c0-4.1,3.3-7.3,7.4-7.3 C702.9-255.9,706.2-252.6,706.2-248.5z"></path> <path class="st3" d="M709.8-233.9c-2.6,2.1-4.5,4.9-5.5,8.1h-17.8c-0.6,0-1.1-0.5-1.1-1.2c0.6-6.9,6.5-12.4,13.5-12.4 C703.3-239.4,707.3-237.2,709.8-233.9z"></path> <g> <path class="st5" d="M376.1,208.3l-10.6,0.2l-5.4,0.1c-1.8,0-3.6,0-5.4,0h-0.4v-0.4l0-9v-0.4h0.4l10.7,0.1c3.6,0,7.1,0.1,10.7,0.1 h0.2v0.2c0,1.5-0.1,3.1-0.1,4.6L376.1,208.3z M376.1,208.3l-0.1-4.6c0-1.5-0.1-3-0.1-4.5l0.2,0.2c-3.6,0-7.1,0.1-10.7,0.1l-10.7,0 l0.4-0.4v9l-0.4-0.4c1.8,0,3.5,0,5.3,0l5.3,0.1L376.1,208.3z"></path> <path class="st5" d="M364.1,219.7l-10.6,0.2l-5.3,0.1c-1.8,0-3.6,0-5.4,0h-0.4v-0.4l0-9v-0.4h0.4l10.7,0.1c3.6,0,7.1,0.1,10.7,0.1 h0.2v0.2c0,1.5-0.1,3.1-0.1,4.6L364.1,219.7z M364.1,219.7l-0.1-4.6c0-1.5-0.1-3-0.1-4.5l0.2,0.2c-3.6,0-7.1,0.1-10.7,0.1l-10.7,0 l0.4-0.4l0,9l-0.4-0.4c1.8,0,3.5,0,5.3,0l5.3,0.1L364.1,219.7z"></path> <path class="st5" d="M352.3,208.3l-10.6,0.2l-5.4,0.1c-1.8,0-3.6,0-5.4,0h-0.4v-0.4v-9v-0.4h0.4l10.7,0.1c3.6,0,7.1,0.1,10.7,0.1 h0.2v0.2c0,1.5-0.1,3.1-0.1,4.6L352.3,208.3z M352.3,208.3l-0.1-4.6c0-1.5-0.1-3-0.1-4.5l0.2,0.2c-3.6,0-7.1,0.1-10.7,0.1l-10.7,0 l0.4-0.4l0,9l-0.4-0.4c1.8,0,3.5,0,5.3,0l5.3,0.1L352.3,208.3z"></path> <path class="st5" d="M418.1,320.2l-10.6,0.2l-5.4,0.1c-1.8,0-3.6,0-5.4,0h-0.4v-0.4l0-9v-0.4h0.4l10.7,0c3.6,0,7.1,0.1,10.7,0.1 h0.2v0.2c0,1.5-0.1,3-0.1,4.6L418.1,320.2z M418.1,320.2l-0.1-4.6c0-1.5-0.1-3-0.1-4.5l0.2,0.2c-3.6,0-7.1,0.1-10.7,0.1l-10.7,0 l0.4-0.4l0,9l-0.4-0.4c1.8,0,3.5,0,5.3,0l5.3,0.1L418.1,320.2z"></path> <path class="st6" d="M406.4,256.7l4.4-7.2l-2.2-1.4c-0.6-0.4-1-1.1-0.9-1.9c0-0.4,0.1-0.8,0-1.3c0-0.8,0.4-1.5,1-1.8l2.3-1.2 l-4-7.5l-2.3,1.2c-0.7,0.3-1.5,0.3-2.1-0.1c-0.3-0.2-0.7-0.5-1.1-0.7c-0.6-0.4-1-1.1-1-1.8l0.1-2.6l-8.4-0.3l-0.1,2.6 c0,0.8-0.5,1.4-1.2,1.7l-0.6,0.3l-0.5,0.3c-0.6,0.4-1.5,0.4-2.1,0l-2.2-1.4l-4.4,7.2l2.2,1.4c0.6,0.4,1,1.1,0.9,1.9 c0,0.4,0,0.8,0,1.3c0,0.8-0.4,1.5-1,1.8l-2.3,1.2l4,7.4l2.3-1.2c0.7-0.3,1.5-0.3,2.1,0.1c0.3,0.2,0.7,0.5,1.1,0.7 c0.7,0.4,1.1,1.1,1.1,1.8l-0.1,2.6l8.4,0.3l0.1-2.6c0-0.8,0.5-1.4,1.2-1.7l0.6-0.3c0.2-0.1,0.4-0.2,0.5-0.3c0.6-0.4,1.5-0.4,2.1,0 L406.4,256.7z M399.3,251.4c-3.4,1.8-7.5,0.5-9.3-2.8c-1.8-3.4-0.5-7.5,2.8-9.3c3.4-1.8,7.5-0.5,9.3,2.8c0,0,0,0,0,0 C403.9,245.4,402.7,249.6,399.3,251.4C399.3,251.4,399.3,251.4,399.3,251.4L399.3,251.4z"></path> <path class="st6" d="M171,148.4l-2.9-5.1l-1.6,0.9c-0.5,0.3-1,0.2-1.5,0c-0.3-0.2-0.5-0.3-0.8-0.4c-0.5-0.2-0.8-0.7-0.8-1.3v-1.8 h-5.9v1.8c0,0.5-0.3,1-0.8,1.3c-0.3,0.1-0.5,0.3-0.8,0.4c-0.4,0.3-1,0.3-1.5,0l-1.4-0.9l-3,5.1l1.6,0.9c0.5,0.3,0.7,0.8,0.7,1.3 c0,0.1,0,0.3,0,0.4s0,0.3,0,0.4c0,0.5-0.2,1-0.7,1.3l-1.6,0.9l3,5.1l1.6-0.9c0.5-0.3,1-0.2,1.5,0.1c0.3,0.2,0.5,0.3,0.8,0.4 c0.5,0.2,0.8,0.7,0.8,1.3v1.8h5.8v-1.8c0-0.5,0.3-1,0.8-1.3c0.3-0.1,0.5-0.3,0.8-0.4c0.4-0.3,1-0.3,1.5-0.1l1.6,0.9l2.9-5.1 l-1.6-0.9c-0.5-0.3-0.7-0.8-0.7-1.3c0-0.1,0-0.3,0-0.4s0-0.3,0-0.4c0-0.5,0.2-1,0.7-1.3L171,148.4z M165.4,151 c0,2.7-2.2,4.8-4.8,4.8c-2.7,0-4.8-2.2-4.8-4.8c0-2.7,2.2-4.8,4.8-4.8C163.2,146.2,165.4,148.4,165.4,151 C165.4,151,165.4,151,165.4,151L165.4,151z"></path> <path class="st5" d="M117,176.7c-12.7,0-23,10.3-23,23s10.3,23,23,23c12.7,0,23-10.3,23-23c0,0,0,0,0,0 C140,187,129.7,176.7,117,176.7z M117,210.5c-5.9,0-10.7-4.8-10.7-10.7c0-5.9,4.8-10.7,10.7-10.7c5.9,0,10.7,4.8,10.7,10.7 c0,0,0,0,0,0C127.7,205.6,122.9,210.5,117,210.5L117,210.5z"></path> <polygon class="st5" points="121.4,177.7 112.6,177.7 113.1,171.4 120.9,171.4 "></polygon> <polygon class="st5" points="104.6,180.7 98.3,186.9 94.3,182.1 99.8,176.6 "></polygon> <polygon class="st5" points="94.8,194.7 94.8,203.5 88.6,203 88.6,195.2 "></polygon> <polygon class="st5" points="97.8,211.5 104,217.7 99.3,221.8 93.7,216.3 "></polygon> <polygon class="st5" points="111.8,221.3 120.6,221.3 120.1,227.5 112.3,227.5 "></polygon> <polygon class="st5" points="128.6,218.3 134.8,212 138.9,216.8 133.4,222.4 "></polygon> <polygon class="st5" points="138.4,204.3 138.4,195.5 144.6,195.9 144.6,203.8 "></polygon> <polygon class="st5" points="135.4,187.5 129.2,181.2 133.9,177.2 139.5,182.7 "></polygon> <path class="st5" d="M352,77.5c-12.7,0-23,10.3-23,23s10.3,23,23,23c12.7,0,23-10.3,23-23C375,87.8,364.7,77.5,352,77.5 C352,77.5,352,77.5,352,77.5z M352,111.2c-5.9,0-10.7-4.8-10.7-10.7c0-5.9,4.8-10.7,10.7-10.7s10.7,4.8,10.7,10.7c0,0,0,0,0,0 C362.8,106.4,358,111.2,352,111.2C352,111.2,352,111.2,352,111.2z"></path> <polygon class="st5" points="356.4,78.4 347.6,78.4 348.1,72.2 355.9,72.2 "></polygon> <polygon class="st5" points="339.6,81.4 333.4,87.7 329.3,82.9 334.8,77.3 "></polygon> <polygon class="st5" points="329.8,95.4 329.8,104.3 323.6,103.8 323.6,95.9 "></polygon> <polygon class="st5" points="332.8,112.2 339.1,118.5 334.3,122.6 328.7,117 "></polygon> <polygon class="st5" points="346.8,122 355.6,122 355.2,128.3 347.3,128.3 "></polygon> <polygon class="st5" points="363.6,119.1 369.9,112.8 374,117.6 368.4,123.1 "></polygon> <polygon class="st5" points="373.4,105.1 373.4,96.2 379.7,96.7 379.7,104.6 "></polygon> <polygon class="st5" points="370.4,88.2 364.2,82 369,77.9 374.5,83.5 "></polygon> <g id="freepik--Shadow--inject-7"> <ellipse class="st5" cx="249.8" cy="409.4" rx="159.9" ry="18.5"></ellipse> </g> <g id="freepik--Floor--inject-7"> <polygon class="st7" points="81.7,372.8 123.7,372.6 165.7,372.6 249.8,372.4 333.9,372.6 376,372.6 418,372.8 376,373 333.9,373.1 249.8,373.2 165.7,373.1 123.7,373 "></polygon> </g> <g id="freepik--Device--inject-7"> <path class="st7" d="M318,87.5H181.6c-7.7,0.1-13.9,6.4-13.8,14c0,0,0,0,0,0v280.7c-0.1,7.7,6.1,14,13.8,14.1H318 c7.7-0.1,13.9-6.4,13.8-14.1V101.6C331.9,93.9,325.7,87.6,318,87.5z M323.2,373.6c0,7.4-5.5,13.4-12.4,13.4h-122 c-6.8,0-12.4-6-12.4-13.4V112.2c0-15.1,5.5-15.8,12.4-15.8h24.4c1.4,0,2.6,1.6,2.6,3.6v0.9c0,4.7,2.6,4.7,5.7,4.7h56.5 c3.2,0,5.7,0,5.7-4.7V100c0-2,1.1-3.6,2.6-3.6h24.4c6.8,0,12.4,2,12.4,15.8L323.2,373.6z"></path> <path class="st8" d="M323.2,112.2v261.4c0,7.4-5.5,13.4-12.4,13.4h-122c-6.8,0-12.4-6-12.4-13.4V112.2c0-15.1,5.5-15.8,12.4-15.8 h24.4c1.4,0,2.6,1.6,2.6,3.6v0.9c0,4.7,2.6,4.7,5.7,4.7h56.5c3.2,0,5.7,0,5.7-4.7V100c0-2,1.1-3.6,2.6-3.6h24.4 C317.6,96.4,323.2,98.4,323.2,112.2z"></path> <path class="st0" d="M323.2,112.2v29.4H176.4v-29.4c0-15.1,5.5-15.8,12.4-15.8h24.4c1.4,0,2.6,1.6,2.6,3.6v0.9 c0,4.7,2.6,4.7,5.7,4.7h56.5c3.2,0,5.7,0,5.7-4.7V100c0-2,1.1-3.6,2.6-3.6h24.4C317.6,96.4,323.2,98.4,323.2,112.2z"></path> <g id="freepik--u5Zjqx--inject-7"> <path class="st8" d="M209.1,102.3l-0.2,0.2c0,0-0.1,0.1-0.1,0.1c-1.3-1.3-3.3-1.3-4.5,0l-0.1-0.1l-0.2-0.2l0,0l0,0l0.3-0.3 c0.2-0.2,0.4-0.3,0.7-0.4c0.3-0.1,0.6-0.2,0.9-0.3c0.2,0,0.3,0,0.5-0.1c0.2-0.1,0.4,0,0.4,0h0.3c0.3,0,0.5,0.1,0.8,0.2 c0.2,0.1,0.4,0.2,0.6,0.3c0.2,0.1,0.4,0.2,0.5,0.4L209.1,102.3L209.1,102.3z"></path> <path class="st8" d="M204.9,103.4c-0.1-0.1-0.2-0.3-0.4-0.4c1-1,2.7-1.1,3.8,0c0,0,0,0,0,0l-0.4,0.4c-0.4-0.4-1-0.6-1.5-0.6 C205.8,102.8,205.3,103,204.9,103.4z"></path> <path class="st8" d="M207.6,103.8l-0.4,0.4c-0.4-0.4-1.1-0.4-1.6,0l-0.4-0.4C205.9,103.1,206.9,103.1,207.6,103.8 C207.6,103.8,207.6,103.8,207.6,103.8z"></path> <path class="st8" d="M206.7,104.5c0,0.2-0.1,0.3-0.3,0.3l0,0c-0.2,0-0.4-0.1-0.4-0.3c0-0.2,0.1-0.4,0.3-0.4c0,0,0.1,0,0.1,0 C206.6,104.1,206.7,104.3,206.7,104.5C206.7,104.5,206.7,104.5,206.7,104.5z"></path> </g> <path class="st8" d="M186,103c0-0.5,0.4-1,1-1s1,0.4,1,1c0,0.5-0.4,1-1,1S186,103.5,186,103C186,103,186,103,186,103z"></path> <path class="st8" d="M189.1,103c0-0.5,0.4-1,1-1c0.5,0,1,0.4,1,1c0,0.5-0.4,1-1,1C189.5,104,189.1,103.5,189.1,103 C189.1,103,189.1,103,189.1,103z"></path> <path class="st8" d="M192.2,103c0-0.5,0.4-1,1-1c0.5,0,1,0.4,1,1s-0.4,1-1,1c0,0,0,0,0,0C192.6,104,192.2,103.5,192.2,103 C192.2,103,192.2,103,192.2,103z"></path> <path class="st8" d="M195.2,103c0-0.5,0.4-1,1-1c0.5,0,1,0.4,1,1c0,0.5-0.4,1-1,1c0,0,0,0,0,0C195.7,104,195.2,103.5,195.2,103 C195.2,103,195.2,103,195.2,103z"></path> <path class="st8" d="M198.3,103c0-0.5,0.4-1,1-1c0.5,0,1,0.4,1,1c0,0.5-0.4,1-1,1S198.3,103.5,198.3,103 C198.3,103,198.3,103,198.3,103z"></path> <path class="st8" d="M312.2,105.1h-7.9v-3.6h7.9V105.1z M304.7,104.7h7.1v-2.8h-7.1V104.7z"></path> <rect x="304.9" y="102.1" class="st8" width="5.1" height="2.4"></rect> <rect x="312.2" y="102.3" class="st8" width="0.7" height="2"></rect> <polygon class="st8" points="189.8,133.4 185.5,129.3 189.8,125.2 190.5,126 186.9,129.3 190.5,132.7 "></polygon> <path class="st8" d="M232.4,130.6c0.1-0.2,0.4-0.2,0.5,0c0.4,0.3,0.9,0.5,1.3,0.5c0.3,0,0.6-0.1,0.9-0.3c0.2-0.1,0.3-0.3,0.3-0.5 c0-0.1,0-0.2-0.1-0.2c-0.1-0.1-0.1-0.2-0.2-0.2c-0.3-0.2-0.6-0.3-1-0.3l0,0c-0.3-0.1-0.6-0.1-0.9-0.3c-0.3-0.1-0.5-0.3-0.7-0.5 c-0.1-0.2-0.2-0.4-0.2-0.6c0-0.4,0.2-0.8,0.6-1c0.4-0.2,0.8-0.4,1.2-0.4c0.6,0,1.1,0.2,1.5,0.6c0.2,0.1,0.2,0.3,0.1,0.5 c0,0,0,0,0,0c-0.1,0.2-0.3,0.2-0.5,0.1c0,0,0,0,0,0c-0.3-0.3-0.7-0.4-1.1-0.5c-0.3,0-0.6,0.1-0.8,0.2c-0.2,0.1-0.3,0.3-0.3,0.4 c0,0.1,0,0.1,0,0.2c0.1,0.1,0.1,0.1,0.2,0.2c0.3,0.2,0.6,0.3,0.9,0.3l0,0c0.3,0.1,0.7,0.2,1,0.3c0.3,0.1,0.5,0.3,0.7,0.6 c0.1,0.2,0.2,0.4,0.2,0.6c0,0.4-0.2,0.9-0.6,1.1c-0.4,0.3-0.8,0.4-1.3,0.4c-0.7,0-1.3-0.3-1.8-0.7 C232.3,131,232.3,130.8,232.4,130.6z"></path> <path class="st8" d="M237.3,131.5v-4.2c0-0.2,0.2-0.4,0.4-0.4c0,0,0,0,0,0h2.3c0.2,0,0.4,0.2,0.4,0.4c0,0.2-0.2,0.4-0.4,0.4h-1.9 v1.3h1.6c0.2,0,0.4,0.2,0.4,0.4c0,0.2-0.2,0.4-0.4,0.4h-1.6v1.3h1.9c0.2,0,0.4,0.2,0.4,0.4c0,0.2-0.2,0.4-0.4,0.4h-2.3 C237.5,131.9,237.3,131.7,237.3,131.5C237.3,131.5,237.3,131.5,237.3,131.5z"></path> <path class="st8" d="M244.5,127.7h-1.2v3.8c0,0.2-0.2,0.4-0.4,0.4s-0.4-0.2-0.4-0.4v-3.8h-1.1c-0.2,0-0.4-0.2-0.4-0.4c0,0,0,0,0,0 c0-0.2,0.2-0.4,0.4-0.4c0,0,0,0,0,0h3c0.2,0,0.4,0.2,0.4,0.4C244.9,127.5,244.7,127.7,244.5,127.7z"></path> <path class="st8" d="M249.1,127.7H248v3.8c0,0.2-0.2,0.4-0.4,0.4c0,0,0,0,0,0c-0.2,0-0.4-0.2-0.4-0.4v-3.8h-1.1 c-0.2,0-0.4-0.2-0.4-0.4c0,0,0,0,0,0c0-0.2,0.2-0.4,0.4-0.4c0,0,0,0,0,0h3c0.2,0,0.4,0.2,0.4,0.4 C249.5,127.5,249.3,127.7,249.1,127.7z"></path> <path class="st8" d="M250.7,127.3c0-0.2,0.2-0.4,0.4-0.4c0,0,0,0,0,0c0.2,0,0.4,0.2,0.4,0.4v4.2c0,0.2-0.2,0.4-0.4,0.4 c-0.2,0-0.4-0.2-0.4-0.4c0,0,0,0,0,0V127.3z"></path> <path class="st8" d="M253.6,131.5c0,0.2-0.2,0.4-0.4,0.4s-0.4-0.2-0.4-0.4v-4.1l0,0c0-0.1,0.1-0.2,0.2-0.3 c0.2-0.1,0.4-0.1,0.5,0.1l2.3,3.2v-2.9c0-0.2,0.2-0.4,0.4-0.4c0.2,0,0.4,0.2,0.4,0.4v4.1c0,0.2-0.2,0.4-0.4,0.4 c-0.1,0-0.2-0.1-0.3-0.1l0,0l-2.3-3.1L253.6,131.5z"></path> <path class="st8" d="M257.7,129.3c0-1.4,1.2-2.6,2.6-2.5c0,0,0,0,0,0c0.6,0,1.2,0.2,1.6,0.5c0.2,0.1,0.2,0.4,0.1,0.6 c-0.1,0.2-0.4,0.2-0.6,0.1c-0.3-0.2-0.7-0.4-1.1-0.4c-0.5,0-0.9,0.2-1.3,0.5c-0.7,0.6-0.7,1.7,0,2.4c0,0,0,0,0,0 c0.3,0.3,0.8,0.5,1.3,0.5c0.3,0,0.7-0.1,1-0.3v-1h-1c-0.2,0-0.4-0.2-0.4-0.4c0-0.2,0.2-0.4,0.4-0.4c0,0,0,0,0,0h1.4 c0.2,0,0.4,0.2,0.4,0.4c0,0,0,0,0,0v1.6c0,0,0,0.1,0,0.1l0,0l0,0c0,0.1-0.1,0.1-0.1,0.2c-0.5,0.4-1,0.6-1.6,0.5 C258.9,131.8,257.8,130.7,257.7,129.3z"></path> <path class="st8" d="M263.5,130.6c0.1-0.2,0.4-0.2,0.5,0c0.4,0.3,0.9,0.5,1.3,0.5c0.3,0,0.6-0.1,0.9-0.3c0.2-0.1,0.3-0.3,0.3-0.5 c0-0.1,0-0.2-0.1-0.2c-0.1-0.1-0.1-0.2-0.2-0.2c-0.3-0.2-0.6-0.3-1-0.3l0,0c-0.3-0.1-0.6-0.1-0.9-0.3c-0.3-0.1-0.5-0.3-0.7-0.5 c-0.1-0.2-0.2-0.4-0.2-0.6c0-0.4,0.2-0.8,0.6-1c0.4-0.2,0.8-0.4,1.2-0.4c0.6,0,1.1,0.2,1.5,0.6c0.2,0.1,0.2,0.3,0.2,0.5 c-0.1,0.2-0.3,0.2-0.5,0.2c0,0,0,0-0.1,0c-0.3-0.3-0.7-0.4-1.1-0.5c-0.3,0-0.6,0.1-0.8,0.2c-0.2,0.1-0.3,0.3-0.3,0.4 c0,0.1,0,0.1,0,0.2c0.1,0.1,0.1,0.1,0.2,0.2c0.3,0.2,0.6,0.3,0.9,0.3l0,0c0.3,0.1,0.7,0.2,1,0.3c0.3,0.1,0.5,0.3,0.7,0.6 c0.1,0.2,0.2,0.4,0.2,0.6c0,0.4-0.2,0.9-0.6,1.1c-0.4,0.3-0.8,0.4-1.3,0.4c-0.7,0-1.3-0.3-1.8-0.7 C263.4,131,263.4,130.8,263.5,130.6z"></path> <rect x="307.5" y="126.4" class="st8" width="6.6" height="0.8"></rect> <rect x="307.5" y="128.9" class="st8" width="6.6" height="0.8"></rect> <rect x="307.5" y="131.5" class="st8" width="6.6" height="0.8"></rect> <circle class="st8" cx="309" cy="126.8" r="1.1"></circle> <path class="st8" d="M313.5,129.3c0,0.6-0.5,1.2-1.1,1.2c-0.6,0-1.2-0.5-1.2-1.1c0-0.6,0.5-1.2,1.1-1.2c0,0,0,0,0,0 C313,128.2,313.5,128.7,313.5,129.3C313.5,129.3,313.5,129.3,313.5,129.3z"></path> <circle class="st8" cx="310.1" cy="131.8" r="1.1"></circle> <path class="st8" d="M257.5,99.7h-15.4c-0.5,0-1-0.4-1-1l0,0c0-0.5,0.4-1,1-1h15.4c0.5,0,1,0.4,1,1l0,0 C258.5,99.3,258.1,99.7,257.5,99.7z"></path> <path class="st9" d="M259.3,183.3c-1.6,1-3.2,1.7-5,2.1c-9.3,2.3-18.8-3.4-21.1-12.8c-2.3-9.3,3.4-18.8,12.8-21.1 c9.3-2.3,18.8,3.4,21.1,12.8C268.9,171.6,265.8,179.3,259.3,183.3z"></path> <path class="st8" d="M255.5,166.5c0,2.9-2.4,5.3-5.3,5.3c-2.9,0-5.3-2.4-5.3-5.3c0-2.9,2.4-5.3,5.3-5.3c0,0,0,0,0,0 C253.1,161.2,255.5,163.5,255.5,166.5z"></path> <path class="st8" d="M259.3,181.1v2.2c-1.6,1-3.2,1.7-5,2.1c-4.5,1.1-9.3,0.4-13.3-2.1v-2.2c0-5.1,4.1-9.2,9.2-9.2 C255.2,171.9,259.3,176,259.3,181.1L259.3,181.1z"></path> <path class="st0" d="M263.4,178.2c-3.7,0-6.8,3-6.8,6.8s3,6.8,6.8,6.8c3.7,0,6.8-3,6.8-6.8S267.1,178.2,263.4,178.2L263.4,178.2z M263.4,188.1c-1.7,0-3.2-1.4-3.2-3.2s1.4-3.2,3.2-3.2c1.7,0,3.2,1.4,3.2,3.2c0,0,0,0,0,0C266.5,186.7,265.1,188.1,263.4,188.1 C263.4,188.1,263.4,188.1,263.4,188.1L263.4,188.1z"></path> <polygon class="st0" points="264.7,178.4 262.1,178.4 262.2,176.6 264.5,176.6 "></polygon> <polygon class="st0" points="259.7,179.3 257.9,181.2 256.7,179.8 258.3,178.1 "></polygon> <polygon class="st0" points="256.9,183.4 256.9,186 255,185.9 255,183.6 "></polygon> <polygon class="st0" points="257.7,188.4 259.6,190.2 258.2,191.4 256.5,189.8 "></polygon> <polygon class="st0" points="261.8,191.3 264.4,191.3 264.3,193.1 262,193.1 "></polygon> <polygon class="st0" points="266.8,190.4 268.6,188.5 269.8,189.9 268.2,191.6 "></polygon> <polygon class="st0" points="269.7,186.3 269.7,183.7 271.5,183.8 271.5,186.1 "></polygon> <polygon class="st0" points="268.8,181.3 267,179.5 268.4,178.3 270,179.9 "></polygon> <rect x="190.7" y="199.3" class="st9" width="8.5" height="8.5"></rect> <polygon class="st5" points="205.8,211.6 218.7,211.5 231.6,211.4 257.4,211.3 283.2,211.4 296.1,211.5 309,211.6 296.1,211.8 283.2,211.9 257.4,211.9 231.6,211.9 218.7,211.8 "></polygon> <rect x="205.8" y="202.7" class="st5" width="39.4" height="1.8"></rect> <path class="st0" d="M304.7,207.8H296c-2.3,0-4.2-1.9-4.2-4.2l0,0c0-2.3,1.9-4.2,4.2-4.2l0,0h8.8c2.3,0,4.2,1.9,4.2,4.2l0,0l0,0 C309,205.9,307.1,207.8,304.7,207.8C304.7,207.8,304.7,207.8,304.7,207.8z"></path> <path class="st8" d="M308.1,203.6c0,1.9-1.5,3.4-3.4,3.4c-1.9,0-3.4-1.5-3.4-3.4c0-1.9,1.5-3.4,3.4-3.4l0,0 C306.6,200.2,308.1,201.7,308.1,203.6C308.1,203.6,308.1,203.6,308.1,203.6z"></path> <rect x="190.7" y="215.3" class="st10" width="8.5" height="8.5"></rect> <polygon class="st5" points="205.8,227.6 218.7,227.4 231.6,227.3 257.4,227.3 283.2,227.3 296.1,227.4 309,227.6 296.1,227.7 283.2,227.8 257.4,227.9 231.6,227.8 218.7,227.7 "></polygon> <rect x="205.8" y="218.6" class="st5" width="39.4" height="1.8"></rect> <path class="st0" d="M304.7,223.8H296c-2.3,0-4.2-1.9-4.2-4.2l0,0l0,0c0-2.3,1.9-4.2,4.2-4.2l0,0h8.8c2.3,0,4.2,1.9,4.2,4.2l0,0 l0,0C309,221.9,307.1,223.8,304.7,223.8L304.7,223.8z"></path> <path class="st8" d="M308.1,219.5c0,1.9-1.5,3.4-3.4,3.4c-1.9,0-3.4-1.5-3.4-3.4c0-1.9,1.5-3.4,3.4-3.4l0,0 C306.6,216.1,308.1,217.6,308.1,219.5C308.1,219.5,308.1,219.5,308.1,219.5z"></path> <rect x="190.7" y="247.2" class="st9" width="8.5" height="8.5"></rect> <polygon class="st5" points="205.8,259.5 218.7,259.3 231.6,259.2 257.4,259.2 283.2,259.2 296.1,259.3 309,259.5 296.1,259.6 283.2,259.7 257.4,259.8 231.6,259.7 218.7,259.6 "></polygon> <rect x="205.8" y="250.5" class="st5" width="39.4" height="1.8"></rect> <path class="st5" d="M296,255.6h8.8c2.3,0,4.2-1.9,4.2-4.2l0,0l0,0c0-2.3-1.9-4.2-4.2-4.2l0,0H296c-2.3,0-4.2,1.9-4.2,4.2l0,0l0,0 C291.7,253.7,293.6,255.6,296,255.6L296,255.6z"></path> <path class="st8" d="M292.6,251.4c0,1.9,1.5,3.4,3.4,3.4c1.9,0,3.4-1.5,3.4-3.4c0-1.9-1.5-3.4-3.4-3.4c0,0,0,0,0,0 C294.1,248,292.6,249.5,292.6,251.4z"></path> <rect x="190.7" y="263.1" class="st10" width="8.5" height="8.5"></rect> <polygon class="st5" points="205.8,275.4 218.7,275.3 231.6,275.2 257.4,275.1 283.2,275.2 296.1,275.3 309,275.4 296.1,275.5 283.2,275.6 257.4,275.7 231.6,275.6 218.7,275.5 "></polygon> <rect x="205.8" y="266.4" class="st5" width="39.4" height="1.8"></rect> <path class="st0" d="M304.7,271.6H296c-2.3,0-4.2-1.9-4.2-4.2l0,0c0-2.3,1.9-4.2,4.2-4.2h8.8c2.3,0,4.2,1.9,4.2,4.2l0,0 C309,269.7,307.1,271.6,304.7,271.6z"></path> <path class="st8" d="M308.1,267.3c0,1.9-1.5,3.4-3.4,3.4c-1.9,0-3.4-1.5-3.4-3.4c0-1.9,1.5-3.4,3.4-3.4c0,0,0,0,0,0 C306.6,263.9,308.1,265.5,308.1,267.3z"></path> <rect x="190.7" y="295" class="st9" width="8.5" height="8.5"></rect> <polygon class="st5" points="205.8,307.3 218.7,307.1 231.6,307.1 257.4,307 283.2,307.1 296.1,307.1 309,307.3 296.1,307.4 283.2,307.5 257.4,307.6 231.6,307.5 218.7,307.4 "></polygon> <rect x="205.8" y="298.3" class="st5" width="39.4" height="1.8"></rect> <path class="st0" d="M304.7,303.5H296c-2.3,0-4.2-1.9-4.2-4.2l0,0c0-2.3,1.9-4.2,4.2-4.2h8.8c2.3,0,4.2,1.9,4.2,4.2l0,0 C309,301.6,307.1,303.5,304.7,303.5z"></path> <path class="st8" d="M308.1,299.2c0,1.9-1.5,3.4-3.4,3.4c-1.9,0-3.4-1.5-3.4-3.4c0-1.9,1.5-3.4,3.4-3.4c0,0,0,0,0,0 C306.6,295.8,308.1,297.3,308.1,299.2C308.1,299.2,308.1,299.2,308.1,299.2z"></path> <rect x="190.7" y="310.9" class="st10" width="8.5" height="8.5"></rect> <polygon class="st5" points="205.8,323.2 218.7,323.1 231.6,323 257.4,322.9 283.2,323 296.1,323.1 309,323.2 296.1,323.4 283.2,323.5 257.4,323.5 231.6,323.5 218.7,323.4 "></polygon> <rect x="205.8" y="314.3" class="st5" width="39.4" height="1.8"></rect> <path class="st0" d="M304.7,319.4H296c-2.3,0-4.2-1.9-4.2-4.2l0,0c0-2.3,1.9-4.2,4.2-4.2h8.8c2.3,0,4.2,1.9,4.2,4.2l0,0 C309,317.5,307.1,319.4,304.7,319.4z"></path> <path class="st8" d="M308.1,315.2c0,1.9-1.5,3.4-3.4,3.4c-1.9,0-3.4-1.5-3.4-3.4c0-1.9,1.5-3.4,3.4-3.4c0,0,0,0,0,0 C306.6,311.8,308.1,313.3,308.1,315.2z"></path> <rect x="190.7" y="326.9" class="st0" width="8.5" height="8.5"></rect> <polygon class="st5" points="205.8,339.2 218.7,339 231.6,338.9 257.4,338.9 283.2,338.9 296.1,339 309,339.2 296.1,339.3 283.2,339.4 257.4,339.5 231.6,339.4 218.7,339.3 "></polygon> <rect x="205.8" y="330.2" class="st5" width="39.4" height="1.8"></rect> <path class="st5" d="M296,335.4h8.8c2.3,0,4.2-1.9,4.2-4.2l0,0l0,0c0-2.3-1.9-4.2-4.2-4.2l0,0H296c-2.3,0-4.2,1.9-4.2,4.2l0,0l0,0 C291.7,333.5,293.6,335.4,296,335.4L296,335.4z"></path> <circle class="st8" cx="296" cy="331.1" r="3.4"></circle> <rect x="190.7" y="342.8" class="st9" width="8.5" height="8.5"></rect> <polygon class="st5" points="205.8,355.1 218.7,355 231.6,354.9 257.4,354.8 283.2,354.9 296.1,355 309,355.1 296.1,355.3 283.2,355.3 257.4,355.4 231.6,355.3 218.7,355.3 "></polygon> <rect x="205.8" y="346.1" class="st5" width="39.4" height="1.8"></rect> <path class="st0" d="M304.7,351.3H296c-2.3,0-4.2-1.9-4.2-4.2l0,0l0,0c0-2.3,1.9-4.2,4.2-4.2l0,0h8.8c2.3,0,4.2,1.9,4.2,4.2l0,0 l0,0C309,349.4,307.1,351.3,304.7,351.3L304.7,351.3z"></path> <path class="st8" d="M308.1,347.1c0,1.9-1.5,3.4-3.4,3.4c-1.9,0-3.4-1.5-3.4-3.4c0-1.9,1.5-3.4,3.4-3.4c0,0,0,0,0,0 C306.6,343.7,308.1,345.2,308.1,347.1z"></path> <rect x="190.7" y="231.2" class="st0" width="8.5" height="8.5"></rect> <polygon class="st5" points="205.8,243.5 218.7,243.4 231.6,243.3 257.4,243.2 283.2,243.3 296.1,243.4 309,243.5 296.1,243.7 283.2,243.8 257.4,243.8 231.6,243.8 218.7,243.7 "></polygon> <rect x="205.8" y="234.5" class="st5" width="39.4" height="1.8"></rect> <path class="st0" d="M304.7,239.7H296c-2.3,0-4.2-1.9-4.2-4.2l0,0l0,0c0-2.3,1.9-4.2,4.2-4.2l0,0h8.8c2.3,0,4.2,1.9,4.2,4.2l0,0 C309,237.8,307.1,239.7,304.7,239.7z"></path> <path class="st8" d="M308.1,235.5c0,1.9-1.5,3.4-3.4,3.4c-1.9,0-3.4-1.5-3.4-3.4c0-1.9,1.5-3.4,3.4-3.4c0,0,0,0,0,0 C306.6,232.1,308.1,233.6,308.1,235.5z"></path> <rect x="265.3" y="363.7" class="st0" width="43.7" height="11.9"></rect> <path class="st8" d="M279.4,370.7c0.1-0.1,0.3-0.2,0.5,0c0.4,0.3,0.8,0.5,1.3,0.5c0.3,0,0.6-0.1,0.8-0.2c0.2-0.1,0.3-0.3,0.3-0.5 c0-0.1,0-0.1-0.1-0.2c0-0.1-0.1-0.1-0.2-0.2c-0.3-0.2-0.6-0.3-0.9-0.3l0,0c-0.3-0.1-0.6-0.1-0.8-0.3c-0.2-0.1-0.5-0.3-0.6-0.5 c-0.1-0.2-0.2-0.3-0.2-0.5c0-0.4,0.2-0.7,0.5-1c0.3-0.2,0.7-0.4,1.1-0.3c0.5,0,1,0.2,1.4,0.5c0.2,0.1,0.2,0.3,0.1,0.5 c-0.1,0.2-0.3,0.2-0.5,0.1c-0.3-0.2-0.7-0.4-1-0.4c-0.3,0-0.5,0.1-0.7,0.2c-0.1,0.1-0.2,0.2-0.3,0.4c0,0.1,0,0.1,0,0.2 c0,0.1,0.1,0.1,0.2,0.2c0.2,0.1,0.5,0.2,0.8,0.3l0,0c0.3,0.1,0.6,0.1,0.9,0.3c0.3,0.1,0.5,0.3,0.7,0.5c0.1,0.2,0.2,0.4,0.2,0.6 c0,0.4-0.2,0.8-0.6,1c-0.4,0.2-0.8,0.4-1.2,0.4c-0.6,0-1.2-0.3-1.7-0.7C279.3,371,279.3,370.8,279.4,370.7z"></path> <path class="st8" d="M286.1,370.7h-1.6l-0.3,0.9c-0.1,0.1-0.2,0.2-0.3,0.2h-0.1c-0.2-0.1-0.3-0.3-0.2-0.5l1.5-3.9 c0.1-0.1,0.2-0.2,0.3-0.2c0.2,0,0.3,0.1,0.3,0.2l1.4,3.9c0.1,0.2,0,0.4-0.2,0.5h-0.1c-0.1,0-0.3-0.1-0.3-0.2L286.1,370.7z M285.9,370l-0.5-1.4l-0.5,1.4H285.9z"></path> <path class="st8" d="M288.9,371.7C288.9,371.7,288.9,371.7,288.9,371.7C288.9,371.7,288.9,371.7,288.9,371.7L288.9,371.7 L288.9,371.7L288.9,371.7l-1.7-3.9c-0.1-0.2,0-0.4,0.2-0.4c0,0,0,0,0,0c0.2-0.1,0.4,0,0.5,0.2c0,0,0,0,0,0l1.3,3l1.3-3 c0.1-0.2,0.3-0.3,0.5-0.2c0.2,0.1,0.3,0.3,0.2,0.5l0,0l-1.6,3.8v0.1l0,0l0,0l0,0h0l0,0h-0.1h-0.3l-0.1,0L288.9,371.7z"></path> <path class="st8" d="M292.2,371.4v-3.9c0-0.2,0.1-0.4,0.3-0.4c0,0,0,0,0,0h2.1c0.2,0,0.4,0.2,0.4,0.4l0,0c0,0.2-0.2,0.4-0.4,0.4 c0,0,0,0,0,0h-1.8v1.2h1.5c0.2,0,0.4,0.2,0.4,0.4c0,0.2-0.2,0.4-0.4,0.4c0,0,0,0,0,0h-1.5v1.2h1.8c0.2,0,0.4,0.2,0.4,0.4 c0,0.2-0.2,0.4-0.4,0.4h-2.1C292.3,371.8,292.2,371.6,292.2,371.4C292.2,371.4,292.2,371.4,292.2,371.4z"></path> <rect x="190.7" y="363.7" class="st5" width="43.7" height="11.9"></rect> <path class="st8" d="M198.9,371.4v-3.9c0-0.2,0.2-0.4,0.4-0.4c0,0,0,0,0,0h0.8c1.3,0,2.3,1,2.3,2.3c0,1.3-1,2.3-2.3,2.3h-0.8 C199,371.8,198.9,371.6,198.9,371.4z M199.6,371.1h0.4c0.9,0,1.6-0.7,1.6-1.6s-0.7-1.6-1.6-1.6h-0.4V371.1z"></path> <path class="st8" d="M203.3,367.6c0-0.2,0.2-0.4,0.4-0.4c0,0,0,0,0,0c0.2,0,0.4,0.2,0.4,0.4v3.9c0,0.2-0.2,0.4-0.4,0.4 c0,0,0,0,0,0c-0.2,0-0.4-0.2-0.4-0.3c0,0,0,0,0,0V367.6z"></path> <path class="st8" d="M205.1,370.7c0.1-0.1,0.3-0.2,0.5,0c0.4,0.3,0.8,0.5,1.3,0.5c0.3,0,0.6-0.1,0.8-0.2c0.2-0.1,0.3-0.3,0.3-0.5 c0-0.1,0-0.1-0.1-0.2c-0.1-0.1-0.1-0.1-0.2-0.2c-0.3-0.2-0.6-0.3-0.9-0.3l0,0c-0.3-0.1-0.5-0.1-0.8-0.3c-0.2-0.1-0.5-0.3-0.6-0.5 c-0.1-0.2-0.1-0.4-0.1-0.5c0-0.4,0.2-0.7,0.5-1c0.3-0.2,0.7-0.4,1.1-0.3c0.5,0,1,0.2,1.4,0.5c0.2,0.1,0.2,0.3,0.1,0.5c0,0,0,0,0,0 c-0.1,0.2-0.3,0.2-0.4,0.1c0,0,0,0,0,0c-0.3-0.2-0.7-0.4-1.1-0.4c-0.3,0-0.5,0.1-0.7,0.2c-0.1,0.1-0.2,0.2-0.3,0.4 c0,0.1,0,0.1,0,0.2c0,0.1,0.1,0.1,0.2,0.2c0.2,0.2,0.5,0.2,0.8,0.3l0,0c0.3,0.1,0.6,0.1,0.9,0.3c0.3,0.1,0.5,0.3,0.7,0.5 c0.1,0.2,0.2,0.4,0.2,0.6c0,0.4-0.2,0.8-0.6,1c-0.4,0.2-0.8,0.4-1.2,0.4c-0.6,0-1.2-0.3-1.7-0.7C205,371,205,370.8,205.1,370.7z"></path> <path class="st8" d="M209.4,369.4c0-1.3,1.1-2.4,2.4-2.4c0.5,0,1.1,0.2,1.5,0.5c0.2,0.1,0.2,0.4,0.1,0.5c-0.1,0.2-0.4,0.2-0.5,0.1 c-0.3-0.2-0.7-0.4-1.1-0.4c-0.4,0-0.9,0.2-1.2,0.5c-0.6,0.6-0.6,1.6,0,2.3c0.3,0.3,0.7,0.5,1.2,0.5c0.4,0,0.8-0.1,1.1-0.4 c0.2-0.1,0.4-0.1,0.5,0.1c0.1,0.2,0.1,0.4-0.1,0.5c-0.4,0.3-1,0.5-1.5,0.5C210.5,371.8,209.4,370.8,209.4,369.4z"></path> <path class="st8" d="M216.9,370.7h-1.6l-0.3,0.9c-0.1,0.1-0.2,0.2-0.3,0.2h-0.1c-0.2-0.1-0.3-0.3-0.2-0.5l1.4-3.9 c0.1-0.1,0.2-0.2,0.3-0.2c0.2,0,0.3,0.1,0.3,0.2l1.5,3.9c0.1,0.2,0,0.4-0.2,0.5h-0.1c-0.1,0-0.3-0.1-0.3-0.2L216.9,370.7z M216.6,370l-0.5-1.4l-0.5,1.4H216.6z"></path> <path class="st8" d="M221.8,371.3c0.1,0.2,0,0.4-0.2,0.5c0,0,0,0,0,0h-0.1l0,0c-0.1,0-0.2,0-0.3-0.1c-0.1-0.1-0.2-0.1-0.2-0.2 c-0.1-0.3-0.2-0.5-0.1-0.8c0-0.1,0-0.2-0.1-0.3c-0.1-0.1-0.1-0.1-0.2-0.2c-0.1-0.1-0.2-0.1-0.4-0.2h-0.8v1.4 c0,0.2-0.2,0.4-0.4,0.4c-0.2,0-0.4-0.2-0.4-0.4v-3.9c0-0.2,0.2-0.4,0.4-0.4c0,0,0,0,0,0h1.2c0.8,0,1.4,0.6,1.4,1.4 c0,0.4-0.2,0.8-0.5,1.1c0.1,0.1,0.2,0.1,0.2,0.2c0.1,0.2,0.2,0.5,0.2,0.7c0,0.1,0,0.3,0,0.4C221.7,371,221.8,371.1,221.8,371.3z M220.9,368.6c0-0.4-0.3-0.7-0.7-0.7h-0.8v1.3h0.8C220.6,369.3,220.9,369,220.9,368.6z"></path> <path class="st8" d="M222.9,371.4v-3.9c0-0.2,0.1-0.4,0.3-0.4c0,0,0,0,0,0h0.8c1.3,0,2.3,1,2.3,2.3s-1,2.3-2.3,2.3c0,0,0,0,0,0 h-0.8C223.1,371.8,222.9,371.7,222.9,371.4C222.9,371.4,222.9,371.4,222.9,371.4z M223.6,371.1h0.4c0.9,0,1.6-0.7,1.6-1.6 s-0.7-1.6-1.6-1.6h-0.4V371.1z"></path> </g> <g id="freepik--Character--inject-7"> <rect x="349.3" y="234.8" class="st11" width="56.6" height="11.7"></rect> <polygon class="st11" points="364.5,246.5 362.9,261.4 343.3,401.6 337.7,401.6 353.2,261.4 354.4,246.5 "></polygon> <polygon class="st11" points="417.4,401.6 411.8,401.6 392.3,261.4 390.7,246.5 400.7,246.5 402,261.4 "></polygon> <rect x="345.6" y="352.3" class="st11" width="62.4" height="3.5"></rect> <polygon class="st12" points="353.2,260.9 362.9,260.9 364.5,246.5 354.4,246.5 "></polygon> <polygon class="st12" points="402,260.9 392.3,260.9 390.7,246.5 400.7,246.5 "></polygon> <path class="st13" d="M317.8,370.2c2-0.3,51-23.6,52.3-25.7c0.5-0.8-2.5-8.1-6.3-16.9c-0.8-1.9-1.7-3.8-2.6-5.8 c-5.8-12.8-12.3-26.3-12.3-26.3l-32.8,15.5l13.2,25.8l2.9,5.6c0,0-14.8,17.3-15.9,19.8S315.8,370.4,317.8,370.2z"></path> <path class="st8" d="M317.8,370.2c2-0.3,51-23.6,52.3-25.7c0.6-1-3.9-11.6-8.9-22.7l-31.9,15.1l2.9,5.6c0,0-14.8,17.3-15.9,19.8 S315.8,370.4,317.8,370.2z"></path> <path class="st0" d="M317.8,370.2c2-0.3,51-23.6,52.3-25.7c0.5-0.8-2.5-8.1-6.3-16.9l-31.6,15c0,0-14.8,17.3-15.9,19.8 C315,364.8,315.8,370.4,317.8,370.2z"></path> <path class="st7" d="M317.6,367.9c8.1-4.1,41.2-20,49.6-23.4c0.1,0,0.1,0,0,0c-8,4.3-41.2,19.8-49.5,23.5 C317.5,368.1,317.4,368,317.6,367.9z"></path> <path class="st7" d="M318.5,359.1c1.8-0.9,4-1,5.9-0.3c1.7,0.6,3.1,1.9,3.9,3.5c0,0-0.1,0.1-0.1,0c-2.2-3.1-6.1-4.3-9.7-3.1 C318.5,359.2,318.4,359.1,318.5,359.1C318.5,359.1,318.5,359.1,318.5,359.1z"></path> <path class="st7" d="M329.3,344.9c3.2-1.6,7.6-2.3,10.9-0.5c0.1,0.1,0,0.2-0.1,0.2c-3.6-0.1-7.2,0.1-10.7,0.7 c-0.1,0-0.2-0.1-0.3-0.2C329.2,345.1,329.2,345,329.3,344.9z"></path> <path class="st7" d="M327.3,347.1c3.2-1.6,7.6-2.3,10.9-0.6c0.1,0.1,0,0.3-0.1,0.2c-3.6-0.1-7.2,0.1-10.7,0.8 c-0.1,0-0.2-0.1-0.3-0.2C327.1,347.3,327.2,347.2,327.3,347.1z"></path> <path class="st7" d="M325.2,349.3c3.2-1.6,7.6-2.3,10.9-0.6c0.1,0.1,0,0.3-0.1,0.2c-3.6-0.1-7.2,0.1-10.7,0.7 c-0.1,0-0.2-0.1-0.3-0.2C325,349.5,325.1,349.4,325.2,349.3z"></path> <path class="st7" d="M323.1,351.5c3.2-1.6,7.6-2.3,10.9-0.6c0.1,0.1,0,0.3-0.1,0.3c-3.6-0.1-7.2,0.1-10.7,0.7 c-0.1,0-0.2-0.1-0.2-0.2C323,351.6,323,351.5,323.1,351.5z"></path> <path class="st10" d="M339.5,266.5c0.3,9.3,24.4,59.1,24.4,59.1L329.3,341c0,0-28.4-55.1-26.1-75.8c2-17.5,33.5-38.3,53.2-59h29.3 c-10.9,23.2-43.6,51-46,59.2C339.5,265.7,339.5,266.1,339.5,266.5L339.5,266.5z"></path> <path class="st7" d="M329.5,334.2c5.6-2.7,4-2,9.7-4.7c2.8-1.3,16.8-7.8,19.6-8.6c0,0,0.1,0,0.1,0.1c0,0,0,0,0,0.1 c-2.4,1.6-16.6,7.8-19.4,9.1c-5.8,2.5-4.1,1.8-9.9,4.2c0,0-0.1,0-0.1,0S329.5,334.3,329.5,334.2 C329.5,334.2,329.5,334.2,329.5,334.2z"></path> <path class="st7" d="M378.4,211c-8.6,13.2-18.3,25.6-28.9,37.3c-2.6,2.8-5.3,5.6-7.9,8.3c-2.3,2.3-4.6,4.9-5.1,8.2 c-0.6,3.7,0.8,7.4,2,10.8c1.3,3.8,2.5,7.6,3.9,11.3c1.5,4,3,8.1,4.7,12c0.9,2,6.3,11.9,7.3,13.9c0.5,1,1,2,1.5,2.9 c0.3,0.5,2.1,3.8,2.4,4.3c0.1,0.2,0.3,0.4,0.1,0c-0.5-0.9-2.5-4.7-3-5.6c-1.8-3.7-7.9-15.4-9.4-19.2c-1.5-3.8-3-7.8-4.3-11.7 c-1.4-3.9-2.7-7.8-3.9-11.7c-0.7-2-0.9-4.1-0.8-6.3c0.3-2,1.1-4,2.4-5.6c2.3-3.1,5.3-5.7,8-8.5c5.4-5.9,10.6-11.9,15.6-18.2 C368.4,226.2,373.7,218.8,378.4,211C378.6,211,378.5,211,378.4,211z"></path> <path class="st13" d="M339.1,420.3c1.9,0.6,56.2-0.8,58.2-2.2c0.8-0.5,1-8.4,1.1-18c0-2.1,0-4.2,0-6.4c-0.1-14.1-0.5-29-0.5-29 l-36.3,0.9l1.5,29l0.3,6.4c0,0-20.5,9.8-22.6,11.6C338.8,414.3,337.2,419.8,339.1,420.3z"></path> <path class="st8" d="M339.1,420.3c1.9,0.6,56.2-0.8,58.2-2.2c0.9-0.6,1.1-12.2,1-24.4l-35.3,0.8l0.3,6.4c0,0-20.5,9.8-22.6,11.6 C338.8,414.2,337.2,419.8,339.1,420.3z"></path> <path class="st0" d="M339.1,420.3c1.9,0.6,56.2-0.8,58.2-2.2c0.8-0.5,1-8.4,1.1-18l-35,0.8c0,0-20.5,9.8-22.6,11.6 C338.8,414.2,337.2,419.8,339.1,420.3z"></path> <path class="st7" d="M339.8,418.1c9.1-0.5,45.8-1.5,54.8-1.2c0.1,0,0.1,0.1,0,0.1c-9,0.7-45.7,1.4-54.8,1.3 C339.7,418.3,339.7,418.2,339.8,418.1z"></path> <path class="st7" d="M344.3,410.5c2-0.1,4,0.6,5.5,2.1c1.3,1.3,2.1,3,2.2,4.8c0,0.1-0.1,0.1-0.1,0c-0.7-3.7-3.8-6.4-7.5-6.8 C344.2,410.6,344.2,410.6,344.3,410.5C344.2,410.5,344.2,410.5,344.3,410.5C344.3,410.5,344.3,410.5,344.3,410.5z"></path> <path class="st7" d="M359.9,402c3.6-0.1,7.9,1,10.2,3.9c0.1,0.1-0.1,0.2-0.2,0.2c-3.2-1.6-6.6-2.8-10.1-3.7 c-0.1,0-0.2-0.2-0.2-0.3C359.7,402,359.8,402,359.9,402z"></path> <path class="st7" d="M357.1,403.1c3.6-0.1,7.9,1,10.2,3.9c0.1,0.1-0.1,0.2-0.2,0.2c-3.2-1.6-6.6-2.8-10-3.7 c-0.1,0-0.2-0.2-0.2-0.3C357,403.2,357,403.1,357.1,403.1z"></path> <path class="st7" d="M354.3,404.3c3.6-0.1,7.9,1,10.2,3.9c0.1,0.1-0.1,0.2-0.2,0.2c-3.2-1.6-6.6-2.8-10.1-3.7 c-0.1,0-0.2-0.2-0.2-0.3C354.2,404.4,354.2,404.3,354.3,404.3z"></path> <path class="st7" d="M351.6,405.5c3.6-0.1,7.9,1,10.2,3.9c0.1,0.1-0.1,0.2-0.2,0.2c-3.2-1.6-6.6-2.8-10.1-3.7 c-0.1,0-0.2-0.2-0.2-0.3C351.4,405.5,351.5,405.5,351.6,405.5z"></path> <path class="st10" d="M359.9,400.3l41.4-0.5c0,0-9.8-154.2-6.9-159.5c4.5-8.2,7.7-19.3,1.4-34.2h-32.1c0,0,1.7,15.9,1.5,16.6 C355.5,265.7,359.9,400.3,359.9,400.3z"></path> <path class="st7" d="M361.8,393.1c8.2-0.6,34-0.8,36.7-0.4c0.1,0,0.1,0.1,0,0.1c-2.7,0.5-16.3,0.8-36.7,0.5 C361.8,393.3,361.8,393.3,361.8,393.1C361.8,393.2,361.8,393.2,361.8,393.1z"></path> <path class="st7" d="M363.2,208.2c0.3,4,0.2,11,2.5,11.1s1.9-8.4,2-10.3c0.1-1.8,0.7-1.5,0.7,0.6c0.2,5.6,0,10.6-3,10.4 c-3-0.2-3-9-2.9-11C362.6,207.9,363.1,206.9,363.2,208.2z"></path> <path class="st7" d="M365.6,219.5c0.1,1.4,0.1,2.9-0.1,4.3c0,0.1-0.5,0-0.5-0.1c-0.3-0.6-0.1-3.4-0.1-4.1c0-0.2,0.1-0.4,0.3-0.4 S365.5,219.3,365.6,219.5L365.6,219.5z"></path> <path class="st7" d="M364.6,224.5c-1,3.5-2,10.3-1.8,12.1c0,0.2,0.3,0.2,0.3,0c0.3-1.9,1.7-11,1.9-12S364.8,223.5,364.6,224.5z"></path> <path class="st7" d="M370.7,227.3c-0.5-0.5-1-0.9-1.5-1.3c-0.5-0.4-1-0.8-1.6-1.2c-1.1-0.8-2.3-1.5-3.4-2.2s-2.3-1.3-3.5-1.9 c-1.2-0.6-2.6-1.1-3.8-1.7c-0.1,0-0.1,0.1-0.1,0.1c1.2,0.7,2.3,1.5,3.4,2.2c1.1,0.7,2.3,1.5,3.4,2.2c1.2,0.7,2.2,1.4,3.4,2.1 c0.6,0.4,1.2,0.7,1.8,1.1c0.5,0.4,1.1,0.7,1.7,0.9C370.7,227.7,370.8,227.4,370.7,227.3z"></path> <path class="st7" d="M394.1,364c-0.5-5.7-1-11.5-1.4-17.2c-0.9-11.5-1.6-23-2.1-34.5c-0.5-11.5-0.9-23-1-34.6 c-0.1-5.8-0.1-11.5-0.1-17.3c0-5.7,0-13.3,0.3-19.1c0.2-2.9,5.3-5.1,6.3-13.6c0.7-4.8,0.3-9.7-1.1-14.4c-0.4-1.1-0.8-2.2-1.3-3.3 c0-0.1-0.1,0-0.1,0.1c2,4.7,2.9,9.9,2.5,15.1c-0.2,2.6-0.7,5.2-1.6,7.6c-1.4,3.4-4.8,6.2-4.9,8c-0.3,2.7-0.3,5-0.3,7.8 c0,2.8-0.1,5.7-0.1,8.5c0,5.8,0,11.5,0,17.3c0.1,11.5,0.4,22.9,0.9,34.4s1.1,22.9,2,34.4c0.8,11.4,1.9,32.1,3.1,43.6 c0.1,1.3,0.3,2.6,0.5,3.9c0,0.1,0.3,0.1,0.3,0C395.4,384.8,394.7,369.8,394.1,364z"></path> <path class="st10" d="M324.6,132.9l7,22.2c0.2,0.4,0.1,0.9-0.2,1.1c-0.1,0.1-0.3,0.1-0.4,0.1l-11.6,0.7c-0.7,0-1.4-0.4-1.7-1.1 l-7-22.2c-0.3-0.7,0-1.2,0.7-1.2l11.6-0.7C323.7,131.8,324.3,132.3,324.6,132.9z"></path> <path class="st9" d="M323.2,133l7,22.2c0.2,0.4,0.1,0.9-0.3,1.1c-0.1,0.1-0.3,0.1-0.4,0.1l-11.6,0.7c-0.7,0-1.4-0.4-1.7-1.1 l-6.9-22.2c-0.3-0.6,0-1.2,0.7-1.2l11.6-0.7C322.3,131.9,322.9,132.3,323.2,133z"></path> <path class="st7" d="M320.1,134.2c0,0.5,0.5,0.9,1.1,0.9c0.5,0,0.9-0.5,0.9-1.1c0-0.5-0.5-0.9-1.1-0.9 C320.5,133.2,320.1,133.6,320.1,134.2z"></path> <path class="st13" d="M364,164.8c-5.6,14.4-19.2,33.5-25.3,34c-2.9,0.2-8.1,1.3-12.1-1.8c-8.8-6.7-16.6-20.2-18.6-28.1 c-0.7-2.8,12.7-9.8,14.9-7.7c5.1,5.1,11.4,15.3,12.2,15.2c3.1-0.4,14.6-11.4,22.7-19.1C367.6,148,366.2,159.1,364,164.8z"></path> <path class="st13" d="M306.7,154.4c1.1-5.8,2.3-7.2,0.5-12.6c-1.1-3.5,0.7-5.8,3.4-3.1c4.5,4.5,4.7,12.3,4,15L306.7,154.4z"></path> <path class="st13" d="M308.9,171.4c0,0-3.1-7.8-2.6-14.2c0.4-4.4,2.2-13.8,14.1-19.6c2.8-1.4,7.8-1.3,4,2.6 c-2.7,2.8-5.2,3.7-6.5,5.6c0,0,6.3,0.8,7.5,3.7c1.1,2.5,2,5.1,2.7,7.7c-0.5,0.2-0.9,0.5-1.4,0.6c0,0,1.1,2.7-0.7,6.8L308.9,171.4z "></path> <path class="st13" d="M307.3,153.1c1.7-1.6,5.2-5,9.1-6.7c4.3-1.9,13.1-4.4,14.5-1.2c1,2.3-2.3,3.6-2.3,3.6s3.9-0.3,4.3,2 c0.4,2.1-2.2,2.9-2.2,2.9s2.4,0.2,2.4,2.3c0,2.5-5,1.6-7.2,4.2C325.5,160.8,307.3,153.1,307.3,153.1z"></path> <path class="st7" d="M317.7,151.3c3.3-1.9,7.1-2.8,10.9-2.6c0.1,0,0.1,0.1,0,0.1C324.9,149.2,321.2,150,317.7,151.3 C317.7,151.3,317.7,151.3,317.7,151.3z"></path> <path class="st7" d="M319.8,155.6c3.4-1.6,7.2-2.3,11-1.9c0.1,0,0.1,0.1,0,0.1C327.1,153.9,323.4,154.6,319.8,155.6 C319.8,155.6,319.7,155.6,319.8,155.6z"></path> <path class="st0" d="M308.3,174.8c0,0,12.8,21.6,19.5,23.7c6.7,2.1,10.6,1.3,13,0.8c0.9-0.3,1.8-0.8,2.5-1.4 c6.3-5.2,17-22.7,21.2-32.4c3.1-7.3,2.3-13.7-3-11.2c-1.8,0.9-3.4,2.1-4.8,3.6c-9.5,9.1-20.6,17.9-21.2,17.6c-0.6-0.3-7-9-7-9 L308.3,174.8z"></path> <path class="st7" d="M311.4,178.7c0.7-0.5,7.6-3.7,9.1-4.4c1.5-0.7,7.7-3.5,9.3-4c0,0,0.1,0,0.1,0s0,0.1,0,0.1 c-1.5,0.9-7.7,3.7-9.2,4.4c-1.5,0.7-8.4,3.8-9.2,4C311.3,178.8,311.3,178.7,311.4,178.7z"></path> <path class="st5" d="M340.5,172c4.6,4,9.6,7.5,14.8,10.6c1.5-2.4,2.9-4.8,4.3-7.1c-4.5-2.5-8.7-5.5-12.7-8.7 C344.5,168.8,342.3,170.6,340.5,172z"></path> <path class="st14" d="M326.5,197.9c0.4,0.3,0.9,0.5,1.4,0.7c6.7,2.1,10.6,1.3,13.1,0.8c0.9-0.3,1.8-0.8,2.5-1.4 c6.3-5.2,17-22.7,21.2-32.4c1.6-3.8,2.2-7.3,1.6-9.4C356,166.6,336.9,186.9,326.5,197.9z"></path> <path class="st0" d="M350.2,210.9c1.2,1,51.1,3.4,51.4,3.1s-11.7-53.8-29.8-61c-2.9-1.1-10.5-0.7-11.3,0.4 C353.4,162.3,349.5,210.3,350.2,210.9z"></path> <path class="st13" d="M363.5,160.8c2.8,0.2,6.8-4.6,8.2-8.2c0.1-0.3-0.6-2.6-1.4-5.5c-0.4-1.8-0.9-3.8-1.2-5.6l-11.1,4.5 c1,2.2,1.7,4.5,2.2,6.9c0,0.3,0.1,0.5,0,0.8c0,0,0,0.1,0,0.1C360.2,155.2,360.8,160.5,363.5,160.8z"></path> <path class="st7" d="M358,145.9c1,2.2,1.7,4.5,2.2,6.9c0,0.3,0,0.5,0,0.8c0,0,0,0.1,0,0.1c0.4,0,0.8,0,1.2-0.1 c6.7-1.2,7.3-9.8,7.4-12.1L358,145.9z"></path> <path class="st13" d="M370.5,128.3c1.2,4.2-1.1,16.1-4.1,18.7c-4.3,3.8-11.3,4.1-14.5-1.1c-3.1-5,0.2-20.5,3.5-22.9 C360.2,119.5,368.7,122.2,370.5,128.3z"></path> <path class="st7" d="M371.1,139.7c-3.3-0.2-4.5-4.3-3.4-7.3c0,0-8.9,0.1-8.4-7c-1.5,1.8-3.8,2.7-6,2.4l-1.3,2.4 c-0.9-0.4-1.5-3,0.9-4.7c0.4-2.1,1.6-4,3.4-5.2c1.6-1,3.6-1.1,5.2-0.1c1.7-0.9,3.6-1.1,5.4-0.6c1.9,0.6,3.4,2,4.1,3.9 c0,0,4.2,1.4,4.6,4.5c0.2,1.8-0.3,3.6-1.5,5c0,0,0.9,1.3,0.1,3.9C373.6,138.5,372.1,139.7,371.1,139.7z"></path> <path class="st7" d="M359.6,124.8c-0.1,0.6-0.2,1.1-0.2,1.7c0,0.6,0,1.1,0.1,1.7c0.2,1.1,0.8,2.1,1.7,2.8c0.9,0.6,2,1.1,3.1,1.2 c0.6,0,1.1,0.1,1.7,0.2c0.6,0,1.2,0,1.7,0c-0.6,0.1-1.2,0.1-1.7,0.2c-0.6,0-1.2,0-1.7-0.1c-1.2-0.1-2.3-0.5-3.3-1.2 c-1-0.7-1.6-1.8-1.8-3C359,127,359.2,125.9,359.6,124.8z"></path> <path class="st7" d="M371.1,123.5c1.1,0.1,2.2,0.5,3.1,1.1c1,0.6,1.8,1.5,2.1,2.6c0.2,0.5,0.2,1.1,0.2,1.7c0,0.6-0.1,1.1-0.3,1.7 c-0.4,1.1-1.1,2-2.1,2.5c0.9-0.6,1.5-1.6,1.8-2.6c0.3-1,0.3-2.1,0-3.1c-0.2-0.5-0.4-1-0.7-1.4c-0.4-0.4-0.8-0.7-1.2-1 C373.1,124.2,372.1,123.8,371.1,123.5z"></path> <path class="st7" d="M361.6,120.2c-0.8-0.4-1.6-0.7-2.5-0.8c-0.8-0.1-1.7-0.1-2.5,0.2c-0.8,0.3-1.5,0.9-2,1.5 c-0.6,0.7-1,1.4-1.3,2.3c0.2-0.9,0.6-1.7,1.1-2.4c0.5-0.8,1.3-1.4,2.1-1.8c0.9-0.3,1.8-0.4,2.7-0.2 C360,119.3,360.8,119.6,361.6,120.2z"></path> <path class="st7" d="M354.6,128.3c1-0.2,1.9-0.6,2.8-1.1c0.4-0.3,0.8-0.6,1.2-0.9c0.4-0.4,0.7-0.8,0.9-1.2c-0.1,0.5-0.3,1-0.7,1.4 c-0.3,0.4-0.7,0.8-1.2,1.1c-0.5,0.3-0.9,0.5-1.5,0.6C355.7,128.3,355.1,128.3,354.6,128.3z"></path> <path class="st7" d="M358.4,135.6C358.4,135.6,358.5,135.7,358.4,135.6c-0.2,0.9-0.2,1.8,0.4,2.2c0,0,0,0,0,0 C358,137.6,358.1,136.3,358.4,135.6z"></path> <path class="st7" d="M359.3,134.9c1.3,0.2,0.8,2.8-0.4,2.6C357.8,137.4,358.2,134.8,359.3,134.9z"></path> <path class="st7" d="M353.7,134.8C353.7,134.8,353.6,134.8,353.7,134.8c-0.2,0.9-0.5,1.8-1.2,1.9v0 C353.4,136.8,353.7,135.6,353.7,134.8z"></path> <path class="st7" d="M353.1,133.8c-1.3-0.3-1.8,2.2-0.6,2.5C353.7,136.7,354.2,134.1,353.1,133.8z"></path> <path class="st7" d="M360.5,132.9c-0.3-0.2-0.6-0.3-0.9-0.5c-0.4-0.1-0.7-0.4-0.9-0.7c-0.1-0.2,0-0.5,0.2-0.6 c0.4-0.2,1-0.2,1.4,0.1c0.5,0.2,0.8,0.6,1,1.1c0.1,0.3-0.1,0.6-0.4,0.7C360.8,133,360.7,133,360.5,132.9z"></path> <path class="st7" d="M352.3,132.9c0.4,0,0.7,0,1.1-0.1c0.4,0,0.8-0.1,1.1-0.3c0.2-0.2,0.2-0.5,0.1-0.7c-0.3-0.4-0.8-0.6-1.3-0.5 c-0.5,0-1,0.2-1.4,0.5c-0.2,0.2-0.2,0.6,0,0.8C352,132.9,352.1,132.9,352.3,132.9z"></path> <path class="st7" d="M358,142.9c-0.2,0.2-0.4,0.5-0.7,0.5c-0.3,0-0.6-0.1-0.9-0.2c0,0-0.1,0,0,0c0.2,0.3,0.6,0.5,1,0.4 C357.8,143.5,358.1,143.2,358,142.9C358.1,142.8,358.1,142.8,358,142.9z"></path> <path class="st7" d="M357.4,140.4c-0.5,0.6-1.3,0.9-2,0.9c-0.3,0-0.7,0-1-0.1c-0.1,0-0.2-0.1-0.4-0.1c-0.1,0-0.1-0.1-0.1-0.2l0,0 l0.4-1.7c-0.2,0.1-1.5,0.4-1.4,0.1c0.6-2.8,1.4-5.5,2.5-8.1c0,0,0.1,0,0.1,0c0,0,0,0,0,0.1c-0.5,2.6-1.5,5-2,7.6 c0.4-0.1,0.9-0.2,1.4-0.2c0,0-0.5,2.1-0.5,2.1C355.4,141,356.5,140.8,357.4,140.4C357.4,140.3,357.5,140.3,357.4,140.4z"></path> <path class="st0" d="M350.7,138.9c-1.4-0.2-2.3-2.2-2-4.4s1.8-3.8,3.3-3.5c1.5,0.2,2.3,2.2,2,4.4 C353.7,137.6,352.2,139.2,350.7,138.9z M351.9,131.5c-1.2-0.2-2.3,1.2-2.7,3.1s0.4,3.6,1.5,3.8c1.2,0.2,2.3-1.2,2.7-3.1 C353.8,133.4,353.1,131.7,351.9,131.5L351.9,131.5z"></path> <path class="st0" d="M358.4,140.4c-2.2-0.2-3.8-2.2-3.6-4.4c0.2-2.2,2.2-3.8,4.4-3.6c2.2,0.2,3.8,2.2,3.6,4.4c0,0.1,0,0.2,0,0.3 C362.5,139.1,360.5,140.7,358.4,140.4z M359.6,133c-1.9-0.5-3.8,0.7-4.2,2.6s0.7,3.8,2.6,4.2c1.9,0.5,3.8-0.7,4.2-2.6 c0-0.1,0-0.2,0.1-0.3C362.6,135.1,361.4,133.3,359.6,133z"></path> <path class="st0" d="M355.6,135.4c-1.2-0.8-1.9-0.4-1.9-0.4l-0.2-0.4c0,0,0.9-0.6,2.3,0.3L355.6,135.4z"></path> <path class="st0" d="M362.4,136.5V136c0.3,0,7.5,0.5,8.3,0.7c0.8,0.2,2.4,1.7,2.5,1.9l-0.3,0.3c-0.7-0.7-1.4-1.3-2.3-1.7l0,0 C370.1,137.1,365,136.7,362.4,136.5z"></path> <path class="st13" d="M367.3,138.7c0,0,2.8-3.8,4.5-2.8c1.7,1-0.5,6.6-2.6,7.3c-1.1,0.4-2.3-0.1-2.7-1.1c0,0,0,0,0-0.1 L367.3,138.7z"></path> <path class="st7" d="M371.2,137.5C371.2,137.5,371.2,137.5,371.2,137.5c-1.5,0.6-2.3,1.9-2.8,3.3c0.3-0.5,1-0.7,1.6-0.4 c0.1,0,0.1,0.1,0.1,0.1c0,0,0,0.1,0,0.1c-0.5-0.2-1.1,0-1.4,0.4c-0.3,0.4-0.5,0.7-0.7,1.1c-0.1,0.1-0.3,0-0.3-0.1l0,0 C367.7,140.2,369.2,137.7,371.2,137.5z"></path> <path class="st7" d="M359.5,157.3L359.5,157.3c-0.1,2.3-0.3,7.6,3.2,7.3c1.4-0.2,2.8-0.9,3.9-1.9c1.1-0.9,2.2-1.9,3.1-3.1 c1.1-1.2,2-2.6,2.8-4c0-0.1,0.1,0,0.1,0.1c-0.9,1.4-1.6,2.9-2.6,4.2c-0.9,1.3-2.1,2.4-3.3,3.4c-1.1,1-2.5,1.7-4,1.9 c-1.4,0.1-2.6-0.9-2.9-2.2C359.3,161.1,359.2,159.2,359.5,157.3z"></path> <path class="st5" d="M360.3,153.5l2.8,6.8l8.4-8.7l2.4,2.7c0,0-8.2,13.7-8.2,13.1l-2.8-5.8l-4,4.1l0.3-10.2L360.3,153.5z"></path> <path class="st7" d="M358.7,160.6c0.1-1.7,0.2-3.4,0.3-5.1c0-0.1,0.1-0.1,0.1,0c0.3,1.6-0.1,8.1,0,9.6l0,0 c0.2-0.2,3.7-3.6,3.8-3.6c0.6,0.9,2.7,5.2,2.8,5.6c1.3-2.2,6.8-10.8,8.3-12.8c0,0,0.1,0,0.1,0c0,0,0,0.1,0,0.1 c-1.1,2.3-8.2,13.6-8.3,13.6c-1.1-2-2.1-4.1-3-6.2c-0.6,0.8-4.2,4.6-4.2,4.4C358.5,164.4,358.5,162.5,358.7,160.6z"></path> <path class="st13" d="M374.7,164.4c4.1,13.9,13.6,29.6,19.8,33.9c3.7,2.6,15.2,2,15.3-5.5s-25.7-30.1-29.7-34.1 C376,154.5,371,151.8,374.7,164.4z"></path> <path class="st0" d="M374.1,164.8c4.1,13.9,14.3,29.2,20.4,33.5c3.7,2.6,15.2,2,15.3-5.5s-25.2-30.8-29.4-34.6 C375.7,153.7,370.4,152.2,374.1,164.8z"></path> <path class="st5" d="M378.2,175.3c1.2,2.5,2.5,4.9,3.8,7.3c4.5-3.2,8.8-6.7,12.7-10.5c-2-2.1-4-4-5.9-5.9 C385.5,169.5,381.9,172.5,378.2,175.3z"></path> <path class="st7" d="M404,198.8c-1.5,0.3-3.1,0.4-4.7,0.3c-1.5-0.2-3-0.6-4.4-1.3c-2.9-1.5-4.9-4-6.8-6.7c-2-2.8-3.9-5.8-5.6-8.8 c-1.8-3-3.4-6.1-5-9.2c-0.8-1.6-1.6-3.1-2.3-4.7c-0.8-1.6-1.5-3.1-2.2-4.7c-0.2-0.4-0.3-0.8-0.5-1.2c0,0-0.1,0-0.1,0 c0.6,1.7,1.2,3.3,1.9,5c0.1,0.2,0.2,0.4,0.3,0.6c-0.7-1.2-1.3-2.4-2.1-3.7c0-0.1-0.1,0-0.1,0.1c0.6,1.3,1.3,2.5,2,3.7 c0.3,0.6,0.7,1.2,1,1.8c0.3,0.8,0.7,1.5,1,2.3c1.5,3.2,3.2,6.4,5,9.4c1.8,3.1,3.7,6.1,5.7,9c1.9,2.7,3.9,5.5,6.7,7.2 c2.7,1.6,6,2.1,9.1,1.3c0.4-0.1,0.7-0.2,1.1-0.4C404.1,198.9,404.1,198.8,404,198.8C404.1,198.8,404,198.8,404,198.8z"></path> <path class="st13" d="M394.6,144c-2.3-4.8-6-11.5-8.3-12.4c-2.3-0.9-11-3.9-13.2-4c-2.2-0.1-9.9,2.7-11.3,4.2 c-1.1,1.2,1,3.7,5.5,3.1c4.2-0.6,5.1-0.9,6.3-0.8c1.2,0.1,5,2.8,4.8,4.6c-0.1,1-2.4,3-4.4,2.8c-1.9-0.2-3.1-2-5.5-2.9 c-2.4-0.9-5.7,0.3-5.6,1.3c0.1,1,1.3,1,4,3.6c1.7,1.6,3.1,5,6.7,7.6c1.9,1.6,3.7,3.3,5.4,5.2L394.6,144z"></path> <path class="st13" d="M386.2,131.6c-2.4-2-8-5.3-12.6-5.5c-3.1-0.2-11.1,7.5-10.3,9.2c0.9,1.7,2.5,1.2,4.8,0.2 c0.8-0.4,5-3.5,6.1-2.8c1.6,1,4.6,5.4,4.6,5.4L386.2,131.6z"></path> <path class="st7" d="M363.3,134.5c0.6-2.3,2.8-4.2,5.1-5.8c0,0,0.1,0,0,0C367.9,129.2,364.3,132.4,363.3,134.5 C363.4,134.6,363.3,134.6,363.3,134.5z"></path> <path class="st13" d="M386.2,131.6c-2.4-2-8-5.3-12.6-5.5c-3.1-0.2-8.7,8.2-7.9,9.9c0.9,1.7,3.2,1.1,5.5-0.6 c0.7-0.6,2.9-3.4,4-2.7c1.6,1,5.5,3.6,5.5,3.6L386.2,131.6z"></path> <path class="st7" d="M378.5,134.7c-0.4-0.3-0.5-0.4-0.9-0.7s-0.8-0.6-1.2-0.9c-0.3-0.3-0.7-0.5-1.1-0.6c-0.4-0.1-0.8,0-1.2,0.1 c-0.8,0.5-1.6,1.1-2.1,1.9c-1,1.1-2.2,2-3.6,2.4c-0.4,0.1-0.8,0.1-1.2,0c-0.3,0-0.6-0.1-0.8-0.3c-0.9-0.8-0.5-2.2,0-3.2 c1-1.9,2.4-3.6,4-5.1c0.4-0.4,0.8-0.7,1.2-1.1c0.4-0.4,0.9-0.8,1.5-1c0.9-0.3,2.8,0.2,3.3,0.3c0,0,0-0.1,0-0.1 c-0.7-0.2-2.5-0.9-4-0.3c-0.5,0.3-1,0.6-1.4,1c-0.5,0.4-0.9,0.8-1.3,1.2c-0.8,0.8-1.6,1.7-2.3,2.6c-0.7,0.9-1.3,1.9-1.6,3 c-0.3,1,0,2,0.7,2.8c0.6,0.4,1.3,0.5,2,0.4c0.4-0.1,0.8-0.2,1.2-0.4c0.8-0.5,1.6-1,2.3-1.6c0.7-0.6,1.3-1.4,2-1.9 c0.4-0.3,0.8-0.4,1.3-0.3c0.4,0.1,0.8,0.3,1.2,0.5c0.7,0.4,1.4,0.8,2.1,1.3C378.5,134.9,378.6,134.8,378.5,134.7z"></path> <path class="st13" d="M388.1,133.5c-1-1-3.6-5.6-5-6.9c-1.5-1.2-7.5-5.1-9.5-4.2c-2.5,1.1,1.7,4.9,3.6,6.4c2,1.5,2.8,4.8,2.8,4.8 L388.1,133.5z"></path> <path class="st7" d="M374.4,126.2c0.7,0.5,1.3,1,1.9,1.5c0.6,0.5,1.2,1,1.8,1.5c0.5,0.6,0.9,1.2,1.2,2c0.1,0.3,0.3,0.7,0.4,1.1 c0.1,0.4,0.2,0.8,0.4,1.2c0,0,0,0.1-0.1,0c-0.3-0.7-0.6-1.4-1-2c-0.4-0.7-0.8-1.3-1.3-1.9C376.6,128.3,375.3,127.4,374.4,126.2 C374.3,126.2,374.3,126.2,374.4,126.2C374.4,126.2,374.4,126.2,374.4,126.2z"></path> <path class="st7" d="M374.9,141.4c-0.9,0.1-1.7-0.1-2.4-0.7c-0.6-0.4-1.3-0.9-1.9-1.3c-0.6-0.4-1.3-0.8-2-1.1 c-0.8-0.2-1.7-0.3-2.6-0.3c-0.8,0-1.7,0.1-2.4,0.5c-0.6,0.3-1.2,1-0.8,1.8c0.2,0.3,0.5,0.6,0.8,0.9c0.3,0.2,0.6,0.5,0.9,0.7 c0.6,0.4,1.3,0.8,1.9,1.2c0.8,0.7,1.4,1.5,2,2.3c0.2,0.3,1.7,2.3,2.2,3c0.5,0.6,1,1.1,1.5,1.6c0.5,0.5,1.1,0.9,1.7,1.3 c0.7,0.4,1.3,0.9,1.8,1.4c0,0,0.1,0,0,0c-0.8-1.1-1.9-2-3-2.6c-1.4-0.9-4.8-6-5.4-6.7c-1-1.1-2.4-1.6-3.5-2.6 c-0.3-0.2-0.6-0.5-0.7-0.9c0-0.4,0.3-0.7,0.6-0.8c0.7-0.4,1.6-0.5,2.4-0.4c0.8,0,1.7,0.1,2.5,0.3c0.7,0.2,1.4,0.5,2,0.9 c0.7,0.4,1.4,0.9,2.2,1.3C373.3,141.4,374.2,141.6,374.9,141.4C375,141.4,375,141.3,374.9,141.4z"></path> <path class="st7" d="M363,131.1c0.5-0.3,1.1-0.6,1.6-0.9l0,0c-0.6,0.3-1.3,0.6-2,0.9c-0.5,0.2-1,0.6-1.2,1.1 c-0.1,0.5,0,1.1,0.4,1.5c0.4,0.4,1,0.7,1.5,0.9c0,0,0,0,0,0c-0.8-0.4-2.1-1.3-1.5-2.4C362.1,131.6,362.5,131.3,363,131.1z"></path> <path class="st7" d="M366,136.3c-0.6,0.1-1.3,0-1.9-0.2c-0.2-0.1-0.5-0.3-0.6-0.6c-0.1-0.1-0.1-0.3-0.1-0.4 c-0.1-0.1-0.1-0.3,0-0.5c0,0,0-0.1,0,0c0,0.1-0.1,0.2-0.1,0.3c0,0.1,0,0.1,0,0.2c0,0.1,0,0.3,0.1,0.4c0.1,0.3,0.3,0.6,0.6,0.7 C364.5,136.6,365.3,136.6,366,136.3C365.9,136.3,366,136.3,366,136.3z"></path> <path class="st13" d="M378,154.7c1.9,5.6,15.5,36.5,19.1,40.6c3.6,4.1,11.7,4.5,13.5-3.3c1.8-7.8-13.6-43.1-16.4-48.7 C392.6,140.1,377.3,152.7,378,154.7z"></path> <path class="st0" d="M375.6,160.1l21.5-14.2c0,0,12.7,29.8,13.9,43.7c0.6,7.6-8.2,13.8-16,3.9 C387.2,183.6,375.6,160.1,375.6,160.1z"></path> <path class="st7" d="M379,164.1c3.2-1.8,15.8-9.7,18.4-11.6c0.2-0.1,0.1-0.3-0.1-0.2c-9.7,5.2-15.4,9.7-18.4,11.6 C378.9,164,379,164.1,379,164.1z"></path> <path class="st7" d="M387.6,181.9c-2.7-4.5-5.4-9.1-7.8-13.7c-0.7-1.3-1.3-2.6-2-4c-0.6-1.3-1.3-2.5-1.8-3.9 c0.5-0.4,2.5-1.9,2.8-2.1c0,0,0-0.1,0-0.1c0,0,0,0-0.1,0c-1.1,0.7-2.2,1.4-3.2,2.1c-0.1,0.1,1.1,2.6,1.7,3.8s1.1,2.4,1.7,3.6 c1.2,2.4,2.4,4.7,3.7,7c1.4,2.5,2.8,4.9,4.3,7.3C388.1,184,391.1,187.7,387.6,181.9z"></path> </g> </g> </svg>