<svg xmlns="http://www.w3.org/2000/svg" xmlns:xlink="http://www.w3.org/1999/xlink" id="Layer_1" x="0px" y="0px" viewBox="0 0 141.7 141.7" style="enable-background:new 0 0 141.7 141.7;" xml:space="preserve"> <style type="text/css"> .st0{fill:#B09477;} .st1{fill-rule:evenodd;clip-rule:evenodd;fill:#002B40;} .st2{fill:#002B40;} .st3{fill-rule:evenodd;clip-rule:evenodd;fill:#B09477;} .st4{fill:none;} </style> <g> <path class="st2" d="M66.4,94.6h4.3c0.5,0,0.8-0.4,0.8-0.8v-4.3c4.5-0.7,8.3-4.3,8.8-8.9c0.6-6.1-4.1-11.2-10.1-11.2H67 c-2.5,0-4.5-2.1-4.2-4.7c0.2-2.2,2.2-3.8,4.4-3.8h3.8c1.4,0,2.6,1,2.9,2.3c0.1,0.4,0.5,0.6,0.8,0.6H79c0.5,0,0.9-0.4,0.8-0.9 c-0.5-4.3-4-7.7-8.3-7.9v-4.2c0-0.5-0.4-0.8-0.8-0.8h-4.2c-0.5,0-0.8,0.4-0.8,0.8V55c-5.3,0.7-9.3,5.5-8.8,11.1 c0.6,5.3,5.3,9.1,10.6,9.1h2.8c2.5,0,4.5,2.1,4.2,4.7c-0.2,2.2-2.2,3.8-4.4,3.8h-3.9c-1.4,0-2.6-1-2.9-2.3 c-0.1-0.4-0.5-0.6-0.8-0.6h-4.3c-0.5,0-0.9,0.4-0.8,0.9c0.5,4.3,4,7.7,8.3,7.9v4.2C65.6,94.3,66,94.6,66.4,94.6z"></path> <path class="st2" d="M107.4,72.2c0,2.7-0.2,5.3-0.7,7.8c-1.8-0.6-3.8-0.8-5.7-0.8c-0.4,0-0.7,0-1.1,0.1c0.5-2.3,0.7-4.6,0.7-7.1 c0-17.7-14.4-32.1-32.1-32.1S36.5,54.5,36.5,72.2s14.4,32.1,32.1,32.1c4.6,0,8.9-1,12.8-2.8c0.3,2.4,1,4.6,2,6.5 c-4.5,1.9-9.6,2.9-14.8,2.9c-21.4,0-38.8-17.4-38.8-38.8s17.5-38.8,38.9-38.8C90,33.4,107.4,50.9,107.4,72.2z"></path> <path class="st0" d="M101,82.7c-9,0-16.4,7.3-16.4,16.3s7.3,16.3,16.3,16.3c9,0,16.3-7.3,16.3-16.3C117.3,89.9,110,82.7,101,82.7z M108.1,95.8l-7.5,8.8c-0.3,0.4-0.7,0.6-1.2,0.6c-0.5,0-0.9-0.2-1.2-0.6L94,99.6c-0.6-0.6-0.5-1.7,0.2-2.3c0.6-0.6,1.7-0.5,2.3,0.2 l3,3.6l6.2-7.4c0.6-0.6,1.6-0.7,2.3-0.2C108.6,94.2,108.6,95.2,108.1,95.8z"></path> </g> </svg>