<svg xmlns="http://www.w3.org/2000/svg" xmlns:xlink="http://www.w3.org/1999/xlink" id="Layer_1" x="0px" y="0px" viewBox="0 0 141.7 141.7" style="enable-background:new 0 0 141.7 141.7;" xml:space="preserve"> <style type="text/css"> .st0{fill:#B09477;} .st1{fill-rule:evenodd;clip-rule:evenodd;fill:#002B40;} .st2{fill:#002B40;} .st3{fill-rule:evenodd;clip-rule:evenodd;fill:#B09477;} .st4{fill:none;} </style> <path class="st3" d="M103.1,47.4L71.8,31.8c-0.6-0.3-1.3-0.3-1.9,0L38.6,47.4c-2.9,1.4-4,4.9-2.6,7.8c1.3,2.5,4.2,3.7,6.8,3v10.3 c0,0,0.4-0.2,0.9,0c0.4,0.2,2.9,1.3,3.2,1.4c0,0,0,0,0,0V56.2l23.8-11.9l23.8,11.9v15h0.1c0,0,2.8-1.7,4.1-1.4V58.2 c2.6,0.8,5.5-0.4,6.8-3C107.1,52.4,105.9,48.9,103.1,47.4z M101.9,53.3c-0.4,0.8-1.4,1.1-2.2,0.7l-28-14c-0.6-0.3-1.3-0.3-1.9,0 l-28,14c-0.8,0.4-1.8,0.1-2.2-0.7c-0.4-0.8-0.1-1.8,0.7-2.2L70.9,36l30.4,15.2C102,51.6,102.3,52.5,101.9,53.3z"></path> <path class="st3" d="M72.9,64.6v14.6c-1.5-0.9-4.2-0.8-4.2-0.8V66.7h-12v7.6c-1-2.1-4.2-2.6-4.2-2.6v-7.1c0-1.2,0.9-2.1,2.1-2.1 h16.2C72,62.5,72.9,63.4,72.9,64.6z"></path> <path class="st3" d="M87.1,62.5H79c-1.2,0-2.1,0.9-2.1,2.1v12.2c0,1.1,0.9,2.1,2.1,2.1h1.8c0,0,0,0,0,0c0.2-0.1,2-0.9,3.9-2.5 c0.4-0.3,0.8-0.7,1.2-1.1c0.4-0.4,0.8-0.8,1.2-1.2c0.1-0.1,0.2-0.2,0.3-0.3c0.1-0.1,0.3-0.2,0.4-0.3c0.1,0,0.1-0.1,0.2-0.1 c0.3-0.2,0.7-0.4,1.1-0.4v-8.3C89.1,63.4,88.2,62.5,87.1,62.5z M85,74.6H81v-8H85V74.6z"></path> <path class="st1" d="M107.4,83.7l-7.5-13.1c-0.2-0.4-0.6-0.7-1-0.9c-1.3-0.3-4.1,1.4-4.1,1.4l-3.5,2.1c-0.7-0.2-1.4-0.4-2.1-0.3 c-0.4,0-0.8,0.2-1.1,0.4c-0.1,0-0.1,0.1-0.2,0.1c-0.1,0.1-0.3,0.2-0.4,0.3c-0.1,0.1-0.2,0.2-0.3,0.3c-0.4,0.4-0.8,0.8-1.2,1.2 c-0.4,0.4-0.8,0.8-1.2,1.1c-1.9,1.5-3.7,2.4-3.9,2.5c0,0,0,0,0,0c-1.9,0.6-4,0.9-6,0.8l-0.9,0l-0.7-0.4c-0.1,0-0.1-0.1-0.2-0.1 c-1.5-0.9-4.2-0.8-4.2-0.8l-0.1,0l-0.3,0c-0.3,0-0.5,0.1-0.7,0.1l-0.9,0c-3.3,0.1-6.5-0.7-9.4-2.2c-0.1-0.7-0.3-1.4-0.7-2 c-1-2.1-4.2-2.6-4.2-2.6c-0.7,0-1.4,0.1-2.1,0.3L47,70c0,0,0,0,0,0c-0.3-0.2-2.8-1.2-3.2-1.4c-0.4-0.2-0.9,0-0.9,0 c-0.4,0.2-0.8,0.5-1,0.9l-7.5,13c-0.6,1-0.2,2.3,0.8,2.8l5.8,3.4c0.2,1.5,1.1,2.8,2.5,3.6c1.3,0.8,2.9,0.9,4.2,0.4l0.7,0.4 c2.1,1.2,3.5,3.2,4.3,5.8c0.5,1.4,1.2,2.9,2.7,4.2c0.1,0.6,0.3,1.2,0.6,1.7c1.3,2.2,4.1,3,6.3,1.7l0.7,0.3c1.3,2.1,4.1,2.8,6.2,1.6 l1.5-0.9c0.1,0.1,0.1,0.3,0.2,0.4c1.3,2.2,4.1,3,6.3,1.7l7.5-4.3c2.5-1.4,3.7-3.3,4.3-5.2c0.8-2.6,2.2-4.6,4.3-5.8l0.7-0.4 c1.4,0.6,3,0.5,4.5-0.3c1.4-0.8,2.2-2.1,2.5-3.6l5.8-3.4C107.6,86,108,84.7,107.4,83.7z M42,84.5l-3-1.7l5.5-9.4l3,1.7L42,84.5z M46.7,88.3c-0.2,0.4-0.8,0.6-1.3,0.3c-0.4-0.3-0.6-0.8-0.3-1.3l6.4-11.1c0.2-0.5,0.8-0.6,1.3-0.3c0.4,0.3,0.6,0.8,0.3,1.3 L46.7,88.3z M58.3,92.1c-1.5,0.9-2.3,2.5-2.3,4.1c-1.1-2.6-2.7-4.9-5.3-6.5l5.4-9.4c3.3,1.6,7,2.4,10.7,2.4l0.9,0 c0.5,0,1-0.1,1.3-0.1l0.2,0c0.6-0.1,1.3,0,1.8,0.4l0.7,0.4c0.2,0.2,0.5,0.3,0.7,0.4l3.4,2c0.2,0.1,0.3,0.4,0.2,0.7 c-0.1,0.2-0.4,0.3-0.6,0.2l-5.6-3.2c-1-0.6-2.3-0.2-2.8,0.8c-0.5,0.9-0.3,2.1,0.6,2.7L58.3,92.1z M85,98.8c-0.3,1-0.9,2-2.3,2.8l0,0 l-7.5,4.3c-0.2,0.1-0.5,0.1-0.6-0.2c-0.1-0.2,0-0.5,0.2-0.6l4.4-2.5c1-0.6,1.3-1.9,0.8-2.8c-0.6-1-1.8-1.3-2.8-0.8l-9.9,5.7 c-0.1,0.1-0.3,0.1-0.4,0c0-0.2-0.1-0.4-0.2-0.6c0-0.1,0.1-0.2,0.2-0.2l7.7-4.5c1-0.6,1.3-1.9,0.8-2.8c-0.6-1-1.9-1.3-2.9-0.8 l-10.3,6l-1.1-0.5L71.8,95c1-0.6,1.3-1.9,0.8-2.8c-0.6-1-1.8-1.3-2.8-0.8l-8.8,5.1c-0.2,0.1-0.5,0.1-0.6-0.2c-0.1-0.2,0-0.5,0.2-0.6 l11.3-6.5l1.7,0.9c2.2,1.3,5,0.5,6.3-1.7c0.9-1.6,0.8-3.5-0.2-5c2.1-0.4,4.1-1.1,6-2l5.4,9.4C87.8,92.6,86,95.6,85,98.8z M96.3,89.9 c-0.4,0.3-1,0.1-1.3-0.3l-6.4-11.1c-0.3-0.5-0.1-1,0.3-1.3c0.4-0.3,1-0.1,1.3,0.3l6.4,11.1C96.9,89,96.7,89.6,96.3,89.9z M99.7,85.7 l-5.4-9.5l3-1.7l5.5,9.4L99.7,85.7z"></path> </svg>